<svg width="270" height="100" viewBox="0 0 270 100" fill="none" xmlns="http://www.w3.org/2000/svg">
<path d="M110.934 85.2383L111.28 84.6154L111.127 84.1294C110.963 84.0677 110.797 84.0059 110.63 83.9495C110.348 83.8314 110.067 83.7132 109.79 83.5871C109.696 83.1924 109.53 82.5722 109.277 81.8606C108.789 80.4806 107.962 79.0764 107.677 79.0898C107.392 79.1032 107.043 80.0644 107.366 81.3505C107.489 81.8499 107.747 82.3359 107.956 82.6796C107.446 82.4218 106.944 82.156 106.463 81.8445C105.934 81.5492 105.419 81.2324 104.917 80.8968C104.893 80.4162 104.818 79.361 104.592 78.0695C104.243 76.0693 103.448 73.9186 103.062 73.8381C102.675 73.7575 101.996 74.9147 102.138 76.7351C102.243 78.0427 102.962 79.4576 102.962 79.4576L103.247 79.7073C102.519 79.1542 101.813 78.5716 101.12 77.9782C100.573 77.4842 100.038 76.9768 99.5229 76.4532C99.539 75.9672 99.5443 75.1591 99.4799 74.1844C99.3591 72.3694 98.8865 70.3208 98.5778 70.1571C98.269 69.9933 97.6219 70.8283 97.5924 72.4366C97.5736 73.3253 97.8501 74.359 97.979 74.7859C97.5118 74.2543 97.0635 73.7065 96.6392 73.14C96.4352 72.8688 96.2338 72.595 96.0351 72.3157C96.0808 71.9372 96.1774 71.0109 96.1828 69.8214C96.1935 68.0574 95.8794 66.0384 95.5948 65.8585C95.3102 65.6759 94.6282 66.4358 94.4859 67.9876C94.4108 68.8039 94.5826 69.7651 94.6792 70.2215C94.2389 69.467 93.8415 68.6884 93.4952 67.8883C93.5489 67.5205 93.5757 66.7365 93.1515 65.641C92.5501 64.0945 91.1137 62.8111 90.7968 63.0205C90.48 63.2299 90.7942 64.7201 91.5916 66.1699C92.1957 67.2708 92.9502 67.8239 93.2804 68.0252C93.7154 69.1073 94.2416 70.1463 94.8323 71.1478C94.4054 70.8739 93.5919 70.3987 92.7864 70.1973C91.1674 69.7919 90.0424 70.2322 90.0665 70.592C90.0907 70.9518 91.9299 71.9935 93.6885 72.6084C94.8914 73.0299 95.8767 73.2608 96.266 73.3441C96.2768 73.3575 96.2875 73.3736 96.2956 73.387C96.9775 74.3402 97.7159 75.2584 98.5026 76.1283C97.9844 75.9377 97.195 75.6934 96.4567 75.6558C94.7222 75.5645 93.6617 76.2357 93.7583 76.5982C93.855 76.9607 95.9358 77.6587 97.8528 77.9353C99.0933 78.1152 100.1 78.1608 100.557 78.1716C100.629 78.236 100.696 78.3004 100.769 78.3649C102.46 79.8201 104.235 81.2028 106.187 82.2983C106.713 82.642 107.269 82.9319 107.83 83.2138C106.831 83.0205 105.824 82.889 104.815 82.7869C104.399 82.752 103.985 82.7279 103.569 82.7091C103.365 82.5614 102.702 82.0996 101.722 81.5975C100.385 80.9129 98.6153 80.3786 98.2636 80.5262C97.9146 80.6739 97.9844 81.4874 99.0637 82.1936C99.4369 82.4379 99.939 82.6232 100.358 82.752C99.8236 82.7896 99.2893 82.838 98.7576 82.9024C98.3119 82.7574 97.5575 82.599 96.4889 82.6688C94.6524 82.7896 92.8535 83.7696 92.9851 84.1267C93.1166 84.4838 94.8457 84.3872 96.6366 84.0542C97.9736 83.8072 98.763 83.3991 99.0798 83.2085C99.6839 83.1736 100.291 83.1494 100.898 83.1494C101.547 83.1467 102.197 83.1602 102.844 83.187C102.342 83.3588 101.588 83.6649 101.002 84.0972C99.6598 85.0906 99.2812 86.2371 99.5765 86.4465C99.8692 86.6559 101.843 85.9015 103.437 84.9376C104.536 84.2717 105.341 83.6569 105.647 83.4125C106.751 83.5575 107.849 83.7589 108.925 84.0354C108.456 84.1267 107.591 84.3415 106.949 84.7845C105.655 85.6786 105.314 86.9191 105.61 87.2117C105.905 87.5044 107.825 86.9942 109.366 86.178C110.007 85.8397 110.544 85.5014 110.934 85.2383ZM95.4176 72.254C95.4176 72.254 95.4069 72.2486 95.4042 72.2486C95.4042 72.2486 94.647 71.8351 93.812 71.5962C92.9851 71.3411 92.1151 71.2659 92.1151 71.2659C92.0963 71.2632 92.0829 71.2471 92.0829 71.2283C92.0856 71.2096 92.1017 71.1961 92.1178 71.1961C92.1178 71.1961 92.9958 71.2203 93.855 71.4324C94.443 71.564 95.0068 71.7841 95.3021 71.9103C95.3746 72.0231 95.4471 72.1385 95.5223 72.2513C95.4901 72.2674 95.4525 72.2701 95.4176 72.254ZM95.5223 71.5666C95.4257 71.419 95.3263 71.2713 95.2323 71.1209C95.1921 70.7853 95.1518 70.2752 95.176 69.7516C95.2001 68.8683 95.4122 68.0145 95.4122 68.0145C95.4176 67.9957 95.4364 67.985 95.4525 67.9876C95.4713 67.993 95.482 68.0091 95.4794 68.0279C95.4794 68.0279 95.3183 68.8871 95.3451 69.7516C95.3532 70.6189 95.5492 71.4592 95.5492 71.4592C95.5572 71.4995 95.5438 71.5371 95.5223 71.5666ZM98.4918 74.0985C98.4462 73.2179 98.5912 72.348 98.5912 72.348C98.5939 72.3292 98.6127 72.3157 98.6315 72.3184C98.6502 72.3211 98.6637 72.3372 98.661 72.356C98.661 72.356 98.567 73.2232 98.661 74.0851C98.7362 74.9496 98.9966 75.7712 98.9966 75.7712C99.01 75.8115 99.002 75.8518 98.9805 75.884C98.9107 75.8088 98.8382 75.7336 98.7684 75.6585C98.7362 75.6236 98.7039 75.5887 98.6717 75.5538C98.6073 75.2316 98.5079 74.6704 98.4918 74.0985ZM99.4987 77.1755C99.496 77.1755 99.4879 77.1728 99.4879 77.1728C99.4879 77.1728 98.6744 76.8828 97.8126 76.7754C96.9561 76.6519 96.0835 76.7136 96.0835 76.7136C96.0647 76.7136 96.0486 76.7002 96.0459 76.6814C96.0459 76.6626 96.0593 76.6465 96.0781 76.6438C96.0781 76.6438 96.9507 76.5311 97.8287 76.6063C98.3227 76.6385 98.8113 76.7324 99.1416 76.8076C99.2597 76.9311 99.3779 77.0546 99.4987 77.1755ZM103.768 80.0993C103.676 79.7798 103.542 79.2536 103.483 78.6978C103.37 77.8225 103.446 76.9472 103.446 76.9472C103.446 76.9284 103.464 76.9123 103.483 76.915C103.502 76.915 103.515 76.9311 103.515 76.9499C103.515 76.9499 103.491 77.8225 103.65 78.6736C103.792 79.5301 104.114 80.3302 104.114 80.3302C104.117 80.3383 104.117 80.3464 104.117 80.3544C104.004 80.2712 103.886 80.1853 103.768 80.0993ZM101.671 82.6957C101.51 82.5775 101.276 82.4191 101.024 82.2795C100.559 82.011 100.073 81.7774 100.073 81.7774C100.057 81.7694 100.049 81.7479 100.057 81.7318C100.065 81.7157 100.084 81.7076 100.1 81.713C100.1 81.713 100.608 81.9009 101.102 82.1291C101.598 82.3439 102.065 82.6581 102.065 82.6581C102.076 82.6661 102.087 82.6769 102.095 82.6876C101.953 82.6903 101.813 82.693 101.671 82.6957ZM104.383 83.3857C104.38 83.3857 104.375 83.3884 104.372 83.3884C104.372 83.3884 103.601 83.5736 102.895 83.9388C102.181 84.2878 101.563 84.8006 101.563 84.8006C101.547 84.8141 101.523 84.8114 101.51 84.7953C101.496 84.7792 101.499 84.755 101.515 84.7416C101.515 84.7416 102.106 84.1858 102.815 83.7884C103.225 83.5441 103.666 83.3615 103.958 83.2514C104.13 83.2622 104.302 83.2756 104.471 83.289C104.46 83.332 104.428 83.3723 104.383 83.3857ZM108.681 83.042C108.606 82.8433 108.507 82.5614 108.439 82.2768C108.3 81.7506 108.206 81.219 108.206 81.219C108.203 81.2002 108.214 81.1814 108.233 81.1787C108.252 81.176 108.268 81.1867 108.273 81.2028C108.273 81.2028 108.418 81.7237 108.601 82.2258C108.775 82.7359 109.03 83.1897 109.03 83.1897C109.036 83.2004 109.038 83.2112 109.044 83.2219C108.92 83.1628 108.799 83.1011 108.681 83.042ZM107.884 85.5873C107.868 85.5981 107.846 85.5954 107.835 85.5793C107.825 85.5632 107.827 85.5444 107.841 85.5309C107.841 85.5309 108.386 85.0718 109.017 84.7308C109.339 84.5483 109.666 84.4086 109.916 84.312C110.05 84.3523 110.187 84.3979 110.319 84.4409C110.118 84.4946 109.594 84.6449 109.095 84.8812C108.456 85.1712 107.884 85.5873 107.884 85.5873Z" fill="#191919"/>
<path d="M127.086 5.42355C124.407 6.69083 121.405 8.11653 119.625 10.4766C119.585 10.5007 119.542 10.5249 119.496 10.5518C119.048 10.7934 118.454 11.1854 117.727 11.6982C118.245 9.59324 119.598 7.95812 120.97 6.22903C122.431 4.38985 123.883 2.6715 124.63 0.445699C123.749 2.35468 121.947 3.64881 120.186 4.79259C118.425 5.93637 116.561 7.07746 115.423 8.84414C114.303 10.5813 114.024 12.5279 114.255 14.5603C113.144 15.6021 111.954 16.8399 110.751 18.2736C110.486 18.5931 110.22 18.9234 109.954 19.2617C112.392 13.9213 110.26 8.21319 112.615 3.31857C110.716 6.21292 108.85 9.27642 107.978 12.6245C107.135 15.8625 107.331 19.2643 107.61 22.6071C107.476 22.8219 107.341 23.0367 107.207 23.2568C106.689 24.1428 106.174 25.0638 105.685 26.0223C105.379 23.375 106.839 20.6068 106.112 18.0158C105.833 17.0197 105.245 16.1391 104.667 15.2826C104.087 14.4234 103.497 13.5508 103.201 12.5574C102.906 11.564 102.949 10.4148 103.569 9.58518C102.498 10.5061 102.095 11.913 102.058 13.3226C102.02 14.7322 102.385 16.1203 102.793 17.4708C103.199 18.8213 103.65 20.1718 103.789 21.5761C104.039 24.1079 103.856 25.8424 104.987 27.4668C104.702 28.087 104.434 28.7233 104.187 29.3758C103.365 31.3492 102.737 33.4622 102.197 35.6316C102.189 29.8725 100.809 24.1214 98.1993 18.9878C98.9162 21.2163 99.1766 23.3132 99.1524 25.5605C99.1283 27.8078 98.9645 30.0792 99.4182 32.2809C99.8317 34.2945 100.745 36.1606 101.679 37.9944C101.322 39.8926 101.069 41.8284 100.887 43.7777C100.839 44.465 100.801 45.1524 100.771 45.8424C100.197 42.1318 98.4812 38.6012 95.9091 35.8625C97.6999 38.5099 97.9335 41.8875 98.3013 45.0611C98.6557 48.1273 99.0987 51.3385 100.844 53.8676C100.941 55.4491 101.083 57.0036 101.298 58.5179C101.593 60.8592 102.025 63.1065 102.568 65.2034C102.629 65.4585 102.694 65.7135 102.761 65.9659C102.688 65.88 102.611 65.7887 102.527 65.6894C102.111 65.2034 101.623 64.5241 101.094 63.6945C100.745 62.6071 100.594 61.4526 100.656 60.3168C100.954 60.2605 101.18 59.9973 101.18 59.6832C101.18 59.3261 100.89 59.0361 100.532 59.0361C100.175 59.0361 99.8854 59.3261 99.8854 59.6832C99.8854 59.9893 100.1 60.247 100.385 60.3115C100.339 61.176 100.412 62.054 100.6 62.9051C100.522 62.7789 100.444 62.6474 100.366 62.5158C99.8801 61.7023 99.386 60.7867 98.8893 59.796C98.5859 58.5072 98.5054 57.1621 98.6611 55.8491C98.6745 55.8491 98.6879 55.8518 98.7014 55.8518C99.1336 55.8518 99.4854 55.5028 99.4854 55.0678C99.4854 54.6355 99.1336 54.2838 98.7014 54.2838C98.2691 54.2838 97.9174 54.6355 97.9174 55.0678C97.9174 55.3927 98.1161 55.6719 98.398 55.7901C98.2745 56.8157 98.2933 57.8574 98.4436 58.8831C97.7885 57.5191 97.1361 56.0424 96.5132 54.512C96.2769 53.1669 96.344 51.7868 96.7065 50.4685C96.728 50.4712 96.7521 50.4712 96.7736 50.4712C97.1307 50.4712 97.4207 50.1813 97.4207 49.8242C97.4207 49.4671 97.1307 49.1771 96.7736 49.1771C96.4165 49.1771 96.1265 49.4671 96.1265 49.8242C96.1265 50.0631 96.2581 50.2725 96.4514 50.3826C96.1641 51.4163 96.0567 52.4876 96.1265 53.5481C95.9064 52.9897 95.6889 52.4285 95.4795 51.8647C94.7223 49.8698 94.0323 47.8481 93.4148 45.9444C93.7584 44.2422 93.9759 43.3535 94.0215 42.1641C94.0565 41.1787 93.9168 40.2792 93.5007 40.2631C93.0765 40.2443 92.8858 41.4042 92.8509 42.2151C92.8241 42.8702 92.7838 43.4743 92.8966 44.3201C92.6496 43.5387 92.416 42.7843 92.1985 42.0701C92.4294 40.3974 92.5959 39.5543 92.5556 38.4105C92.5234 37.4869 92.322 36.6439 91.9112 36.6224C91.4923 36.6009 91.3823 37.6856 91.4037 38.4454C91.4145 38.8321 91.4199 39.2026 91.4655 39.6214C90.9849 37.9648 90.6224 36.7083 90.4345 36.0612C90.3674 34.4852 90.3539 33.5992 90.123 32.4849C89.9217 31.513 89.5673 30.6618 89.1591 30.737C88.743 30.8149 88.837 31.9936 89.0007 32.7964C89.1967 33.7629 89.339 34.6248 90.1875 36.2143C90.2734 36.5982 90.4023 37.1594 90.5768 37.8628C90.4613 37.6561 90.3459 37.4574 90.2277 37.2533C89.8438 36.5928 89.1753 35.7202 88.8235 35.9538C88.4799 36.1821 88.7537 37.009 89.2155 37.8145C89.7525 38.7515 90.3083 39.3744 91.2722 40.5316C91.299 40.631 91.3259 40.7303 91.3554 40.8323C91.5165 41.4445 91.6991 42.0969 91.8951 42.7789C91.5971 42.148 91.2937 41.7049 90.9795 41.2243C90.5365 40.5451 89.7767 39.6483 89.4223 39.8792C89.0732 40.1074 89.4142 40.9532 89.9485 41.7801C90.6144 42.8111 91.2802 43.4743 92.5153 44.8409C93.1624 46.9164 93.9249 49.169 94.7518 51.419C94.1665 50.6672 93.4523 50.0121 92.6576 49.5046C92.6737 49.4456 92.6845 49.3838 92.6845 49.3194C92.6845 48.9623 92.3945 48.6723 92.0374 48.6723C91.6803 48.6723 91.3984 48.9623 91.3984 49.3194C91.3984 49.6765 91.6883 49.9665 92.0454 49.9665C92.2414 49.9665 92.416 49.8779 92.5368 49.7409C93.6081 50.4283 94.5236 51.3895 95.1626 52.493C95.8661 54.3536 96.6125 56.1901 97.3992 57.8843C97.6972 58.5475 98.0006 59.1892 98.3067 59.804C97.6918 59.2644 96.9454 58.875 96.1534 58.6951C96.1668 58.6361 96.1775 58.5743 96.1775 58.5099C96.1775 58.0776 95.8258 57.7259 95.3935 57.7259C94.9613 57.7259 94.6095 58.0776 94.6095 58.5099C94.6095 58.9422 94.9586 59.2939 95.3935 59.2939C95.6647 59.2939 95.9037 59.157 96.0433 58.9475C97.0958 59.1704 98.0731 59.796 98.7336 60.6498C99.131 61.415 99.5283 62.1319 99.9176 62.787C100.457 63.6998 100.973 64.5 101.437 65.1443L98.8276 63.3857C98.8705 63.2971 98.8974 63.2005 98.8974 63.0957C98.8974 62.7386 98.6074 62.4487 98.2503 62.4487C97.8932 62.4487 97.6032 62.7386 97.6032 63.0957C97.6032 63.4528 97.8932 63.7428 98.2503 63.7428C98.406 63.7428 98.5483 63.6891 98.6584 63.5978L101.937 65.8075C101.998 65.8827 102.058 65.9579 102.117 66.025C102.729 66.7526 103.078 67.1688 103.078 67.1688C103.089 67.1822 103.102 67.1929 103.113 67.2037C103.499 68.5166 103.929 69.757 104.375 70.9196C104.305 70.8552 104.232 70.7881 104.154 70.7156C103.518 70.1249 102.6 69.2925 101.572 68.2159C99.4773 66.1055 96.8058 63.1575 94.4619 59.9571C92.9932 58.0078 91.6669 55.97 90.5365 54.0851C90.5177 52.348 90.5473 51.4324 90.3432 50.2591C90.174 49.2872 89.8492 48.436 89.4384 48.5059C89.0195 48.5757 89.0732 49.7517 89.2102 50.5518C89.3256 51.2284 89.4142 51.8513 89.731 52.7158C89.2961 51.9587 88.8987 51.2391 88.5416 50.5759C88.4181 48.8737 88.4074 48.0091 88.1281 46.8922C87.9053 45.9981 87.5321 45.2115 87.1267 45.2759C86.7132 45.343 86.8286 46.425 87.0085 47.1634C87.081 47.4614 87.1481 47.746 87.2367 48.0521C86.8609 47.295 86.6058 46.7472 86.485 46.4868C86.101 44.9107 85.9184 44.0355 85.4674 42.9722C85.0807 42.0567 84.5652 41.2915 84.1813 41.4472C83.7893 41.6056 84.1088 42.744 84.4256 43.4985C84.8203 44.4382 85.1344 45.2813 86.3749 46.766C86.5762 47.346 87.0219 48.5408 87.7496 50.0739C87.4757 49.7543 87.2126 49.4993 86.9387 49.2254C86.399 48.6857 85.5264 48.0145 85.2472 48.3287C84.9733 48.6374 85.4513 49.3677 86.1064 50.0255C86.8635 50.7907 87.5562 51.2472 88.7779 52.1144C89.0893 52.6997 89.433 53.3092 89.8008 53.9375C89.4196 53.5106 89.0625 53.2018 88.6893 52.8689C88.0852 52.3265 87.1213 51.6553 86.8394 51.9694C86.5628 52.2782 87.1079 53.0085 87.8382 53.6716C88.7269 54.4771 89.5216 54.9416 90.9983 55.9001C91.7259 57.0493 92.518 58.2307 93.3476 59.3959C92.6549 59.02 91.8924 58.773 91.1138 58.671C91.0816 58.3434 90.805 58.0884 90.4694 58.0884C90.1123 58.0884 89.8223 58.3783 89.8223 58.7354C89.8223 59.0925 90.1123 59.3825 90.4694 59.3825C90.7567 59.3825 90.9983 59.1972 91.0816 58.9395C92.0266 59.063 92.9503 59.412 93.7396 59.949C93.8255 60.0671 93.9088 60.1853 93.9974 60.3034C94.6928 61.2512 95.415 62.1775 96.14 63.0716C95.5869 62.7923 94.9828 62.6232 94.3652 62.5722C94.2981 62.2097 93.9786 61.9332 93.5973 61.9332C93.1651 61.9332 92.8133 62.2822 92.8133 62.7172C92.8133 63.1521 93.1651 63.5012 93.5973 63.5012C93.9866 63.5012 94.3088 63.2166 94.3706 62.8434C95.1922 62.9158 95.9923 63.2139 96.6608 63.7052C96.9964 64.1106 97.3321 64.508 97.6623 64.8973C98.9027 66.3015 100.073 67.6037 101.158 68.6401C101.496 68.9865 101.821 69.306 102.13 69.6013C101.443 69.3301 100.718 69.1529 99.9848 69.0724C99.9418 68.7582 99.6706 68.5139 99.3458 68.5139C98.9887 68.5139 98.6987 68.8039 98.6987 69.161C98.6987 69.5181 98.9887 69.8081 99.3458 69.8081C99.6411 69.8081 99.8881 69.6121 99.966 69.3409C100.927 69.4429 101.872 69.7275 102.731 70.1652C103.134 70.5357 103.491 70.8579 103.789 71.1264C104.436 71.7143 104.807 72.05 104.807 72.05C104.818 72.058 104.828 72.0661 104.839 72.0714C106.098 75.1081 107.505 77.5004 108.665 79.1221C109.253 79.9571 109.774 80.5988 110.163 81.0498L109.479 78.8777C109.428 78.8052 109.374 78.7327 109.323 78.6576C109.084 78.3246 108.834 77.9568 108.579 77.5567C109.277 75.2934 108.918 72.8098 108.585 70.439C108.225 67.8856 108.421 64.8785 109.062 62.8326C106.971 65.778 105.908 69.408 106.123 73.0031C105.798 72.2862 105.478 71.5318 105.172 70.7317C104.93 70.1034 104.694 69.4536 104.463 68.7797C106.375 64.6154 105.857 57.4305 107.809 54.2892C104.882 56.0988 103.636 59.7476 103.021 63.6086C102.683 62.1238 102.399 60.5719 102.181 58.9717C102.353 57.4198 102.901 55.9055 103.553 54.4771C104.388 52.6514 105.604 50.9733 106.297 49.0885C107.613 45.5175 108.117 41.5304 109.234 38.3756C107.639 41.3693 105.282 43.767 103.838 46.3472C101.784 50.0148 102.858 53.422 102.025 57.8038C101.751 55.6827 101.615 53.4837 101.539 51.2525C101.531 50.0309 101.523 48.8012 101.515 47.5634L101.703 43.8233C101.749 43.3481 101.8 42.8729 101.853 42.3977C103.333 42.0432 104.477 40.9666 105.271 39.6537C106.096 38.2924 106.617 36.7674 107.398 35.3819C109.022 32.4983 111.578 30.3235 114.749 29.3785C111.777 29.2174 108.759 30.1974 106.45 32.0768C104.616 33.5696 103.247 35.6155 102.538 37.8682C102.627 37.4144 102.718 36.9634 102.82 36.5177C103.389 34.1442 104.052 31.8271 104.947 29.6818C104.998 29.5449 105.051 29.4107 105.105 29.2764C105.889 28.7555 106.794 28.4119 107.701 28.1461C108.952 27.7809 110.247 27.5393 111.457 27.0587C114.416 25.8854 116.763 23.3884 117.525 20.298C116.143 22.3305 113.729 23.3562 111.441 24.2529C109.487 25.0208 107.433 25.8424 105.967 27.303C106.574 26.0357 107.242 24.8329 107.911 23.6891C108.568 22.6017 109.259 21.5814 109.957 20.631C111.259 19.5409 112.942 18.8804 114.61 18.4508C116.819 17.8816 119.163 17.7796 121.341 17.0922C124.53 16.0854 126.697 13.7253 128.158 11.0834C126.222 13.089 123.368 13.8891 120.624 14.3751C118.221 14.7993 116.5 14.7241 114.44 15.5403C115.71 14.3241 116.881 13.3468 117.826 12.5708C118.777 11.8137 119.501 11.2364 119.955 10.8766C122.987 10.4148 125.894 9.23077 128.501 7.60639C131.296 5.86656 133.971 3.20849 134.736 0.00537109C132.915 2.58827 129.943 4.07035 127.086 5.42355ZM100.691 50.7746C100.31 50.831 99.8532 47.9125 99.7968 47.5285C99.5659 45.8881 99.2679 44.2664 99.2679 44.2664C99.2652 44.2503 99.2759 44.2341 99.2921 44.2315C99.3082 44.2288 99.3243 44.2395 99.3296 44.2556C99.3296 44.2556 99.6814 45.8746 99.9982 47.4963C100.272 48.9059 100.543 49.7973 100.704 50.2457C100.707 50.4229 100.712 50.5974 100.715 50.7719L100.691 50.7746ZM107.282 72.7722C107.299 71.1586 107.481 69.553 107.481 69.553C107.484 69.5288 107.505 69.5127 107.527 69.5154C107.551 69.5181 107.567 69.5396 107.564 69.561C107.564 69.561 107.527 71.3089 107.567 72.9199C107.602 74.0368 107.497 75.0866 107.427 75.6263C107.341 75.4706 107.258 75.3148 107.172 75.1537C107.218 74.5416 107.269 73.6609 107.282 72.7722ZM104.039 63.9334C104.412 62.6608 104.785 61.3881 104.785 61.3881C104.791 61.3747 104.804 61.3666 104.818 61.3693C104.831 61.372 104.839 61.3881 104.836 61.4016C104.836 61.4016 104.589 62.8783 104.283 64.1697C104.063 65.053 103.816 65.8478 103.682 66.2586C103.634 66.0814 103.585 65.9042 103.537 65.727C103.671 65.2491 103.854 64.5993 104.039 63.9334ZM104.069 49.7409C104.914 47.5661 106.284 45.633 106.284 45.633C106.292 45.6196 106.31 45.6142 106.324 45.6249C106.337 45.633 106.34 45.6518 106.335 45.6652C106.335 45.6652 105.215 47.6977 104.396 49.8591C103.558 52.0097 102.944 54.2462 102.944 54.2462C102.941 54.257 102.927 54.265 102.917 54.2596C102.906 54.257 102.901 54.2462 102.901 54.2355C102.906 54.2355 103.166 51.8969 104.069 49.7409ZM101.864 37.0654C101.8 36.9204 101.069 35.2745 100.739 33.5052C100.355 31.6633 100.366 29.7866 100.366 29.7866C100.366 29.7624 100.382 29.7436 100.406 29.7436C100.428 29.7436 100.447 29.7624 100.449 29.7839C100.449 29.7839 100.514 31.6526 100.967 33.4569C101.268 34.7698 101.733 36.0156 101.966 36.6009C101.931 36.7539 101.896 36.9097 101.864 37.0654ZM102.847 39.4577C103.349 38.8025 103.907 37.8413 104.455 36.8667C104.998 35.8921 105.537 34.904 106.029 34.2194C106.501 33.5079 106.992 33.2582 106.992 33.2582C107.003 33.2474 107.019 33.2474 107.03 33.2582C107.041 33.2689 107.035 33.2877 107.025 33.2984C107.025 33.2984 106.552 33.6179 106.114 34.3348C105.655 35.0302 105.159 36.0317 104.651 37.0278C104.154 38.0293 103.599 39.0146 103.064 39.6805C102.549 40.3625 102.076 40.7115 102.076 40.7115C102.071 40.7169 102.066 40.7169 102.058 40.7196C102.076 40.5853 102.095 40.4538 102.114 40.3195C102.288 40.145 102.557 39.8443 102.847 39.4577ZM105.172 27.0614C105.164 27.0479 105.156 27.0318 105.153 27.013C105.153 27.013 105.032 26.4143 105.022 25.5175C105.003 24.6234 105.051 23.4367 105.105 22.2607C105.151 21.082 105.113 19.9007 104.933 19.0388C104.769 18.1743 104.498 17.6373 104.498 17.6373C104.49 17.6212 104.495 17.6024 104.512 17.5943C104.528 17.5863 104.549 17.597 104.557 17.6131C104.557 17.6131 104.85 18.134 105.057 19.012C105.277 19.8819 105.36 21.0793 105.363 22.2661C105.341 23.4475 105.32 24.6288 105.306 25.5148C105.306 26.0035 105.341 26.3955 105.371 26.6479C105.304 26.7848 105.236 26.9217 105.172 27.0614ZM106.133 27.6682C106.901 27.3003 107.964 26.9056 109.052 26.621C110.134 26.323 111.216 26.0384 111.992 25.7243C112.776 25.4209 113.208 25.0611 113.208 25.0611C113.221 25.0477 113.243 25.0504 113.256 25.0665C113.267 25.0799 113.264 25.104 113.251 25.1148C113.251 25.1148 112.819 25.4987 112.037 25.8344C111.264 26.1807 110.185 26.5083 109.116 26.8439C108.05 27.1849 106.995 27.542 106.249 27.9098C105.953 28.0521 105.704 28.189 105.508 28.3018C105.567 28.1649 105.628 28.0279 105.69 27.891C105.822 27.8212 105.969 27.746 106.133 27.6682ZM109.484 16.3405C109.409 17.6024 109.32 18.867 109.186 19.8147C109.154 20.0403 109.119 20.2417 109.087 20.4215C108.955 20.6014 108.826 20.784 108.697 20.9693C108.762 20.7035 108.85 20.2927 108.926 19.7772C109.063 18.8455 109.148 17.5836 109.264 16.3217C109.374 15.0597 109.53 13.7978 109.707 12.8635C109.881 11.9264 110.051 11.317 110.051 11.317C110.056 11.2928 110.08 11.2767 110.107 11.2821C110.131 11.2874 110.147 11.3143 110.142 11.3384C110.142 11.3384 109.989 11.956 109.838 12.8876C109.685 13.822 109.562 15.0785 109.484 16.3405ZM116.51 16.4398C117.81 16.2331 119.115 16.1257 120.087 15.9914C121.061 15.876 121.679 15.6585 121.679 15.6585C121.692 15.6531 121.708 15.6612 121.714 15.6746C121.719 15.688 121.711 15.7041 121.698 15.7095C121.698 15.7095 121.08 15.9565 120.106 16.1096C119.134 16.2814 117.834 16.4398 116.556 16.6949C115.281 16.9607 114.016 17.2641 113.111 17.6238C112.625 17.8091 112.236 17.989 111.976 18.1125C112.129 17.938 112.279 17.7688 112.429 17.6024C112.601 17.5272 112.795 17.444 113.007 17.3607C113.933 17.0009 115.206 16.6277 116.51 16.4398ZM115.933 13.0783C115.845 13.1508 115.756 13.2286 115.667 13.3038C115.667 13.3038 115.667 13.3011 115.667 13.2984V13.285C115.667 13.285 115.641 11.6284 116.349 10.1624C116.991 8.66157 118.229 7.59834 118.229 7.59834C118.245 7.58223 118.272 7.58491 118.285 7.60102C118.299 7.61713 118.299 7.64398 118.283 7.65741C118.283 7.65741 117.093 8.75286 116.516 10.2349C116.016 11.376 115.941 12.5977 115.933 13.0783ZM129.256 5.84508C129.256 5.84508 128.824 6.17801 128.109 6.56196C127.392 6.94053 126.415 7.39697 125.446 7.86146C123.481 8.73943 121.572 9.71943 121.572 9.71943C121.555 9.72748 121.537 9.72212 121.529 9.70601C121.521 9.69258 121.526 9.67379 121.539 9.66573C121.539 9.66573 121.972 9.34354 122.683 8.94886C123.395 8.56491 124.348 8.05209 125.336 7.6225C126.324 7.19023 127.309 6.76333 128.034 6.41429C128.773 6.08941 129.226 5.80481 129.226 5.80481C129.237 5.79675 129.253 5.80212 129.261 5.81286C129.267 5.8236 129.264 5.83703 129.256 5.84508Z" fill="#191919"/>
<path d="M174.645 86.178C176.186 86.9942 178.105 87.5044 178.401 87.2117C178.696 86.9191 178.355 85.6786 177.061 84.7845C176.417 84.3388 175.555 84.124 175.085 84.0354C176.159 83.7589 177.26 83.5575 178.363 83.4125C178.669 83.6569 179.475 84.2717 180.573 84.9376C182.168 85.9015 184.138 86.6586 184.434 86.4465C184.726 86.2371 184.351 85.0906 183.008 84.0972C182.423 83.6649 181.666 83.3588 181.166 83.187C181.813 83.1602 182.463 83.1467 183.113 83.1494C183.72 83.1494 184.324 83.1736 184.931 83.2085C185.245 83.3991 186.037 83.8072 187.374 84.0542C189.165 84.3845 190.894 84.4838 191.025 84.1267C191.157 83.7696 189.358 82.7896 187.521 82.6688C186.453 82.599 185.698 82.7574 185.253 82.9024C184.721 82.838 184.187 82.7869 183.652 82.752C184.071 82.6232 184.573 82.4379 184.947 82.1936C186.026 81.4901 186.096 80.6766 185.747 80.5262C185.398 80.3786 183.626 80.9129 182.291 81.5975C181.311 82.0996 180.648 82.5614 180.444 82.7091C180.028 82.7252 179.612 82.752 179.198 82.7869C178.189 82.8863 177.182 83.0205 176.183 83.2138C176.744 82.9319 177.3 82.642 177.826 82.2983C179.778 81.2028 181.553 79.8201 183.244 78.3649C183.317 78.3004 183.387 78.236 183.457 78.1716C183.913 78.1608 184.92 78.1152 186.16 77.9353C188.077 77.6561 190.158 76.958 190.255 76.5982C190.351 76.2357 189.291 75.5645 187.556 75.6558C186.815 75.6934 186.029 75.9377 185.51 76.1283C186.297 75.2584 187.036 74.3402 187.717 73.387C187.728 73.3736 187.736 73.3575 187.747 73.3441C188.136 73.2608 189.122 73.0299 190.325 72.6084C192.083 71.9935 193.92 70.9518 193.944 70.592C193.968 70.2322 192.843 69.7946 191.224 70.1973C190.419 70.3987 189.605 70.8739 189.178 71.1478C189.769 70.1463 190.295 69.1073 190.73 68.0252C191.06 67.8212 191.815 67.2708 192.419 66.1699C193.216 64.7201 193.53 63.2299 193.214 63.0205C192.897 62.8111 191.463 64.0945 190.862 65.641C190.435 66.7338 190.464 67.5205 190.518 67.8883C190.174 68.6884 189.774 69.467 189.334 70.2215C189.43 69.7651 189.602 68.8039 189.527 67.9876C189.385 66.4358 188.703 65.6786 188.418 65.8585C188.134 66.0384 187.822 68.0574 187.83 69.8214C187.836 71.0109 187.932 71.9372 187.978 72.3157C187.782 72.595 187.581 72.8688 187.374 73.14C186.952 73.7065 186.501 74.2543 186.034 74.7859C186.163 74.359 186.437 73.3253 186.421 72.4366C186.391 70.831 185.741 69.996 185.435 70.1571C185.127 70.3208 184.654 72.3694 184.533 74.1844C184.469 75.1591 184.474 75.9672 184.49 76.4532C183.975 76.9768 183.44 77.4842 182.893 77.9782C182.2 78.5716 181.494 79.1516 180.769 79.7073L181.053 79.4576C181.053 79.4576 181.773 78.0427 181.878 76.7351C182.023 74.9147 181.341 73.7575 180.957 73.8381C180.57 73.9186 179.775 76.0693 179.426 78.0695C179.201 79.361 179.126 80.4162 179.102 80.8968C178.597 81.2297 178.084 81.5465 177.555 81.8445C177.074 82.156 176.572 82.4218 176.062 82.6796C176.272 82.3359 176.529 81.8499 176.653 81.3505C176.975 80.0644 176.626 79.1032 176.341 79.0898C176.054 79.0764 175.23 80.4806 174.741 81.8606C174.489 82.5722 174.322 83.1897 174.228 83.5871C173.949 83.7132 173.67 83.8314 173.388 83.9495C173.222 84.0059 173.055 84.0677 172.891 84.1294L172.738 84.6154L173.085 85.2383C173.469 85.5014 174.006 85.8397 174.645 86.178ZM188.491 72.2513C188.566 72.1385 188.638 72.0231 188.711 71.9103C189.006 71.7841 189.57 71.564 190.161 71.4324C191.017 71.2203 191.898 71.1961 191.898 71.1961C191.917 71.1961 191.933 71.2096 191.935 71.2283C191.935 71.2471 191.922 71.2632 191.903 71.2659C191.903 71.2659 191.033 71.3411 190.206 71.5962C189.371 71.8351 188.614 72.2486 188.614 72.2486C188.612 72.2486 188.604 72.254 188.601 72.254C188.561 72.2701 188.523 72.2674 188.491 72.2513ZM188.467 71.4619C188.467 71.4619 188.663 70.6216 188.671 69.7543C188.697 68.8898 188.536 68.0306 188.536 68.0306C188.534 68.0118 188.544 67.9957 188.563 67.9903C188.582 67.9876 188.601 67.9984 188.604 68.0172C188.604 68.0172 188.816 68.871 188.84 69.7543C188.867 70.2779 188.824 70.7907 188.783 71.1236C188.687 71.274 188.59 71.4217 188.493 71.5693C188.469 71.5371 188.456 71.4995 188.467 71.4619ZM185.339 75.5564C185.306 75.5913 185.274 75.6263 185.242 75.6612C185.172 75.7363 185.1 75.8115 185.03 75.8867C185.008 75.8545 185 75.8115 185.014 75.7739C185.014 75.7739 185.274 74.9523 185.349 74.0878C185.443 73.2259 185.349 72.3587 185.349 72.3587C185.349 72.3399 185.36 72.3238 185.379 72.3211C185.398 72.3184 185.416 72.3318 185.419 72.3506C185.419 72.3506 185.564 73.2179 185.519 74.1012C185.505 74.6704 185.406 75.2316 185.339 75.5564ZM184.512 77.1755C184.633 77.0546 184.753 76.9311 184.871 76.8076C185.202 76.7324 185.69 76.6385 186.184 76.6063C187.065 76.5311 187.935 76.6438 187.935 76.6438C187.954 76.6465 187.967 76.6626 187.964 76.6814C187.964 76.7002 187.946 76.7136 187.927 76.7136C187.927 76.7136 187.057 76.6519 186.198 76.7754C185.336 76.8801 184.522 77.1701 184.522 77.1701C184.522 77.1701 184.512 77.1728 184.509 77.1728C184.514 77.1755 184.514 77.1755 184.512 77.1755ZM179.894 80.3544C179.894 80.3464 179.894 80.3383 179.896 80.3302C179.896 80.3302 180.221 79.5301 180.361 78.6736C180.522 77.8225 180.495 76.9499 180.495 76.9499C180.495 76.9311 180.508 76.915 180.527 76.915C180.546 76.915 180.562 76.9284 180.565 76.9472C180.565 76.9472 180.64 77.8225 180.527 78.6978C180.468 79.2536 180.337 79.7798 180.243 80.0993C180.127 80.1853 180.009 80.2712 179.894 80.3544ZM181.918 82.6876C181.926 82.6769 181.934 82.6661 181.948 82.6581C181.948 82.6581 182.415 82.3439 182.911 82.1291C183.405 81.9009 183.913 81.713 183.913 81.713C183.929 81.7076 183.948 81.713 183.956 81.7318C183.964 81.7479 183.956 81.7694 183.94 81.7774C183.94 81.7774 183.454 82.011 182.989 82.2795C182.737 82.4191 182.503 82.5775 182.342 82.6957C182.2 82.693 182.06 82.6903 181.918 82.6876ZM179.542 83.2863C179.714 83.2729 179.883 83.2595 180.055 83.2488C180.347 83.3588 180.788 83.5414 181.198 83.7857C181.907 84.1858 182.498 84.7389 182.498 84.7389C182.514 84.7523 182.517 84.7765 182.503 84.7926C182.49 84.8087 182.466 84.8114 182.447 84.798C182.447 84.798 181.829 84.2851 181.115 83.9361C180.409 83.5709 179.639 83.3857 179.639 83.3857C179.636 83.3857 179.63 83.383 179.628 83.383C179.585 83.3723 179.553 83.332 179.542 83.2863ZM174.972 83.2219C174.975 83.2112 174.978 83.2004 174.986 83.1897C174.986 83.1897 175.241 82.7359 175.415 82.2258C175.6 81.721 175.743 81.2028 175.743 81.2028C175.748 81.1867 175.764 81.176 175.783 81.1787C175.802 81.1814 175.815 81.2002 175.81 81.219C175.81 81.219 175.713 81.7506 175.576 82.2768C175.509 82.5641 175.41 82.8433 175.335 83.042C175.214 83.1011 175.093 83.1628 174.972 83.2219ZM174.918 84.8839C174.419 84.6476 173.893 84.4972 173.691 84.4435C173.826 84.4006 173.96 84.3549 174.097 84.3147C174.344 84.4113 174.674 84.5509 174.994 84.7335C175.625 85.0718 176.17 85.5336 176.17 85.5336C176.183 85.5444 176.186 85.5658 176.175 85.582C176.164 85.5981 176.143 85.6008 176.127 85.59C176.129 85.5873 175.557 85.1712 174.918 84.8839Z" fill="#191919"/>
<path d="M149.282 0C150.048 3.20312 152.722 5.86119 155.514 7.60102C158.119 9.22272 161.029 10.4095 164.06 10.8713C164.514 11.2337 165.236 11.8083 166.189 12.5654C167.132 13.3414 168.305 14.3187 169.575 15.535C167.516 14.7188 165.792 14.7966 163.392 14.3697C160.648 13.8837 157.794 13.0836 155.858 11.078C157.318 13.7173 159.485 16.08 162.675 17.0869C164.852 17.7742 167.194 17.8762 169.406 18.4454C171.073 18.875 172.757 19.5328 174.059 20.6256C174.76 21.5761 175.447 22.5936 176.105 23.6837C176.773 24.8275 177.439 26.0277 178.049 27.2976C176.585 25.8397 174.532 25.0154 172.577 24.2476C170.289 23.3481 167.876 22.3252 166.493 20.2927C167.258 23.383 169.602 25.88 172.561 27.0533C173.774 27.5339 175.066 27.7755 176.317 28.1407C177.224 28.4065 178.132 28.7502 178.913 29.2711C178.967 29.4053 179.018 29.5422 179.072 29.6765C179.966 31.8217 180.632 34.1388 181.201 36.5123C181.303 36.9607 181.394 37.4117 181.483 37.8628C180.774 35.6102 179.405 33.5642 177.571 32.0714C175.262 30.192 172.244 29.2093 169.272 29.3731C172.443 30.3182 174.999 32.493 176.623 35.3766C177.404 36.762 177.925 38.287 178.75 39.6483C179.544 40.9612 180.688 42.0406 182.167 42.3923C182.221 42.8675 182.272 43.3427 182.318 43.818L182.506 47.5581C182.498 48.7931 182.49 50.0255 182.479 51.2472C182.404 53.4783 182.267 55.68 181.993 57.7984C181.161 53.4166 182.235 50.0094 180.181 46.3418C178.736 43.7589 176.376 41.364 174.784 38.3703C175.898 41.5251 176.406 45.5122 177.721 49.0831C178.414 50.9679 179.63 52.646 180.465 54.4718C181.12 55.9001 181.668 57.4144 181.837 58.9663C181.62 60.5665 181.335 62.1184 180.997 63.6032C180.382 59.7423 179.136 56.0935 176.21 54.2838C178.162 57.4279 177.643 64.6127 179.555 68.7744C179.327 69.4483 179.088 70.1007 178.846 70.7263C178.54 71.5264 178.221 72.2836 177.896 72.9977C178.111 69.4053 177.047 65.7726 174.956 62.8272C175.597 64.8732 175.791 67.8803 175.434 70.4336C175.101 72.8017 174.741 75.288 175.439 77.5514C175.181 77.9514 174.932 78.3193 174.695 78.6522C174.642 78.7274 174.591 78.7999 174.537 78.8724L173.855 81.0445C174.244 80.5961 174.765 79.9517 175.353 79.1167C176.513 77.495 177.92 75.1027 179.179 72.0661C179.19 72.058 179.201 72.0527 179.211 72.0446C179.211 72.0446 179.582 71.709 180.229 71.121C180.527 70.8498 180.884 70.5303 181.287 70.1598C182.146 69.7221 183.091 69.4375 184.052 69.3355C184.13 69.604 184.38 69.8027 184.672 69.8027C185.03 69.8027 185.32 69.5127 185.32 69.1556C185.32 68.7985 185.03 68.5086 184.672 68.5086C184.345 68.5086 184.076 68.7529 184.033 69.067C183.3 69.1449 182.576 69.3248 181.888 69.5959C182.197 69.3006 182.522 68.9811 182.86 68.6347C183.945 67.5984 185.115 66.2935 186.356 64.892C186.689 64.5053 187.022 64.1053 187.357 63.6998C188.023 63.2085 188.823 62.9105 189.648 62.838C189.707 63.2112 190.029 63.4958 190.421 63.4958C190.853 63.4958 191.205 63.1441 191.205 62.7118C191.205 62.2795 190.853 61.9278 190.421 61.9278C190.037 61.9278 189.72 62.2043 189.653 62.5668C189.035 62.6178 188.429 62.787 187.878 63.0662C188.603 62.1721 189.325 61.2458 190.021 60.298C190.107 60.1799 190.193 60.0618 190.279 59.9436C191.068 59.4067 191.992 59.0576 192.939 58.9341C193.025 59.1919 193.267 59.3771 193.554 59.3771C193.911 59.3771 194.201 59.0871 194.201 58.7301C194.201 58.373 193.911 58.083 193.554 58.083C193.219 58.083 192.942 58.3381 192.91 58.6656C192.131 58.765 191.369 59.0147 190.676 59.3905C191.506 58.2226 192.298 57.0439 193.025 55.8948C194.502 54.9363 195.297 54.4718 196.185 53.6663C196.916 53.0031 197.461 52.2728 197.184 51.964C196.9 51.6499 195.936 52.3211 195.334 52.8635C194.961 53.1964 194.607 53.5052 194.223 53.9321C194.591 53.3038 194.932 52.6943 195.246 52.109C196.467 51.2445 197.16 50.7854 197.917 50.0202C198.57 49.3597 199.048 48.632 198.776 48.3233C198.497 48.0091 197.627 48.6777 197.085 49.22C196.811 49.4939 196.548 49.749 196.274 50.0685C197.002 48.5354 197.447 47.3406 197.649 46.7607C198.889 45.2759 199.206 44.4328 199.598 43.4931C199.915 42.7386 200.234 41.6002 199.842 41.4418C199.458 41.2888 198.943 42.054 198.556 42.9669C198.105 44.0301 197.923 44.9081 197.539 46.4814C197.418 46.7419 197.163 47.2896 196.787 48.0467C196.875 47.7407 196.943 47.4561 197.015 47.158C197.195 46.4197 197.31 45.3376 196.897 45.2705C196.489 45.2061 196.118 45.9901 195.895 46.8868C195.619 48.0038 195.605 48.8683 195.482 50.5706C195.125 51.2364 194.728 51.956 194.293 52.7104C194.609 51.8459 194.701 51.223 194.813 50.5464C194.95 49.7463 195.001 48.573 194.585 48.5005C194.174 48.4307 193.85 49.2818 193.68 50.2537C193.476 51.4271 193.506 52.3426 193.487 54.0798C192.354 55.9673 191.03 58.0024 189.559 59.949C187.212 63.1521 184.544 66.1002 182.449 68.2078C181.424 69.2845 180.503 70.1168 179.866 70.7075C179.789 70.78 179.716 70.8471 179.646 70.9116C180.092 69.749 180.522 68.5086 180.908 67.1956C180.922 67.1849 180.932 67.1741 180.946 67.1607C180.946 67.1607 181.295 66.7446 181.907 66.0169C181.966 65.9471 182.025 65.8746 182.087 65.7995L185.365 63.5898C185.478 63.6811 185.618 63.7348 185.773 63.7348C186.13 63.7348 186.42 63.4448 186.42 63.0877C186.42 62.7306 186.13 62.4406 185.773 62.4406C185.416 62.4406 185.126 62.7306 185.126 63.0877C185.126 63.1924 185.15 63.2917 185.196 63.3777L182.586 65.1363C183.051 64.4892 183.564 63.6918 184.103 62.7789C184.493 62.1265 184.89 61.4096 185.287 60.6417C185.948 59.7879 186.925 59.165 187.978 58.9395C188.117 59.1489 188.356 59.2858 188.627 59.2858C189.06 59.2858 189.411 58.9341 189.411 58.5018C189.411 58.0696 189.06 57.7178 188.627 57.7178C188.195 57.7178 187.843 58.0696 187.843 58.5018C187.843 58.5663 187.851 58.628 187.868 58.6871C187.075 58.867 186.329 59.2563 185.714 59.796C186.02 59.1811 186.324 58.5394 186.622 57.8762C187.408 56.1821 188.155 54.3456 188.858 52.4849C189.497 51.3814 190.413 50.4202 191.484 49.7329C191.602 49.8698 191.779 49.9584 191.975 49.9584C192.333 49.9584 192.623 49.6684 192.623 49.3113C192.623 48.9542 192.333 48.6643 191.975 48.6643C191.618 48.6643 191.328 48.9542 191.328 49.3113C191.328 49.3758 191.339 49.4375 191.355 49.4966C190.558 50.004 189.844 50.6592 189.261 51.4109C190.091 49.161 190.853 46.9083 191.498 44.8329C192.733 43.4663 193.396 42.8031 194.064 41.7721C194.599 40.9451 194.94 40.0994 194.591 39.8711C194.236 39.6402 193.476 40.537 193.033 41.2163C192.719 41.6969 192.416 42.1399 192.118 42.7709C192.316 42.0889 192.496 41.4364 192.657 40.8243C192.684 40.7223 192.714 40.6229 192.741 40.5236C193.705 39.3664 194.26 38.7435 194.797 37.8064C195.259 37.0009 195.533 36.174 195.189 35.9458C194.84 35.7122 194.169 36.5848 193.785 37.2453C193.667 37.4493 193.552 37.6453 193.436 37.8548C193.608 37.1513 193.739 36.5902 193.825 36.2062C194.674 34.6141 194.816 33.7522 195.012 32.7883C195.176 31.9855 195.267 30.8068 194.851 30.729C194.443 30.6538 194.089 31.5022 193.887 32.4769C193.656 33.5911 193.643 34.4771 193.576 36.0532C193.388 36.7002 193.025 37.9568 192.545 39.6134C192.59 39.1945 192.596 38.824 192.606 38.4374C192.628 37.6776 192.518 36.5955 192.099 36.6143C191.688 36.6358 191.487 37.4816 191.455 38.4025C191.417 39.5463 191.581 40.3893 191.812 42.062C191.592 42.7762 191.358 43.528 191.114 44.312C191.224 43.4663 191.186 42.8621 191.157 42.207C191.122 41.3962 190.931 40.2363 190.507 40.2551C190.091 40.2712 189.951 41.1733 189.986 42.156C190.029 43.3454 190.249 44.2341 190.593 45.9364C189.975 47.84 189.288 49.8617 188.528 51.8566C188.316 52.4205 188.101 52.9816 187.881 53.5401C187.953 52.4769 187.843 51.4056 187.559 50.3746C187.752 50.2618 187.881 50.0551 187.881 49.8161C187.881 49.459 187.591 49.169 187.234 49.169C186.877 49.169 186.587 49.459 186.587 49.8161C186.587 50.1732 186.877 50.4632 187.234 50.4632C187.258 50.4632 187.28 50.4632 187.301 50.4605C187.663 51.7788 187.728 53.1588 187.494 54.504C186.871 56.0344 186.219 57.5111 185.564 58.875C185.714 57.8521 185.733 56.8076 185.61 55.782C185.891 55.6639 186.09 55.3846 186.09 55.0598C186.09 54.6275 185.738 54.2758 185.306 54.2758C184.874 54.2758 184.522 54.6275 184.522 55.0598C184.522 55.492 184.874 55.8438 185.306 55.8438C185.32 55.8438 185.333 55.8438 185.346 55.8411C185.499 57.1513 185.422 58.4991 185.115 59.7879C184.619 60.7786 184.122 61.6942 183.639 62.5077C183.561 62.6393 183.483 62.7709 183.405 62.8971C183.593 62.0459 183.668 61.168 183.62 60.3034C183.907 60.2363 184.119 59.9812 184.119 59.6751C184.119 59.3181 183.829 59.0281 183.472 59.0281C183.115 59.0281 182.825 59.3181 182.825 59.6751C182.825 59.992 183.051 60.2524 183.351 60.3088C183.413 61.4445 183.263 62.599 182.914 63.6864C182.382 64.5161 181.894 65.1954 181.48 65.6813C181.397 65.7807 181.322 65.8719 181.249 65.9579C181.316 65.7055 181.381 65.4531 181.443 65.1954C181.985 63.0984 182.42 60.8511 182.712 58.5099C182.93 56.9956 183.07 55.4383 183.166 53.8596C184.911 51.3304 185.354 48.1219 185.712 45.053C186.079 41.8795 186.313 38.4991 188.104 35.8545C185.532 38.5931 183.816 42.1238 183.241 45.8344C183.212 45.1443 183.172 44.4543 183.126 43.7696C182.943 41.8204 182.691 39.8846 182.334 37.9863C183.268 36.1525 184.181 34.2865 184.595 32.2728C185.048 30.0712 184.885 27.7997 184.86 25.5524C184.836 23.3051 185.099 21.2082 185.816 18.9771C183.207 24.1106 181.826 29.8644 181.818 35.6209C181.281 33.4542 180.65 31.3384 179.829 29.365C179.582 28.7126 179.313 28.0763 179.029 27.456C180.159 25.8317 179.974 24.0972 180.224 21.5653C180.363 20.1611 180.814 18.8106 181.22 17.4601C181.625 16.1096 181.993 14.7214 181.955 13.3119C181.918 11.9023 181.515 10.4954 180.446 9.57444C181.067 10.4041 181.11 11.5532 180.814 12.5467C180.519 13.5401 179.928 14.4127 179.348 15.2719C178.768 16.131 178.183 17.009 177.904 18.0051C177.176 20.5961 178.637 23.3642 178.331 26.0116C177.842 25.053 177.324 24.1321 176.808 23.2461C176.677 23.0259 176.543 22.8111 176.406 22.5963C176.682 19.2536 176.881 15.8518 176.035 12.6138C175.162 9.26568 173.296 6.20218 171.396 3.30783C173.753 8.20245 171.618 13.9133 174.056 19.2509C173.793 18.9126 173.527 18.5797 173.262 18.2629C172.059 16.8291 170.869 15.594 169.758 14.5496C169.989 12.5144 169.709 10.5679 168.59 8.8334C167.451 7.06672 165.588 5.92563 163.827 4.78185C162.065 3.63807 160.264 2.34125 159.383 0.434958C160.13 2.66076 161.582 4.37911 163.043 6.21829C164.415 7.94738 165.768 9.5825 166.286 11.6875C165.558 11.1747 164.965 10.7827 164.517 10.541C164.471 10.5142 164.428 10.49 164.388 10.4658C162.608 8.10579 159.606 6.68009 156.926 5.41281C154.07 4.07035 151.097 2.58827 149.282 0ZM183.295 50.7719C183.3 50.5974 183.303 50.4202 183.306 50.2457C183.47 49.7973 183.738 48.9059 184.012 47.4963C184.329 45.8746 184.681 44.2556 184.681 44.2556C184.683 44.2395 184.702 44.2288 184.718 44.2315C184.734 44.2341 184.745 44.2529 184.742 44.269C184.742 44.269 184.447 45.8934 184.216 47.5312C184.16 47.9152 183.703 50.8337 183.322 50.7773L183.295 50.7719ZM176.838 75.1564C176.752 75.3175 176.669 75.4732 176.583 75.629C176.516 75.0893 176.411 74.0395 176.446 72.9226C176.486 71.3116 176.449 69.5637 176.449 69.5637C176.446 69.5396 176.465 69.5208 176.486 69.5181C176.51 69.5154 176.532 69.5315 176.534 69.5557C176.534 69.5557 176.717 71.1639 176.733 72.7749C176.744 73.6609 176.795 74.5416 176.838 75.1564ZM180.476 65.727C180.428 65.9069 180.379 66.0841 180.331 66.2586C180.197 65.8478 179.95 65.053 179.73 64.1697C179.423 62.8783 179.176 61.4016 179.176 61.4016C179.174 61.3881 179.182 61.3747 179.195 61.3693C179.209 61.364 179.225 61.372 179.227 61.3881C179.227 61.3881 179.601 62.6608 179.974 63.9334C180.159 64.5993 180.342 65.2491 180.476 65.727ZM181.107 54.2355C181.11 54.2462 181.102 54.257 181.091 54.2597C181.08 54.2623 181.069 54.257 181.064 54.2462C181.064 54.2462 180.449 52.0097 179.611 49.8591C178.792 47.6977 177.673 45.6652 177.673 45.6652C177.665 45.6518 177.67 45.633 177.684 45.6249C177.697 45.6169 177.716 45.6196 177.724 45.633C177.724 45.633 179.093 47.5634 179.939 49.7409C180.846 51.8969 181.107 54.2355 181.107 54.2355ZM182.047 36.6009C182.28 36.0129 182.745 34.7671 183.045 33.4568C183.499 31.6526 183.561 29.7839 183.561 29.7839C183.564 29.7624 183.582 29.7436 183.604 29.7436C183.628 29.7436 183.644 29.7651 183.644 29.7866C183.644 29.7866 183.658 31.6633 183.271 33.5052C182.938 35.2719 182.21 36.9204 182.146 37.0654C182.116 36.9097 182.082 36.7539 182.047 36.6009ZM181.899 40.3168C181.918 40.4511 181.937 40.5826 181.955 40.7169C181.95 40.7142 181.945 40.7142 181.939 40.7088C181.939 40.7088 181.467 40.3598 180.951 39.6778C180.417 39.0093 179.861 38.0266 179.364 37.0251C178.857 36.0263 178.36 35.0275 177.901 34.3321C177.463 33.6153 176.991 33.2958 176.991 33.2958C176.98 33.285 176.977 33.2662 176.986 33.2555C176.996 33.2447 177.012 33.2447 177.023 33.2555C177.023 33.2555 177.514 33.5079 177.987 34.2167C178.478 34.904 179.018 35.8894 179.56 36.864C180.108 37.836 180.667 38.7999 181.169 39.455C181.456 39.8443 181.724 40.145 181.899 40.3168ZM178.642 26.6479C178.672 26.3955 178.707 26.0035 178.707 25.5148C178.69 24.6288 178.669 23.4474 178.65 22.2661C178.653 21.0793 178.739 19.8819 178.956 19.012C179.163 18.134 179.456 17.6131 179.456 17.6131C179.464 17.597 179.485 17.5863 179.501 17.5943C179.517 17.6024 179.523 17.6212 179.515 17.6373C179.515 17.6373 179.244 18.1743 179.08 19.0388C178.9 19.9033 178.862 21.0847 178.908 22.2607C178.962 23.4394 179.01 24.6234 178.991 25.5175C178.98 26.4143 178.86 27.013 178.86 27.013C178.857 27.0318 178.849 27.0452 178.841 27.0614C178.774 26.9217 178.709 26.7848 178.642 26.6479ZM178.323 27.8937C178.384 28.0306 178.446 28.1649 178.505 28.3045C178.309 28.1917 178.06 28.0521 177.764 27.9125C177.018 27.5446 175.963 27.1875 174.897 26.8466C173.831 26.511 172.751 26.1834 171.975 25.837C171.194 25.5014 170.762 25.1175 170.762 25.1175C170.748 25.1067 170.746 25.0826 170.757 25.0691C170.77 25.0557 170.791 25.053 170.805 25.0638C170.805 25.0638 171.24 25.4236 172.021 25.727C172.797 26.0411 173.879 26.3257 174.961 26.6237C176.048 26.9083 177.112 27.303 177.88 27.6708C178.043 27.746 178.191 27.8212 178.323 27.8937ZM174.174 12.8876C174.024 11.956 173.871 11.3384 173.871 11.3384C173.866 11.3143 173.882 11.2874 173.906 11.2821C173.93 11.2767 173.957 11.2928 173.962 11.317C173.962 11.317 174.129 11.9264 174.306 12.8635C174.483 13.7978 174.639 15.0597 174.749 16.3217C174.864 17.5836 174.95 18.8428 175.087 19.7772C175.162 20.2927 175.251 20.7035 175.316 20.9693C175.187 20.784 175.058 20.6014 174.926 20.4215C174.891 20.2417 174.859 20.0403 174.827 19.8147C174.693 18.867 174.604 17.6024 174.529 16.3405C174.451 15.0785 174.327 13.822 174.174 12.8876ZM171.004 17.3607C171.216 17.444 171.409 17.5272 171.583 17.6024C171.734 17.7688 171.887 17.9407 172.037 18.1125C171.779 17.9863 171.387 17.8091 170.901 17.6238C169.994 17.2641 168.729 16.9607 167.454 16.6949C166.176 16.4398 164.874 16.2814 163.905 16.1069C162.93 15.9538 162.312 15.7068 162.312 15.7068C162.299 15.7014 162.291 15.6853 162.296 15.6719C162.302 15.6585 162.318 15.6504 162.331 15.6558C162.331 15.6558 162.946 15.876 163.923 15.9887C164.893 16.123 166.2 16.2304 167.5 16.4371C168.805 16.6277 170.08 17.0009 171.004 17.3607ZM167.497 10.2349C166.92 8.75017 165.73 7.65741 165.73 7.65741C165.714 7.6413 165.712 7.61713 165.728 7.60102C165.744 7.58223 165.771 7.57954 165.787 7.59565C165.787 7.59565 167.027 8.66157 167.666 10.1598C168.375 11.6257 168.348 13.2823 168.348 13.2823V13.2957C168.348 13.2984 168.348 13.2984 168.348 13.2984C168.257 13.2233 168.168 13.1481 168.08 13.0756C168.072 12.5977 167.996 11.376 167.497 10.2349ZM154.752 5.81286C154.76 5.80212 154.773 5.79675 154.787 5.80481C154.787 5.80481 155.243 6.08673 155.981 6.41429C156.706 6.76601 157.692 7.19023 158.68 7.6225C159.668 8.05209 160.621 8.56223 161.332 8.94886C162.044 9.34354 162.476 9.66573 162.476 9.66573C162.49 9.67379 162.495 9.69258 162.487 9.70601C162.479 9.72211 162.46 9.72748 162.444 9.71943C162.444 9.71943 160.535 8.73943 158.57 7.86146C157.6 7.39697 156.623 6.94053 155.906 6.56196C155.192 6.17801 154.76 5.84508 154.76 5.84508C154.749 5.83703 154.746 5.8236 154.752 5.81286Z" fill="#191919"/>
<path d="M171.88 84.8946L173.727 79.02C173.775 78.8723 173.729 78.7112 173.617 78.6038C173.501 78.4964 173.335 78.4669 173.195 78.5233C173.139 78.5448 167.839 80.5853 163.017 81.8633C163.87 82.2983 165.114 83.0796 165.114 83.7535V92.3345C169.557 91.0672 173.78 89.416 173.826 89.3972C173.982 89.3382 174.081 89.1314 174.081 88.965C174.081 88.8978 174.065 88.828 174.03 88.769L171.88 84.8946Z" fill="#191919"/>
<path d="M142.388 99.9973C133.098 99.9973 122.501 98.3836 119.762 94.7832C119.708 94.7133 119.679 94.6274 119.679 94.5388V84.6395C119.679 84.3603 119.74 84.0837 120.001 83.7803C120.065 83.9817 120.261 84.226 120.404 84.3952C122.535 87.2009 131.146 89.0831 141.832 89.0831C141.835 89.0831 141.835 89.0831 141.84 89.0831C152.628 89.0831 161.306 87.1982 163.435 84.3952C163.435 84.3952 163.711 84.022 163.805 83.7374C164.069 84.0434 164.157 84.3388 164.157 84.6395V94.5415C164.157 94.6301 164.128 94.716 164.077 94.7858C161.153 98.6307 150.958 100 142.393 100C142.393 99.9973 142.39 99.9973 142.388 99.9973Z" fill="#191919"/>
<path d="M161.488 82.2444C161.368 82.3169 161.292 82.4485 161.292 82.5881V85.0341C162.471 84.3655 162.882 83.7077 163.164 83.203C162.517 82.7519 161.292 82.4297 161.488 82.2444Z" fill="#191919"/>
<path d="M112.008 84.8946L110.158 79.02C110.11 78.8723 110.155 78.7112 110.268 78.6038C110.384 78.4964 110.55 78.4669 110.69 78.5233C110.746 78.5448 116.046 80.5853 120.868 81.8633C120.014 82.2983 118.771 83.0796 118.771 83.7535V92.3345C114.325 91.0672 110.104 89.416 110.059 89.3972C109.903 89.3382 109.804 89.1314 109.804 88.965C109.804 88.8978 109.82 88.828 109.855 88.769L112.008 84.8946Z" fill="#191919"/>
<path d="M122.399 82.2444C122.52 82.3169 122.595 82.4485 122.595 82.5881V85.0341C121.416 84.3655 121.005 83.7077 120.723 83.203C121.37 82.7519 122.595 82.4297 122.399 82.2444Z" fill="#191919"/>
<path d="M123.54 44.3496V32.0876H125.409V42.7602H127.769V44.3496H123.54Z" fill="#191919"/>
<path d="M133.536 43.6919C133.109 44.2235 132.422 44.4893 131.477 44.4893C130.532 44.4893 129.844 44.2235 129.415 43.6892C128.985 43.1549 128.77 42.3253 128.77 41.203V32.085H130.639V41.1681C130.639 41.8151 130.669 42.2071 130.73 42.3467C130.792 42.4864 130.862 42.6126 130.95 42.728C131.036 42.8408 131.214 42.8972 131.485 42.8972C131.753 42.8972 131.947 42.8193 132.062 42.6609C132.177 42.5025 132.247 42.3065 132.274 42.0729C132.298 41.8393 132.312 41.5359 132.312 41.1681V32.085H134.178V41.203C134.178 42.328 133.966 43.1603 133.536 43.6919Z" fill="#191919"/>
<path d="M139.336 44.3496L138.09 40.58L137.08 44.3496H135.276L137.164 37.7716L135.281 32.0876H136.858L138.076 35.731L139.059 32.0876H140.807L138.952 38.3649L140.952 44.3496H139.336Z" fill="#191919"/>
<path d="M146.767 43.6919C146.34 44.2235 145.653 44.4893 144.708 44.4893C143.763 44.4893 143.075 44.2235 142.646 43.6892C142.216 43.1549 142.001 42.3253 142.001 41.203V32.085H143.87V41.1681C143.87 41.8151 143.899 42.2071 143.961 42.3467C144.023 42.4864 144.093 42.6126 144.181 42.728C144.27 42.8435 144.445 42.8972 144.716 42.8972C144.984 42.8972 145.177 42.8193 145.293 42.6609C145.408 42.5025 145.478 42.3065 145.505 42.0729C145.529 41.8393 145.543 41.5359 145.543 41.1681V32.085H147.409V41.203C147.409 42.328 147.194 43.1603 146.767 43.6919Z" fill="#191919"/>
<path d="M151.646 38.5878L151.047 38.5609V44.3496H149.179V32.0876H152.266C152.908 32.0876 153.386 32.2165 153.7 32.4742C154.017 32.732 154.224 33.0917 154.323 33.5536C154.422 34.0154 154.473 34.6195 154.473 35.3659C154.473 36.1123 154.396 36.6788 154.237 37.0708C154.079 37.4601 153.786 37.7232 153.359 37.8575C153.781 37.9327 154.076 38.2173 154.245 38.714C154.412 39.2107 154.495 40.2444 154.495 41.8178C154.495 43.3911 154.519 44.2342 154.565 44.3496H152.699C152.653 44.2557 152.629 42.7897 152.629 39.9544C152.629 39.4094 152.564 39.0496 152.433 38.8697C152.304 38.6898 152.041 38.5958 151.646 38.5878ZM151.053 37.1111H151.799C152.035 37.1111 152.21 37.0574 152.325 36.95C152.441 36.8426 152.519 36.66 152.562 36.3996C152.605 36.1391 152.626 35.7418 152.626 35.2102V35.1323C152.626 34.4691 152.57 34.0342 152.46 33.8301C152.347 33.626 152.089 33.524 151.686 33.524H151.053V37.1111Z" fill="#191919"/>
<path d="M157.33 44.3496V39.4523L155.273 32.0876H157.056L158.269 36.6734H158.296L159.376 32.0876H161.153L159.196 39.4523V44.3496H157.33Z" fill="#191919"/>
<path d="M119.701 61.4715V49.2094H122.514C123.468 49.2094 124.12 49.4967 124.469 50.0766C124.821 50.6566 125.003 51.5184 125.022 52.6649V52.9227C125.022 54.1416 124.85 55.0625 124.504 55.6935C124.158 56.3218 123.516 56.6386 122.576 56.6386H121.567V61.4741H119.701V61.4715ZM121.569 55.0948H122.211C122.606 55.0948 122.864 54.9417 122.982 54.6383C123.1 54.3349 123.159 53.755 123.159 52.9012V52.6649C123.153 51.94 123.092 51.4218 122.968 51.1103C122.845 50.7989 122.598 50.6432 122.227 50.6432H121.572V55.0948H121.569Z" fill="#191919"/>
<path d="M128.746 55.7096L128.147 55.6828V61.4715H126.279V49.2094H129.366C130.008 49.2094 130.483 49.3383 130.8 49.596C131.117 49.8538 131.324 50.2136 131.423 50.6754C131.522 51.1372 131.573 51.744 131.573 52.4877C131.573 53.2341 131.495 53.8006 131.337 54.1926C131.179 54.5819 130.886 54.8451 130.459 54.9793C130.881 55.0545 131.176 55.3391 131.345 55.8358C131.511 56.3325 131.595 57.3662 131.595 58.9396C131.595 60.5129 131.619 61.356 131.665 61.4715H129.798C129.753 61.3775 129.729 59.9115 129.729 57.0762C129.729 56.5312 129.664 56.1714 129.533 55.9915C129.401 55.8116 129.141 55.7177 128.746 55.7096ZM128.153 54.2329H128.899C129.135 54.2329 129.31 54.1792 129.425 54.0745C129.538 53.9671 129.619 53.7845 129.662 53.5241C129.705 53.2636 129.726 52.8663 129.726 52.3347V52.2568C129.726 51.5936 129.67 51.1587 129.56 50.9546C129.447 50.7506 129.189 50.6485 128.786 50.6485H128.153V54.2329Z" fill="#191919"/>
<path d="M137.942 60.7251C137.515 61.3158 136.83 61.6111 135.89 61.6111C134.951 61.6111 134.261 61.3158 133.82 60.7224C133.38 60.129 133.163 59.2376 133.163 58.0428V52.434C133.163 50.1868 134.078 49.0618 135.915 49.0618C136.86 49.0618 137.542 49.3491 137.958 49.9183C138.374 50.4875 138.581 51.3278 138.581 52.4313V58.0402C138.581 59.2403 138.369 60.1344 137.942 60.7251ZM135.206 59.5679C135.316 59.8525 135.539 59.9921 135.877 59.9921C136.218 59.9921 136.441 59.8471 136.546 59.5571C136.653 59.2672 136.707 58.7705 136.707 58.0616V52.3481C136.707 51.7682 136.65 51.3413 136.543 51.0755C136.433 50.807 136.218 50.6754 135.901 50.6754C135.582 50.6754 135.359 50.8097 135.233 51.0755C135.104 51.3413 135.039 51.7628 135.039 52.3401V58.059C135.042 58.7839 135.098 59.286 135.206 59.5679Z" fill="#191919"/>
<path d="M140.267 61.4715V49.2094H143.019C143.921 49.2094 144.574 49.4752 144.979 50.0068C145.385 50.5384 145.589 51.3224 145.589 52.3588L145.597 57.8898C145.597 59.1275 145.393 60.0323 144.985 60.6069C144.576 61.1815 143.9 61.4715 142.957 61.4715H140.267ZM142.136 60.0216H142.751C143.094 60.0216 143.344 59.9088 143.5 59.686C143.655 59.4631 143.733 59.055 143.733 58.459L143.728 52.4045C143.728 51.7681 143.65 51.3144 143.494 51.0459C143.339 50.7747 143.07 50.6432 142.689 50.6432H142.138V60.0216H142.136Z" fill="#191919"/>
<path d="M151.974 60.8137C151.547 61.3453 150.862 61.6111 149.914 61.6111C148.969 61.6111 148.282 61.3453 147.852 60.811C147.423 60.2767 147.208 59.447 147.208 58.3247V49.204H149.077V58.2871C149.077 58.9342 149.106 59.3262 149.168 59.4631C149.23 59.6028 149.3 59.729 149.388 59.8444C149.474 59.9572 149.651 60.0136 149.922 60.0136C150.191 60.0136 150.384 59.9357 150.5 59.7773C150.615 59.6189 150.685 59.4229 150.712 59.1893C150.736 58.9557 150.749 58.6523 150.749 58.2871V49.204H152.615V58.3247C152.613 59.4497 152.401 60.282 151.974 60.8137Z" fill="#191919"/>
<path d="M158.927 60.7574C158.506 61.3266 157.84 61.6112 156.935 61.6112C156.03 61.6112 155.351 61.3078 154.903 60.7037C154.454 60.0969 154.231 59.2243 154.231 58.0859V52.7429C154.231 50.9172 154.709 49.7761 155.665 49.3223C156.02 49.1559 156.447 49.0726 156.949 49.0726C158.672 49.0726 159.534 50.16 159.534 52.3321V54.0183H157.73V52.4503C157.73 51.8193 157.676 51.3682 157.569 51.0944C157.464 50.8232 157.252 50.6863 156.943 50.6863C156.632 50.6863 156.417 50.8313 156.296 51.1185C156.175 51.4058 156.114 51.8462 156.114 52.4422V58.1692C156.114 58.8297 156.173 59.2995 156.288 59.5841C156.404 59.866 156.616 60.0083 156.922 60.0083C157.228 60.0083 157.44 59.8633 157.555 59.5761C157.674 59.2888 157.73 58.8109 157.73 58.1477V56.3917H159.564V58.1262C159.561 59.3129 159.349 60.1882 158.927 60.7574Z" fill="#191919"/>
<path d="M161.707 61.4715V50.8257H160.27V49.2094H164.945V50.8257H163.565V61.4715H161.707Z" fill="#191919"/>
<path d="M124.601 94.6652C124.842 94.7512 125.057 94.7485 125.253 94.6572C125.446 94.5659 125.586 94.3994 125.675 94.1605C125.734 93.9967 125.728 93.8329 125.661 93.6745C125.594 93.5134 125.497 93.3523 125.369 93.1885C125.242 93.0221 125.1 92.8529 124.942 92.6784C124.783 92.5012 124.646 92.3186 124.531 92.1226C124.415 91.9293 124.335 91.7226 124.287 91.5051C124.238 91.2849 124.26 91.0487 124.351 90.7963C124.405 90.6432 124.488 90.5144 124.598 90.4043C124.708 90.2942 124.845 90.211 125.012 90.1573C125.178 90.1009 125.366 90.0794 125.581 90.0901C125.796 90.1009 126.034 90.1519 126.295 90.2485C126.443 90.2996 126.571 90.3721 126.682 90.4633C126.792 90.5519 126.883 90.6379 126.953 90.7211C127.036 90.8178 127.106 90.9198 127.157 91.0245C127.21 90.9815 127.267 90.9466 127.321 90.9171C127.377 90.8876 127.428 90.8634 127.471 90.8473C127.525 90.8285 127.578 90.8151 127.629 90.8043L127.788 90.8607L127.355 92.0609L127.103 91.9696C127.116 91.7467 127.1 91.5346 127.055 91.3306C127.017 91.1614 126.945 90.9896 126.837 90.8204C126.73 90.654 126.574 90.5305 126.362 90.4553C126.281 90.4258 126.201 90.415 126.118 90.4231C126.034 90.4311 125.954 90.4553 125.876 90.4956C125.801 90.5385 125.728 90.5949 125.664 90.6701C125.6 90.7426 125.551 90.8312 125.514 90.9332C125.449 91.1158 125.449 91.2903 125.514 91.4568C125.578 91.6259 125.675 91.7951 125.801 91.9615C125.924 92.1307 126.067 92.3025 126.225 92.477C126.384 92.6516 126.52 92.8341 126.639 93.0221C126.757 93.21 126.843 93.406 126.894 93.6101C126.947 93.8141 126.931 94.0343 126.848 94.2652C126.789 94.4317 126.698 94.574 126.571 94.6975C126.448 94.821 126.292 94.9123 126.107 94.9767C125.924 95.0385 125.71 95.0626 125.468 95.0492C125.226 95.0358 124.96 94.9767 124.671 94.872C124.485 94.8049 124.33 94.727 124.206 94.633C124.083 94.5417 123.98 94.4531 123.903 94.3672C123.809 94.2679 123.736 94.1632 123.68 94.0531C123.623 94.1014 123.57 94.1363 123.513 94.1659C123.457 94.1954 123.409 94.2169 123.363 94.233C123.309 94.2518 123.256 94.2652 123.205 94.2759L123.046 94.2195L123.478 93.0194L123.731 93.1107C123.72 93.3389 123.742 93.5591 123.795 93.7631C123.819 93.8544 123.852 93.9403 123.892 94.0289C123.932 94.1175 123.983 94.2008 124.048 94.2813C124.112 94.3619 124.19 94.4343 124.279 94.5042C124.372 94.5659 124.477 94.6223 124.601 94.6652Z" fill="white"/>
<path d="M128.352 91.0809L128.373 90.9816L130.239 91.3977L130.218 91.4971L129.801 91.5078L128.864 95.7017L129.235 95.8869L129.213 95.9863L127.347 95.5701L127.369 95.4708L127.782 95.46L128.719 91.2662L128.352 91.0809Z" fill="white"/>
<path d="M134.342 92.2998L133.837 92.0313L133.851 91.9293L135.115 92.0957L135.102 92.1951L134.543 92.324L133.961 96.7836L133.759 96.7568L131.139 92.724L130.717 95.954L131.222 96.2225L131.209 96.3218L129.944 96.1554L129.958 96.056L130.516 95.9271L131.058 91.8004L130.607 91.6071L130.621 91.5078L131.319 91.599C131.453 91.6151 131.566 91.6474 131.66 91.6876C131.754 91.7306 131.834 91.7789 131.901 91.8353C131.969 91.8917 132.025 91.9508 132.071 92.0125C132.116 92.0743 132.156 92.1333 132.191 92.187L133.993 94.9632L134.342 92.2998Z" fill="white"/>
<path d="M137.598 92.1118C137.754 92.1199 137.896 92.1521 138.028 92.2058C138.157 92.2595 138.267 92.3159 138.358 92.375C138.466 92.4421 138.56 92.52 138.643 92.6032C138.68 92.5468 138.723 92.4958 138.769 92.4528C138.815 92.4072 138.855 92.3723 138.893 92.3401C138.938 92.3078 138.986 92.2783 139.032 92.2541L139.199 92.2622L139.131 93.5375L138.863 93.5241C138.812 93.3039 138.737 93.1079 138.632 92.9254C138.546 92.7723 138.428 92.6327 138.278 92.4985C138.127 92.3669 137.942 92.2971 137.719 92.2837C137.585 92.2756 137.451 92.3078 137.319 92.375C137.185 92.4421 137.064 92.5602 136.954 92.7321C136.844 92.9012 136.75 93.1321 136.675 93.4221C136.6 93.7121 136.549 94.0718 136.527 94.5068C136.503 94.9444 136.516 95.3096 136.562 95.6049C136.608 95.8976 136.683 96.1365 136.785 96.3191C136.887 96.5017 137.013 96.6332 137.161 96.7165C137.308 96.797 137.47 96.8427 137.644 96.8534C137.805 96.8615 137.961 96.8346 138.111 96.7755C138.264 96.7138 138.398 96.6279 138.522 96.5151C138.643 96.4024 138.745 96.2735 138.82 96.1231C138.898 95.9754 138.941 95.817 138.949 95.6452L139.115 95.6533C139.105 95.8466 139.056 96.0265 138.968 96.1983C138.879 96.3675 138.764 96.5151 138.619 96.6386C138.474 96.7621 138.305 96.8615 138.114 96.9286C137.923 96.9957 137.717 97.0253 137.499 97.0118C137.147 96.993 136.83 96.9232 136.557 96.7997C136.28 96.6762 136.049 96.5071 135.864 96.2896C135.679 96.0694 135.542 95.8063 135.453 95.4975C135.365 95.1888 135.332 94.837 135.351 94.445C135.373 94.053 135.442 93.7067 135.561 93.4087C135.679 93.1106 135.837 92.8609 136.038 92.6649C136.237 92.4662 136.471 92.3213 136.734 92.2273C136.994 92.136 137.284 92.0984 137.598 92.1118Z" fill="white"/>
<path d="M142.088 94.5982C142.106 94.5096 142.131 94.4236 142.163 94.3404C142.195 94.2572 142.227 94.1847 142.265 94.1229C142.305 94.0531 142.348 93.9887 142.394 93.9296H142.595L142.587 95.4385H142.386C142.34 95.3822 142.3 95.315 142.259 95.2425C142.225 95.1808 142.19 95.1083 142.16 95.0278C142.128 94.9472 142.104 94.8613 142.088 94.7646L141.314 94.7619L141.304 96.8428L142.88 96.8535C142.88 96.6763 142.904 96.5259 142.949 96.3971C142.995 96.2682 143.043 96.1581 143.1 96.0695C143.162 95.9675 143.237 95.8842 143.323 95.8171H143.524L143.519 97.0253L139.792 97.0065V96.9072L140.195 96.8079L140.216 92.512L139.813 92.4073V92.3052L143.403 92.324L143.395 93.5322H143.194C143.111 93.4651 143.035 93.3792 142.974 93.2772C142.92 93.1859 142.872 93.0785 142.829 92.9496C142.783 92.8234 142.764 92.6704 142.764 92.4905L141.32 92.4824L141.309 94.5982H142.088Z" fill="white"/>
<path d="M147.814 96.5689L148.292 96.6736L148.297 96.7757L146.254 96.9072L146.249 96.8052L146.708 96.6414L146.472 92.9631L145.801 93.5054L145.656 93.347L146.802 92.163L147.527 92.1146L147.814 96.5689Z" fill="white"/>
<path d="M151.732 92.6515C151.745 92.7588 151.732 92.8689 151.694 92.9817C151.654 93.0945 151.6 93.2019 151.53 93.2985C151.458 93.3979 151.372 93.4865 151.273 93.5697C151.171 93.6503 151.066 93.7147 150.953 93.7603C151.361 93.8838 151.686 94.053 151.933 94.2705C152.18 94.4853 152.325 94.7779 152.368 95.1484C152.39 95.3176 152.371 95.4814 152.312 95.6425C152.255 95.8036 152.153 95.9512 152.008 96.0882C151.861 96.2251 151.67 96.3432 151.439 96.4399C151.205 96.5365 150.921 96.6064 150.588 96.6466C150.295 96.6815 150.038 96.6815 149.817 96.6439C149.595 96.6063 149.409 96.5419 149.256 96.4506C149.103 96.3593 148.985 96.2439 148.902 96.107C148.819 95.97 148.768 95.8197 148.746 95.6505C148.733 95.527 148.746 95.3981 148.789 95.2693C148.832 95.1404 148.899 95.0169 148.985 94.8987C149.074 94.7779 149.178 94.6705 149.302 94.5685C149.425 94.4691 149.56 94.3859 149.705 94.3188C149.562 94.2597 149.431 94.1953 149.31 94.1228C149.189 94.053 149.084 93.9698 148.993 93.8758C148.905 93.7818 148.829 93.6771 148.77 93.5616C148.711 93.4462 148.674 93.312 148.655 93.1616C148.636 92.9951 148.649 92.8367 148.7 92.6837C148.749 92.5279 148.837 92.3883 148.966 92.2621C149.092 92.1359 149.259 92.0312 149.463 91.9426C149.67 91.8567 149.919 91.795 150.212 91.7601C150.43 91.7332 150.628 91.7413 150.808 91.7842C150.988 91.8272 151.144 91.8889 151.278 91.9749C151.41 92.0608 151.514 92.1628 151.595 92.2809C151.67 92.391 151.716 92.5172 151.732 92.6515ZM151.291 95.476C151.265 95.2585 151.133 95.0545 150.894 94.8638C150.655 94.6732 150.352 94.5255 149.984 94.4155C149.758 94.5282 149.581 94.6786 149.452 94.8665C149.323 95.0545 149.275 95.2934 149.31 95.5753C149.326 95.7176 149.369 95.8492 149.442 95.9673C149.511 96.0855 149.6 96.1848 149.707 96.2654C149.812 96.3486 149.936 96.4104 150.07 96.4479C150.204 96.4882 150.349 96.499 150.499 96.4828C150.784 96.4479 150.996 96.3432 151.133 96.166C151.273 95.9888 151.324 95.7606 151.291 95.476ZM149.726 92.8233C149.769 93.1777 150.105 93.4542 150.738 93.6502C150.881 93.567 151.001 93.4489 151.098 93.2958C151.195 93.1455 151.23 92.9522 151.2 92.7159C151.187 92.5924 151.149 92.4769 151.087 92.3749C151.028 92.2729 150.956 92.1843 150.873 92.1091C150.789 92.0366 150.695 91.9829 150.593 91.9453C150.491 91.9104 150.389 91.897 150.293 91.9104C150.105 91.9319 149.957 92.0232 149.844 92.1843C149.734 92.3427 149.694 92.5575 149.726 92.8233Z" fill="white"/>
<path d="M154.446 95.8761C154.567 95.852 154.677 95.8036 154.774 95.7338C154.871 95.664 154.943 95.5674 154.994 95.4439C155.045 95.323 155.077 95.17 155.085 94.9901C155.093 94.8102 155.072 94.5981 155.024 94.3511C154.924 93.8732 154.771 93.5537 154.567 93.3872C154.36 93.2207 154.116 93.1697 153.832 93.2288C153.705 93.2556 153.593 93.3013 153.496 93.3711C153.397 93.4382 153.311 93.508 153.233 93.5805C153.144 93.6638 153.066 93.7524 152.999 93.849L152.849 93.7792L152.656 91.5239L154.594 91.1211C154.586 90.9869 154.591 90.8661 154.61 90.7587C154.632 90.6513 154.658 90.56 154.693 90.4848C154.731 90.3935 154.774 90.3183 154.822 90.2512L155.021 90.2109L155.287 91.4943L152.9 91.9884L153.037 93.5376C153.104 93.4678 153.184 93.4006 153.276 93.3362C153.356 93.2825 153.448 93.2288 153.558 93.1724C153.665 93.116 153.789 93.0731 153.928 93.0435C154.256 92.9764 154.548 92.9522 154.801 92.971C155.053 92.9925 155.273 93.0516 155.459 93.1483C155.644 93.2449 155.792 93.3765 155.904 93.5402C156.017 93.7067 156.095 93.9027 156.143 94.1256C156.24 94.5847 156.162 94.982 155.918 95.3204C155.673 95.656 155.238 95.8896 154.616 96.0184C154.379 96.0695 154.167 96.0856 153.979 96.0695C153.791 96.0533 153.63 96.0158 153.493 95.9594C153.356 95.903 153.252 95.8305 153.174 95.7392C153.096 95.6506 153.048 95.5566 153.026 95.4546C152.994 95.3069 153.015 95.1754 153.088 95.068C153.158 94.9579 153.268 94.8908 153.418 94.8586C153.453 94.8505 153.485 94.8478 153.515 94.8451C153.544 94.8451 153.571 94.8424 153.601 94.8424C153.627 94.8424 153.657 94.8398 153.689 94.8398L153.907 95.8922C153.95 95.9003 154.001 95.9083 154.057 95.9164C154.105 95.9191 154.167 95.9191 154.232 95.9164C154.288 95.9057 154.363 95.8949 154.446 95.8761Z" fill="white"/>
<path d="M160.455 94.1282L160.487 94.2249L158.554 94.8961L158.522 94.7995L158.922 94.5175L158.591 93.5671L156.784 94.1954L156.591 94.0477L157.88 90.082L158.481 89.8726L159.539 92.9173L160.205 92.6864L160.304 92.971L159.638 93.2019L159.969 94.1524L160.455 94.1282ZM158.489 93.2825L157.764 91.1882L156.905 93.8302L158.489 93.2825Z" fill="white"/>
<path d="M129.954 73.7976C129.567 73.7976 129.296 73.6579 129.13 73.462C128.77 73.7331 128.383 73.913 128.01 73.8996C127.033 73.8727 126.891 72.7021 127.379 71.5583C127.881 70.3743 128.95 69.3728 129.825 69.397C130.802 69.4077 130.945 70.5918 130.456 71.7382C130.263 72.1893 129.863 72.7934 129.374 73.2579C129.479 73.4512 129.669 73.5801 129.981 73.5801C130.805 73.5801 131.474 71.9852 131.78 71.3677C131.844 71.2388 132.064 71.2898 131.973 71.4832C131.756 71.9718 131.036 73.7976 129.954 73.7976ZM128.271 71.51C127.768 72.5652 127.653 73.4646 128.115 73.6069C128.359 73.6714 128.681 73.5425 128.99 73.2847C128.848 73.078 128.783 72.8471 128.783 72.6538C128.797 72.3584 128.912 72.1007 129.232 72.1007C129.452 72.1007 129.618 72.2806 129.618 72.4873C129.618 72.5383 129.605 72.5759 129.592 72.6296C129.734 72.4229 129.873 72.1786 129.989 71.9342C130.491 70.8791 130.555 69.9662 130.094 69.8239C129.543 69.6708 128.746 70.4924 128.271 71.51Z" fill="#191919"/>
<path d="M133.418 73.889C132.98 73.9937 132.196 73.6044 132.711 72.2673C132.905 71.7384 133.367 71.0698 133.509 70.7503C133.689 70.3261 133.238 70.1596 132.518 70.1462L132.365 70.557C132.056 71.3679 131.439 72.7936 130.808 73.4003C130.706 73.4916 130.628 73.3493 130.706 73.2339C131.721 71.8941 132.429 69.9529 132.687 68.5138C132.816 67.7915 133.651 68.1137 133.471 68.9756C133.393 69.3354 132.983 69.6817 132.762 69.8374C133.238 69.8643 133.906 69.8509 134.537 69.7864C134.628 69.9663 134.422 70.455 134.266 70.7772C134.073 71.1772 132.76 73.5292 133.533 73.5695C134.059 73.5829 134.857 71.9747 135.128 71.4216C135.243 71.2041 135.41 71.2927 135.284 71.5504C134.91 72.3183 134.253 73.6823 133.418 73.889Z" fill="#191919"/>
<path d="M135.555 73.6178C135.748 73.6447 135.992 73.5024 136.132 73.3735C136.556 72.9493 136.98 72.1492 137.343 71.4296C137.445 71.1987 137.627 71.2873 137.509 71.5451C137.174 72.2673 136.443 73.8998 135.49 73.8998C134.526 73.8998 134.526 72.8956 134.795 72.227L135.619 70.1301C135.721 69.8858 135.541 69.6549 135.49 69.5905L136.199 69.577C136.61 69.577 136.61 69.7193 136.47 70.0281L135.442 72.4338C135.442 72.4338 135.313 72.7157 135.286 72.807C135.171 73.2339 135.195 73.5937 135.555 73.6178ZM136.481 69.0535C136.186 69.0535 135.992 68.8226 136.033 68.5245C136.084 68.2292 136.368 67.9983 136.65 67.9983C136.945 67.9983 137.152 68.2292 137.101 68.5245C137.047 68.8199 136.779 69.0535 136.481 69.0535Z" fill="#191919"/>
<path d="M140.6 74.0556C140.033 75.6746 138.336 77.9675 136.47 77.9675C135.659 77.9675 135.262 77.6453 135.262 76.9768C135.262 76.3458 135.764 75.8572 136.382 75.4974C137.641 74.751 138.811 74.5067 139.802 74.1093C139.955 73.6609 140.047 73.1964 140.098 72.6809C140.151 72.1788 140.151 71.768 140.111 71.6257C139.7 72.4231 138.669 74.1603 137.641 73.8515C136.355 73.2984 137.128 71.4458 138.078 70.3128C138.838 69.3999 140.098 68.9623 141.061 69.7221C141.512 70.0953 141.061 70.4819 140.919 70.0953C140.583 69.1824 139.633 69.6979 138.849 70.5732C137.909 71.6284 137.19 73.1857 137.858 73.481C138.618 73.8032 139.864 71.8352 140.108 71.0243C140.288 70.4336 140.702 70.6645 140.906 70.5088C141.072 71.5398 141.008 72.6191 140.739 73.6341C141.048 73.4166 141.384 73.1454 141.641 72.7964C142.066 72.2298 142.259 71.6767 142.388 71.4324C142.503 71.2015 142.71 71.2767 142.581 71.5371C141.926 72.885 141.553 73.6045 140.6 74.0556ZM139.225 74.6355C138.285 74.9577 137.206 75.3309 136.395 75.8706C135.56 76.4237 135.095 77.7125 136.164 77.7125C136.717 77.7125 137.477 77.2748 137.786 77.0412C138.183 76.719 138.583 76.2572 138.943 75.782C139.252 75.3443 139.496 74.9201 139.679 74.4825L139.225 74.6355Z" fill="#191919"/>
<path d="M142.842 73.6178C143.035 73.6447 143.279 73.5024 143.419 73.3735C143.843 72.9493 144.267 72.1492 144.63 71.4296C144.732 71.1987 144.912 71.2873 144.796 71.5451C144.461 72.2673 143.73 73.8998 142.777 73.8998C141.813 73.8998 141.813 72.8956 142.082 72.227L142.906 70.1301C143.008 69.8858 142.828 69.6549 142.777 69.5905L143.486 69.577C143.897 69.577 143.897 69.7193 143.757 70.0281L142.729 72.4338C142.729 72.4338 142.6 72.7157 142.573 72.807C142.458 73.2339 142.482 73.5937 142.842 73.6178ZM143.768 69.0535C143.472 69.0535 143.279 68.8226 143.317 68.5245C143.368 68.2292 143.652 67.9983 143.934 67.9983C144.23 67.9983 144.436 68.2292 144.383 68.5245C144.334 68.8199 144.063 69.0535 143.768 69.0535Z" fill="#191919"/>
<path d="M147.014 73.9535C146.563 73.9535 145.946 73.6447 146.332 72.4499C146.434 72.1143 146.679 71.6767 147.038 71.0994C147.347 70.5973 147.116 70.251 146.126 71.1773C145.688 71.5746 145.057 72.2969 144.337 73.7253C144.233 73.9051 144.117 73.9186 143.849 73.9186C143.655 73.932 143.54 73.9186 143.411 73.9964C144.029 72.7748 144.558 71.5505 145.186 70.3933C145.521 69.7757 145.688 69.5583 146.099 69.5824C146.265 69.5958 146.459 69.6737 146.638 69.6334C146.252 69.8402 145.546 71.1263 145.081 72.0526C145.339 71.7304 145.75 71.2417 146.15 70.8953C146.767 70.3423 148.094 69.5314 148.531 69.6844C148.531 69.6844 147.154 72.1036 146.987 73.003C146.885 73.5293 147.028 73.6474 147.194 73.6474C147.863 73.6474 148.687 71.9613 148.958 71.4216C149.06 71.1907 149.267 71.2793 149.138 71.5397C148.749 72.3184 148.002 73.9535 147.014 73.9535Z" fill="#191919"/>
<path d="M151.697 73.9293C151.273 73.9534 150.669 73.6205 151.055 72.27C150.848 72.6056 150.502 73.1184 150.129 73.4782C148.65 74.8932 147.672 72.6405 149.616 70.3127C150.387 69.3998 151.866 68.9246 152.599 69.722C152.779 69.9153 152.677 70.1328 152.457 70.0952C152.314 69.62 151.839 69.5179 151.364 69.773C150.787 70.0952 150.115 70.8523 149.654 71.6122C149.552 71.7921 149.205 72.423 149.127 72.9117C148.999 73.8111 149.705 73.7091 150.311 72.9895C150.76 72.4499 151.122 71.8189 151.455 71.1906C151.737 70.6483 151.917 70.3422 152.331 70.3664C152.497 70.3771 152.69 70.455 152.87 70.4174C152.599 70.6886 151.842 72.0391 151.675 72.8231C151.571 73.3493 151.635 73.5963 151.804 73.5963C152.344 73.6205 153.192 71.9881 153.464 71.435C153.579 71.2041 153.772 71.2792 153.643 71.5397C153.254 72.3183 152.47 73.8648 151.697 73.9293Z" fill="#191919"/>
<path d="M154.169 71.4189C154.104 71.6364 153.976 71.9479 153.898 72.2674C153.511 73.8112 154.542 74.0287 155.224 73.0782C155.648 72.4741 156.008 71.7787 156.175 71.4458C156.29 71.2256 156.483 71.2525 156.368 71.5102C156.046 72.1922 155.377 73.9293 154.078 73.9293C152.636 73.9293 153.253 72.1653 153.474 71.3948C153.871 69.953 154.682 68.103 155.431 66.8546C156.344 65.3241 157.732 65.504 156.808 67.5607C156.215 68.8844 155.431 70.2752 154.169 71.4189ZM156.306 66.7874C155.675 67.6761 154.674 69.9771 154.274 71.0055C155.187 70.0792 156.113 68.5622 156.615 67.3647C156.873 66.774 157.002 65.7967 156.306 66.7874Z" fill="#191919"/>
</svg>
