<svg width="270" height="100" viewBox="0 0 270 100" fill="none" xmlns="http://www.w3.org/2000/svg">
<path d="M99.2637 81.4667C101.162 81.8221 102.446 82.4393 103.176 83.3429C103.564 83.3319 103.964 83.3154 104.38 83.2961C104.405 82.0508 104.526 80.665 104.942 79.2627C105.308 78.0394 105.958 76.8934 106.587 75.7858C106.926 75.188 107.275 74.5708 107.584 73.9427C108.917 71.2042 109.474 68.1571 109.19 65.1238C109.176 64.986 109.063 64.8786 108.923 64.8731C108.796 64.8483 108.664 64.9667 108.645 65.1072C108.377 66.8154 106.901 68.0414 105.41 69.1544L104.958 69.4905C103.581 70.5071 102.157 71.5568 101.418 73.13C100.465 75.1522 100.953 77.4554 101.528 79.034C101.851 79.9239 102.25 80.7724 102.641 81.5962C101.652 80.4005 100.451 79.2958 99.5778 78.5767C99.3656 78.0725 99.1976 77.5518 99.0764 77.0146C99.3023 76.9402 99.4924 76.7804 99.6301 76.5324C100.159 75.5985 99.8588 73.6782 99.2527 72.8214C98.8945 72.3172 98.5309 72.2621 98.2829 72.3117C97.6933 72.4247 97.3737 73.2043 97.4344 74.4C97.4977 75.6591 97.9799 76.998 98.6852 77.0586C98.7182 77.0614 98.7513 77.0641 98.7816 77.0641C98.7898 77.0641 98.7981 77.0614 98.8064 77.0614C98.8918 77.4416 98.9992 77.8163 99.1287 78.1827C97.8283 77.0283 96.2552 75.7996 94.3818 74.5736C94.6821 73.3889 95.2689 71.937 95.8667 70.8929C96.6822 70.3198 97.4288 70.0498 98.1562 69.7908C99.0929 69.4547 100.063 69.1048 101.088 68.113C102.305 66.9311 103.11 65.2009 103.479 62.9638C103.661 61.8563 103.73 60.7212 103.796 59.6219C103.84 58.8836 103.887 58.1177 103.967 57.3738C104.209 55.1312 104.749 53.5057 105.664 52.2577C105.746 52.1447 105.733 51.9877 105.628 51.894C105.526 51.7976 105.369 51.7976 105.261 51.8858C104.777 52.3018 104.316 52.704 103.854 53.109C103.394 53.5112 102.936 53.9135 102.451 54.3267C99.6439 56.7291 97.2195 58.8037 96.0458 62.7104C95.6078 64.165 95.6105 65.7216 95.6133 67.2259C95.6133 68.2783 95.616 69.2839 95.47 70.2041C94.8694 68.6613 94.0567 67.2176 93.0869 65.9365C92.7177 65.0411 92.4532 64.0355 92.2383 62.771C92.4587 62.7324 92.6516 62.6112 92.8031 62.4128C93.4368 61.5918 93.2715 59.6357 92.85 58.7155C92.6571 58.2968 92.4147 58.0681 92.1474 58.0571C92.1392 58.0571 92.1281 58.0571 92.1171 58.0571C91.5468 58.0571 91.1336 58.721 91.0068 59.8424C90.8581 61.14 91.1446 62.6277 91.8664 62.7682C91.8967 62.7737 91.927 62.7792 91.9573 62.782C92.1171 63.7325 92.3045 64.5425 92.5441 65.267C91.8058 64.3909 90.9875 63.6057 90.1142 62.9418C90.1142 62.9087 90.1087 62.8757 90.0949 62.8426C88.8331 59.6467 89.1169 56.1451 90.8939 52.9575C91.3264 52.3624 92.029 51.9106 93.0979 51.5414C93.3872 51.4394 93.682 51.354 93.974 51.2631C94.6187 51.0703 95.2854 50.8692 95.8998 50.5496C97.236 49.8581 98.3821 48.5797 99.305 46.7531C99.7128 45.9404 100.054 45.0863 100.388 44.2598C100.669 43.56 100.958 42.8327 101.286 42.1412C102.134 40.3614 103.124 39.1492 104.308 38.4301C104.432 38.3557 104.476 38.1987 104.413 38.0719C104.347 37.9425 104.192 37.8846 104.063 37.9397C103.655 38.1078 103.314 38.2565 102.972 38.4053C102.639 38.5513 102.303 38.6973 101.909 38.8599C99.429 39.871 96.6189 41.0171 94.7124 43.2211C93.1503 45.0257 92.3651 47.3014 91.6047 49.4999C91.3209 50.3209 91.0289 51.1639 90.6983 51.9794C90.3153 51.4945 89.9351 50.9711 89.5659 50.4173C89.3152 49.701 89.2243 48.9379 89.3015 48.1775C89.3428 48.183 89.3841 48.1885 89.4227 48.1885C89.6954 48.1885 89.9654 48.0535 90.2216 47.7863C91.0729 46.9019 91.5661 44.764 91.1143 43.9071C90.949 43.5958 90.668 43.4718 90.3263 43.5242C89.4668 43.6812 88.7449 45.1304 88.5686 46.3784C88.4446 47.2573 88.6072 47.8827 89.0177 48.0866C89.0232 48.0893 89.0287 48.0921 89.0342 48.0948C88.9764 48.6238 88.9956 49.1583 89.0893 49.679C88.4006 48.5769 87.7586 47.384 87.2076 46.1801C88.0452 42.7638 90.1693 39.6506 93.0593 37.5898C93.0621 37.5898 93.0676 37.5871 93.0704 37.5871C94.649 36.8019 96.4839 36.711 98.2554 36.62C100.118 36.5264 102.044 36.4299 103.743 35.5511C105.008 34.8954 106.036 33.8788 107.027 32.8925C108.152 31.7767 109.212 30.7215 110.595 30.1457C110.727 30.0906 110.796 29.9418 110.752 29.8041C110.705 29.6663 110.576 29.5892 110.424 29.6222C109.085 29.9501 107.658 30.0906 106.149 30.2393C104.019 30.4487 101.818 30.6664 99.7872 31.4488C98.5446 31.9282 97.2801 32.7905 96.134 33.9394C94.9273 35.1461 93.7371 36.2509 92.8197 37.0856C92.456 37.3419 92.1033 37.6146 91.7645 37.9011C91.9243 37.1683 92.0482 36.4024 92.1336 35.6255C92.3816 35.0249 92.7205 34.4546 93.131 33.9504C93.2687 34.0386 93.4202 34.0854 93.5883 34.0854C93.7095 34.0854 93.8363 34.0634 93.9685 34.0138C94.8777 33.6832 95.7924 32.2808 95.8392 31.4406C95.864 31.019 95.6739 30.8344 95.5113 30.7545C94.8501 30.4184 93.9217 31.1347 93.3376 31.9309C92.8913 32.5398 92.5497 33.3388 92.9243 33.7741C92.6544 34.1047 92.4147 34.4628 92.208 34.8403C92.2686 34.0606 92.2907 33.2727 92.2742 32.4875C92.2879 32.4737 92.299 32.4572 92.31 32.4406C94.0732 29.4652 96.7098 26.9608 99.7706 25.3436H99.7734C100.95 24.8119 102.256 24.9193 103.633 25.0295C104.091 25.0654 104.545 25.1012 104.994 25.1149C106.983 25.1535 108.986 24.7403 110.774 23.8614C111.686 23.4151 112.549 22.8503 113.378 22.3076C114.466 21.5968 115.593 20.8584 116.813 20.4038C116.833 20.3955 116.852 20.39 116.871 20.3845C117.014 20.3294 117.086 20.1724 117.034 20.0319C116.979 19.8886 116.824 19.8115 116.681 19.8693H116.678C116.662 19.8748 116.645 19.8804 116.629 19.8886C115.083 20.4534 113.301 20.2303 111.571 20.0126C111.185 19.9658 110.805 19.9189 110.43 19.8803C108.38 19.671 106.038 19.5442 104.11 20.6655C103.143 21.2276 102.382 22.0679 101.641 22.8806C100.991 23.5969 100.319 24.3353 99.5282 24.8532C99.3684 24.9386 99.2086 25.024 99.0516 25.1122C99.2858 24.597 99.5117 24.0791 99.7293 23.5584C100.258 23.101 100.853 22.4839 101.432 21.8833C102.272 21.0154 103.137 20.1173 103.793 19.7095C103.887 19.817 104.008 19.9024 104.159 19.9575C104.305 20.0098 104.474 20.0346 104.653 20.0346C105.441 20.0346 106.457 19.5635 106.992 19.0125C107.319 18.6764 107.432 18.3458 107.325 18.0538C107.143 17.5661 106.49 17.4063 105.578 17.6102C104.551 17.8471 103.523 18.4973 103.581 19.1751C103.592 19.2825 103.614 19.3817 103.65 19.4699C102.964 19.8996 102.085 20.8061 101.236 21.6877C100.815 22.1257 100.385 22.5693 99.9773 22.955C100.335 22.0761 100.672 21.1863 100.991 20.2826C102.694 18.7508 104.749 17.6708 106.791 16.6735C106.807 16.6735 106.824 16.6735 106.837 16.668C108.27 16.3925 109.917 16.252 111.843 16.263C113.441 17.2465 115.188 17.7259 117.227 17.7259C117.882 17.7259 118.571 17.6763 119.293 17.5771C121.086 17.3347 122.558 16.803 124.26 16.1858C125.098 15.8828 125.963 15.5715 126.952 15.2601C127.062 15.2271 127.139 15.1279 127.145 15.0122C127.15 14.8965 127.084 14.7918 126.977 14.7449C124.026 13.4721 121.591 12.9569 119.323 13.0809C116.494 13.249 114.235 14.4419 111.852 15.712C110.592 15.7092 109.463 15.7616 108.43 15.8745C108.766 15.7092 109.096 15.5467 109.422 15.3786C110.259 15.0838 111.127 14.8717 111.97 14.665C113.306 14.3372 114.689 14.0011 115.968 13.3344C116.458 13.0781 116.915 12.7778 117.345 12.4445C118.378 12.0037 119.464 11.7061 120.58 11.5518C120.687 11.6896 120.85 11.797 121.062 11.8632C121.249 11.921 121.467 11.9486 121.695 11.9486C122.492 11.9486 123.425 11.6152 123.74 11.1468C123.924 10.8713 123.902 10.5683 123.673 10.2873C123.274 9.79413 122.271 9.81617 121.486 10.0944C120.827 10.3259 120.434 10.6978 120.428 11.0918C120.428 11.1606 120.436 11.2267 120.453 11.2901C119.612 11.4113 118.789 11.6125 117.995 11.8935C118.026 11.8659 118.056 11.8356 118.086 11.8081C119.436 11.2956 120.902 10.3727 121.949 9.6426C122.07 9.75004 122.235 9.80789 122.439 9.80789C122.464 9.80789 122.489 9.80789 122.514 9.80514C123.183 9.76106 124.222 9.08057 124.368 8.44416C124.431 8.16865 124.321 7.9317 124.056 7.78018C123.596 7.51845 122.828 7.83803 122.307 8.28435C121.863 8.66454 121.668 9.0778 121.783 9.38912C121.786 9.39739 121.792 9.40566 121.794 9.41668C120.918 10.0283 119.748 10.7749 118.607 11.2929C119.687 10.1661 120.566 8.86017 121.348 7.63968C121.549 7.32285 121.75 7.00327 121.946 6.68643C123.114 4.813 124.219 3.04426 125.933 1.71632C126.043 1.63092 126.073 1.47662 125.999 1.3554C125.927 1.23693 125.778 1.18736 125.649 1.24797C124.459 1.79071 123.186 2.20396 121.954 2.6062C121.164 2.86242 120.348 3.12965 119.557 3.42719C116.998 4.39422 115.254 5.53206 114.061 7.01152C113.24 8.03364 112.686 9.23761 112.152 10.3975C112.014 10.7005 111.874 11.0036 111.73 11.3011C111.086 12.6428 110.243 14.1306 108.904 14.9819C108.871 15.0012 108.846 15.0287 108.824 15.059C108.353 15.2959 107.87 15.5301 107.38 15.7671C107.278 15.8167 107.176 15.8663 107.077 15.9158C107.771 15.2629 108.259 13.8468 108.16 12.979C108.094 12.4032 107.804 12.2075 107.573 12.1469C106.895 11.9623 106.264 12.6952 105.881 13.428C105.394 14.3675 105.182 15.5604 105.719 16.0261C105.906 16.1886 106.107 16.2685 106.314 16.2685C106.328 16.2685 106.339 16.2657 106.352 16.2657C104.611 17.1198 102.87 18.0427 101.33 19.266C101.418 19.0042 101.501 18.7398 101.586 18.4753C103.57 17.5386 104.449 15.5715 105.115 13.7944C105.934 11.618 105.887 9.32024 105.843 7.09968C105.793 4.74135 105.749 2.51253 106.636 0.382876C106.691 0.253389 106.639 0.104618 106.515 0.0357416C106.397 -0.0303796 106.239 -7.43982e-05 106.16 0.112883C103.881 3.23435 101.046 7.11897 100.575 11.5133C100.333 13.7724 100.713 16.0233 101.093 18.2025C100.278 20.7868 99.3298 23.2167 98.2003 25.6081C97.7539 25.8919 97.3214 26.1922 96.8999 26.5118C97.5225 25.8065 97.8889 24.3077 97.7044 23.517C97.6052 23.09 97.3765 22.9715 97.2029 22.9467C96.5114 22.8668 95.9218 23.7292 95.6243 24.5144C95.2964 25.3794 95.1945 26.4098 95.7042 26.7542C95.8557 26.8561 96.01 26.9085 96.167 26.9085C96.2745 26.9085 96.3792 26.8837 96.4839 26.8341C94.8253 28.1565 93.3762 29.7462 92.2273 31.5149C92.2025 31.0879 92.1639 30.6636 92.1144 30.2421C92.2466 28.7544 93.0511 27.3548 93.8335 26.0021L94.2605 25.2665C94.9906 24.0184 95.7455 22.7291 96.1257 21.2992C96.707 19.1117 96.3654 16.8471 95.9081 14.7284C95.8254 14.3482 95.74 13.968 95.6546 13.5851C95.2689 11.8852 94.8722 10.1247 94.8887 8.37528C94.8887 8.23477 94.7868 8.11631 94.6463 8.09978C94.5085 8.07223 94.379 8.1714 94.3459 8.30915C93.8831 10.2101 93.0125 11.7888 92.0868 13.4639C91.7094 14.1499 91.3181 14.8579 90.949 15.599C89.8607 17.792 88.665 21.0623 89.1444 24.17C89.486 26.3823 90.3098 28.5147 91.5909 30.5121C91.8774 33.1983 91.6791 36.0911 91.0344 38.5513C90.8911 38.6891 90.7506 38.8296 90.6101 38.9728C90.8691 37.8515 90.3236 35.9809 89.7505 35.3362C89.4971 35.0497 89.2767 35.0469 89.1417 35.0992C88.3702 35.3803 88.26 36.6834 88.4006 37.7138C88.5383 38.7359 88.9709 39.7856 89.6155 39.8324C89.6458 39.8352 89.6706 39.8352 89.6982 39.8352C89.7478 39.8352 89.7918 39.8297 89.8387 39.8242C88.4777 41.4524 87.4446 43.3534 86.8467 45.3756C86.7613 45.1745 86.6786 44.9733 86.6015 44.775C86.6015 44.7695 86.6015 44.7667 86.6015 44.7612C86.6235 44.7089 86.6263 44.651 86.607 44.5959C86.6704 43.3065 86.8798 42.0062 87.0836 40.7444C87.1911 40.0721 87.3013 39.3999 87.3894 38.7276C87.6291 36.9011 87.7999 34.5207 86.9872 32.3029C86.5354 31.0686 85.797 29.9473 85.0862 28.8646C84.1716 27.476 83.3065 26.1591 82.9979 24.6356C82.9786 24.5199 82.9593 24.4069 82.9373 24.2912C82.9097 24.1452 82.7692 24.0487 82.6232 24.0708C82.4744 24.0956 82.3725 24.2333 82.3945 24.3821C82.4111 24.4978 82.4331 24.6135 82.4552 24.7265C82.918 27.5559 82.6067 30.3 82.2788 33.201L82.2568 33.3939C82.0419 35.2701 81.9868 36.8652 82.0832 38.2648C82.254 40.7416 83.8106 43.4057 86.1524 45.2186C86.169 45.2323 86.1855 45.2406 86.202 45.2488C87.2737 47.8799 88.8386 50.5799 90.4448 52.5525C90.4145 52.6214 90.3842 52.6902 90.3539 52.7564C90.3456 52.7729 90.3401 52.7894 90.3373 52.806C90.004 53.4176 89.7257 54.0402 89.4971 54.6684C89.4337 54.1449 89.2849 53.6297 89.0562 53.1586C89.1885 52.9547 89.2381 52.6847 89.2023 52.3569C89.0645 51.1309 87.7393 49.3925 86.7944 49.2024C86.4527 49.1307 86.1717 49.2657 86.0037 49.5743C85.5794 50.3429 86.2296 51.8224 87.0781 52.7536C87.5465 53.2716 88.0093 53.5471 88.3868 53.5471C88.4887 53.5471 88.5824 53.5278 88.6705 53.4865C88.7394 53.4562 88.8 53.4176 88.8579 53.3763C89.1499 54.0072 89.2877 54.7207 89.2574 55.4205C88.5796 57.7375 88.6044 60.1234 89.3538 62.388C89.3318 62.3742 89.3125 62.3605 89.2904 62.3467C88.8166 61.0849 88.621 59.7129 88.4309 58.3849C88.3399 57.7513 88.2463 57.0983 88.1251 56.4564C87.7228 54.3433 86.731 52.5387 85.1799 51.0868C83.8051 49.7974 82.2127 48.8938 80.3172 48.318L80.1023 48.2519C78.419 47.7449 76.6806 47.2187 75.4739 45.9762C75.3692 45.8715 75.2011 45.866 75.0909 45.9652C74.9807 46.0643 74.9697 46.2324 75.0634 46.3454C76.529 48.1058 77.4961 50.263 78.4328 52.3514C79.3833 54.4755 80.3668 56.6713 81.8849 58.4896C83.7087 60.6771 86.2434 62.22 89.0232 62.8371C89.0287 62.8371 89.0342 62.8371 89.0397 62.8398C91.7535 64.6196 93.9823 67.5703 95.1697 70.959C95.1725 70.97 95.178 70.981 95.1835 70.9893C95.0237 71.2923 94.8694 71.6174 94.7206 71.9508C94.5829 71.4246 94.3625 70.9121 94.076 70.4548C94.1862 70.2757 94.2357 70.0553 94.2165 69.7936C94.1338 68.6695 92.8086 67.0909 91.938 66.8209C91.635 66.7272 91.3705 66.7906 91.2079 67C90.6955 67.6612 91.1776 68.9533 91.9215 69.89C92.4284 70.5292 92.9491 70.8791 93.3734 70.8791C93.4781 70.8791 93.5773 70.857 93.6682 70.8157C93.7509 70.7771 93.8225 70.7275 93.8859 70.6724C94.2027 71.1959 94.4258 71.7827 94.536 72.3806C94.2798 73.006 94.0594 73.6506 93.8969 74.2512C93.7536 74.1603 93.6048 74.0667 93.4588 73.9758C92.9574 72.3833 91.0206 67.146 86.9211 65.9172C85.8576 65.5977 84.7446 65.4764 83.6646 65.3552C82.5819 65.2367 81.4633 65.1128 80.4219 64.7877C78.8102 64.2835 77.598 63.6994 76.5511 62.3605C76.4684 62.253 76.3141 62.2255 76.1957 62.2943C76.0772 62.3632 76.0276 62.512 76.0827 62.6387C76.9037 64.5397 77.8707 66.2534 78.7055 67.6777C79.7965 69.5319 81.1906 71.5761 83.2872 72.6588C84.9678 73.5267 86.8853 73.6231 88.7394 73.7113C90.1142 73.7801 91.5358 73.849 92.8362 74.2375C92.894 74.2733 92.9546 74.3091 93.0125 74.3449C91.9766 74.1824 90.5082 74.4744 89.7836 74.9703C89.3676 75.2568 89.3125 75.5324 89.3428 75.7142C89.4557 76.414 90.4503 76.6619 91.4008 76.6619C91.4559 76.6619 91.511 76.6619 91.5634 76.6592C92.7894 76.6234 94.1283 76.2046 94.1999 75.4965C94.2165 75.3422 94.1972 75.2018 94.1503 75.0723C95.1532 75.7307 96.0651 76.3919 96.8971 77.0394C96.032 76.7721 95.1174 76.6784 94.211 76.7749C93.1227 76.8961 92.0648 77.1909 91.0399 77.4802C90.4806 77.6372 89.9213 77.7943 89.3538 77.9238C87.574 78.3315 85.9072 78.472 84.2514 78.3535C84.122 78.3204 83.987 78.4389 83.9622 78.5794C83.9374 78.7172 84.02 78.8522 84.1523 78.8935C85.0118 79.1525 85.8466 79.5602 86.6511 79.957C87.5217 80.384 88.4254 80.8276 89.3869 81.0975C91.0096 81.5521 92.6847 81.4998 94.3928 81.4006L94.7482 81.3813C96.2469 81.2821 97.7925 81.1885 99.2637 81.4667ZM102.044 78.8384C101.506 77.359 101.046 75.2073 101.917 73.3559C102.597 71.9122 103.964 70.9011 105.286 69.9258L105.741 69.5869C106.906 68.7191 108.063 67.7796 108.714 66.5784C108.725 69.0387 108.174 71.4714 107.091 73.692C106.793 74.3063 106.446 74.9152 106.11 75.5076C105.465 76.6427 104.799 77.8163 104.418 79.1002C104.099 80.1746 103.947 81.2518 103.878 82.2492C103.832 82.037 103.779 81.7863 103.73 81.5025C103.545 80.6567 103.421 79.5024 103.462 78.3453C103.495 77.1909 103.606 76.031 103.821 75.1797C104.011 74.3256 104.168 73.7526 104.168 73.7526C104.173 73.7305 104.162 73.703 104.143 73.692C104.118 73.6782 104.085 73.6865 104.071 73.714C104.071 73.714 103.763 74.2292 103.476 75.0833C103.198 75.9346 102.892 77.1137 102.848 78.3232C102.818 79.326 102.906 80.3261 103.046 81.1444C102.688 80.4033 102.333 79.6319 102.044 78.8384ZM98.8835 76.7639C98.8697 76.7666 98.8587 76.7721 98.8477 76.7776C98.8036 76.7804 98.7568 76.7804 98.7099 76.7776C98.2361 76.7363 97.7677 75.6177 97.7071 74.3807C97.6575 73.3669 97.9027 72.6588 98.3353 72.5789C98.6328 72.5156 98.8808 72.7635 99.0323 72.9784C99.6384 73.8352 99.8285 75.6233 99.3932 76.3919C99.2775 76.6013 99.1287 76.7253 98.9386 76.7666C98.9221 76.7611 98.9028 76.7583 98.8835 76.7639ZM96.167 67.2149C96.1643 65.7492 96.1643 64.2367 96.5748 62.8591C97.7016 59.1068 100.068 57.0818 102.809 54.7372C103.294 54.3212 103.754 53.919 104.217 53.514C104.272 53.4644 104.327 53.4176 104.383 53.368C103.9 54.448 103.586 55.7346 103.416 57.305C103.336 58.0626 103.289 58.834 103.245 59.5779C103.179 60.6634 103.113 61.7819 102.933 62.8646C102.584 64.9805 101.834 66.6087 100.702 67.7053C99.7651 68.6144 98.8918 68.9285 97.9688 69.2591C97.5914 69.3941 97.2084 69.5319 96.809 69.7137C96.9495 69.5153 97.0982 69.2867 97.2525 69.0304C97.8586 68.0359 98.5033 66.6336 99.0185 65.1899C99.5309 63.7463 99.9552 62.2806 100.294 61.1896C100.616 60.0931 100.936 59.4098 100.936 59.4098C100.955 59.3685 100.936 59.3161 100.895 59.2969C100.853 59.2776 100.801 59.2941 100.782 59.3382C100.782 59.3382 100.432 60.0297 100.071 61.1179C99.6935 62.2007 99.2224 63.6471 98.6659 65.0604C98.1204 66.4765 97.4729 67.8458 96.8696 68.7935C96.5583 69.2894 96.269 69.6696 96.0651 69.9231C96.167 69.0635 96.167 68.1598 96.167 67.2149ZM91.9215 62.4844C91.4421 62.3935 91.1363 61.1427 91.2823 59.8616C91.3677 59.115 91.6322 58.3216 92.1199 58.3216C92.1254 58.3216 92.1309 58.3216 92.1392 58.3216C92.2934 58.3271 92.4643 58.5089 92.6048 58.8202C93.0345 59.7597 93.1144 61.5532 92.591 62.231C92.4174 62.4569 92.2053 62.5395 91.9215 62.4844ZM92.1254 49.6735C92.9051 47.4253 93.6379 45.2985 95.1311 43.5738C96.9522 41.4689 99.6963 40.3504 102.121 39.3613C102.272 39.298 102.413 39.2401 102.55 39.1822C101.903 39.893 101.322 40.7939 100.796 41.896C100.459 42.6013 100.165 43.3368 99.8808 44.0449C99.5557 44.8604 99.2196 45.7034 98.8202 46.4969C97.9523 48.2188 96.8861 49.4145 95.6546 50.0537C95.0815 50.3484 94.4699 50.533 93.8225 50.7287C93.5222 50.8196 93.2191 50.9105 92.9216 51.0124C92.7508 51.0703 92.5882 51.1336 92.4339 51.197C92.4835 51.1502 92.5331 51.1006 92.5827 51.051C93.2935 50.3457 94.1008 49.2822 94.784 48.1582C95.459 47.0286 96.0706 45.8743 96.6161 45.0698C97.1478 44.2488 97.6603 43.8438 97.6603 43.8438C97.6851 43.8217 97.6906 43.7859 97.6685 43.7584C97.6493 43.7336 97.6107 43.7281 97.5859 43.7501C97.5859 43.7501 97.0349 44.1441 96.4563 44.9541C95.8585 45.7448 95.189 46.8743 94.4672 47.9571C93.7619 49.0481 92.9629 50.0674 92.2659 50.7287C91.9876 50.9959 91.7287 51.2135 91.5193 51.3788C91.7314 50.8058 91.9298 50.2355 92.1254 49.6735ZM96.5224 34.3251C97.6134 33.2286 98.8119 32.4103 99.9855 31.9585C101.944 31.2036 104.11 30.9915 106.204 30.7848C107.135 30.6939 108.036 30.603 108.909 30.4735C108.088 31.0659 107.355 31.7904 106.644 32.4985C105.68 33.4545 104.686 34.4435 103.495 35.0579C101.9 35.8817 100.118 35.9726 98.2333 36.0663C97.3242 36.1131 96.3957 36.16 95.4893 36.2977C95.4976 36.295 95.5058 36.2922 95.5141 36.2894C96.5087 35.9037 97.798 35.3059 99.0654 34.686C100.338 34.0771 101.575 33.4159 102.567 33.066C103.551 32.7024 104.237 32.5508 104.237 32.5508C104.264 32.5426 104.286 32.5178 104.281 32.4875C104.278 32.4572 104.248 32.4324 104.217 32.4379C104.217 32.4379 103.501 32.4847 102.476 32.8015C101.454 33.1184 100.129 33.6501 98.867 34.2755C97.5969 34.8899 96.3213 35.4739 95.3433 35.8486C95.1201 35.934 94.9135 36.0112 94.7234 36.0801C95.2909 35.5345 95.9053 34.9422 96.5224 34.3251ZM93.5497 32.088C93.9961 31.4846 94.6545 30.9419 95.1422 30.9419C95.2276 30.9419 95.3102 30.9584 95.3818 30.997C95.5113 31.0603 95.5692 31.2036 95.5554 31.4213C95.5141 32.1541 94.6545 33.4627 93.8638 33.752C93.569 33.8622 93.3238 33.8126 93.1282 33.5977C92.9051 33.3498 93.0786 32.7299 93.5497 32.088ZM110.48 22.0816C110.48 22.0816 107.829 21.7538 105.228 22.393C103.939 22.707 102.694 23.1947 101.807 23.6465C101.718 23.6906 101.633 23.7347 101.553 23.776C101.721 23.5969 101.887 23.4151 102.049 23.236C102.793 22.4178 103.495 21.6463 104.385 21.1256C106.171 20.0842 108.41 20.211 110.372 20.4148C110.741 20.4534 111.119 20.5002 111.502 20.5471C112.59 20.6821 113.7 20.8088 114.775 20.773C114.193 21.1091 113.631 21.4755 113.08 21.8365C112.262 22.3709 111.416 22.9274 110.535 23.3572C108.826 24.1948 106.906 24.6356 105.014 24.5529C104.573 24.5419 104.126 24.5033 103.68 24.4675C103.118 24.4234 102.55 24.3766 101.986 24.3766C101.782 24.3766 101.581 24.3821 101.38 24.3959C102.228 23.9055 103.697 23.1561 105.322 22.7511C107.826 21.9962 110.474 22.156 110.474 22.156C110.496 22.156 110.515 22.1395 110.515 22.1202C110.518 22.1037 110.502 22.0844 110.48 22.0816ZM105.636 17.8664C105.854 17.8168 106.082 17.7838 106.295 17.7838C106.661 17.7838 106.97 17.8802 107.066 18.1364C107.157 18.3816 106.934 18.6599 106.793 18.8059C106.206 19.4037 104.92 19.9244 104.248 19.682C104.126 19.6379 104.035 19.5745 103.969 19.4836C103.967 19.4671 103.964 19.4533 103.956 19.4368C103.947 19.4203 103.934 19.4065 103.917 19.3955C103.881 19.3211 103.859 19.2357 103.851 19.1365C103.807 18.6433 104.757 18.0703 105.636 17.8664ZM119.359 13.6181C121.354 13.5079 123.511 13.9267 126.076 14.9543C125.365 15.1913 124.709 15.4254 124.073 15.6569C122.401 16.263 120.954 16.7837 119.219 17.0206C116.78 17.354 114.764 17.1033 112.976 16.2409C113.188 16.2272 113.438 16.2051 113.714 16.1693C114.609 16.0646 115.772 15.836 116.935 15.6431C118.1 15.4613 119.263 15.2932 120.141 15.1885C121.023 15.1141 121.61 15.0645 121.61 15.0645C121.651 15.0618 121.682 15.0287 121.684 14.9874C121.687 14.9433 121.651 14.9047 121.607 14.902C121.607 14.902 119.213 14.7945 116.868 15.2491C115.695 15.4365 114.535 15.6569 113.664 15.7533C113.323 15.7946 113.025 15.8167 112.788 15.8249C114.877 14.7257 116.913 13.7614 119.359 13.6181ZM121.58 10.3479C121.902 10.2349 122.268 10.1688 122.596 10.1688C122.974 10.1688 123.304 10.2542 123.464 10.4553C123.616 10.6427 123.632 10.8107 123.514 10.9843C123.178 11.4857 121.872 11.8246 121.144 11.5904C120.85 11.4967 120.701 11.3287 120.704 11.0862C120.709 10.8245 121.053 10.5352 121.58 10.3479ZM122.486 8.48823C122.872 8.15763 123.343 7.95651 123.671 7.95651C123.77 7.95651 123.858 7.97578 123.924 8.01435C124.084 8.10527 124.142 8.22099 124.106 8.37528C123.999 8.84915 123.114 9.48281 122.5 9.52413C122.153 9.55168 122.065 9.35332 122.04 9.28445C121.971 9.09435 122.147 8.78027 122.486 8.48823ZM112.234 11.5353C112.378 11.2323 112.518 10.9265 112.659 10.6234C113.179 9.49108 113.719 8.32017 114.499 7.35039C115.623 5.95083 117.296 4.86534 119.759 3.93689C120.538 3.6421 121.351 3.37762 122.133 3.12416C122.885 2.87896 123.654 2.62823 124.415 2.34722C123.263 3.54291 122.395 4.93422 121.489 6.38888C121.29 6.70572 121.092 7.02255 120.891 7.33938C119.596 9.36985 118.017 11.6372 115.72 12.8384C114.518 13.4666 113.246 13.7807 111.901 14.1113C112.777 13.6071 113.819 12.8302 114.684 11.8742C115.645 10.8879 116.348 9.70045 116.874 8.83537C117.381 7.94824 117.786 7.4358 117.786 7.4358C117.811 7.40274 117.816 7.34213 117.786 7.31458C117.753 7.28427 117.701 7.28702 117.673 7.32008C117.673 7.32008 117.205 7.84355 116.651 8.68935C116.089 9.53239 115.273 10.5986 114.378 11.5822C113.485 12.5712 112.397 13.3619 111.532 13.8413C111.113 14.0755 110.738 14.2463 110.468 14.3592C111.218 13.5079 111.777 12.4858 112.234 11.5353ZM105.903 15.8111C105.493 15.4585 105.697 14.384 106.129 13.5493C106.507 12.8247 106.981 12.3894 107.38 12.3894C107.424 12.3894 107.468 12.3949 107.51 12.4059C107.724 12.4638 107.854 12.6649 107.893 13.0038C107.994 13.8992 107.394 15.4943 106.636 15.8993C106.374 16.0371 106.135 16.0095 105.903 15.8111ZM101.132 11.5684C101.523 7.90966 103.556 4.68626 105.62 1.80172C105.226 3.54843 105.264 5.35024 105.297 7.1052C105.341 9.27618 105.385 11.5188 104.606 13.5961C103.922 15.4144 103.179 16.8222 101.917 17.657C102.055 17.4118 102.236 17.0702 102.427 16.6459C102.834 15.7616 103.187 14.4612 103.272 13.1801C103.369 11.9017 103.446 10.6317 103.556 9.68392C103.644 8.73343 103.765 8.10804 103.765 8.10804C103.768 8.086 103.757 8.06396 103.735 8.05845C103.713 8.05294 103.688 8.0667 103.68 8.08874C103.68 8.08874 103.473 8.70037 103.3 9.6481C103.129 10.5958 102.975 11.8687 102.801 13.1305C102.688 14.4006 102.369 15.5935 101.972 16.4503C101.801 16.8471 101.641 17.1777 101.523 17.4201C101.198 15.4916 100.922 13.5189 101.132 11.5684ZM95.864 26.52C95.5444 26.3024 95.5527 25.4814 95.886 24.6053C96.1477 23.9165 96.6326 23.2084 97.1038 23.2084C97.1258 23.2084 97.1478 23.2085 97.1699 23.2112C97.3021 23.2305 97.393 23.3517 97.4454 23.5749C97.63 24.3656 97.1616 26.0462 96.5004 26.5118C96.2855 26.6578 96.0761 26.6605 95.864 26.52ZM91.6708 27.6551C91.5964 26.4374 91.657 24.8009 91.9739 23.1947C92.2549 21.583 92.7701 20.0181 93.1144 18.8252C93.4836 17.635 93.5497 16.7947 93.5497 16.7947C93.5525 16.7424 93.5167 16.69 93.4643 16.6845C93.412 16.679 93.3651 16.7176 93.3569 16.7699C93.3569 16.7699 93.2687 17.5854 92.8637 18.7508C92.4835 19.9217 91.9105 21.4838 91.5689 23.1148C91.0371 25.396 91.1721 27.7074 91.3044 28.9114C90.4916 27.3631 89.9516 25.7459 89.6954 24.0818C89.34 21.7676 89.9627 18.839 91.4504 15.8387C91.8113 15.1086 92.1998 14.4033 92.5772 13.7228C93.2715 12.4693 93.9327 11.2681 94.4258 9.93739C94.5608 11.213 94.8474 12.472 95.1256 13.7008C95.211 14.081 95.2964 14.4584 95.3791 14.8386C95.8199 16.8911 96.1533 19.0786 95.6023 21.1532C95.2413 22.5114 94.5057 23.7677 93.7949 24.9855L93.3679 25.7238C92.7563 26.7818 92.1336 27.8645 91.7975 29.0189C91.7507 28.6717 91.7011 28.2061 91.6708 27.6551ZM89.6458 39.5514C89.2298 39.5211 88.8248 38.7304 88.6816 37.6697C88.5493 36.6999 88.6678 35.5621 89.2436 35.35C89.3373 35.3086 89.4695 35.4161 89.5549 35.5153C90.117 36.1489 90.6955 38.2868 90.2519 39.196C90.1252 39.455 89.9351 39.5762 89.6458 39.5514ZM86.1249 43.7556C86.0257 43.5517 85.921 43.3121 85.8246 43.0338C85.4747 42.0861 85.3232 40.7251 85.2736 39.3503C85.2157 37.9728 85.2157 36.5704 85.0835 35.5263C84.9623 34.4794 84.7446 33.8099 84.7446 33.8099C84.7336 33.7768 84.695 33.7493 84.6592 33.7575C84.6206 33.7686 84.6013 33.8044 84.6096 33.8429C84.6096 33.8429 84.7832 34.5152 84.8383 35.5483C84.9072 36.5815 84.8245 37.959 84.7969 39.3586C84.7694 40.7609 84.9926 42.1825 85.3562 43.1963C85.4995 43.6013 85.6565 43.9347 85.797 44.1909C83.9897 42.5241 82.7747 40.2595 82.6342 38.2235C82.5406 36.857 82.5957 35.2949 82.8051 33.4517L82.8271 33.2589C83.075 31.0714 83.3147 28.9693 83.2238 26.8396C83.6316 27.6468 84.1357 28.41 84.6316 29.1621C85.3259 30.2201 86.0477 31.3138 86.4775 32.4875C87.2489 34.5923 87.0809 36.8873 86.8495 38.6505C86.7613 39.32 86.6538 39.9867 86.5464 40.6534C86.3866 41.67 86.2186 42.7087 86.1249 43.7556ZM88.8386 46.4115C89.0039 45.2516 89.6596 43.9209 90.3759 43.7887C90.6156 43.7446 90.7671 43.8217 90.8746 44.0284C91.2658 44.775 90.7837 46.7999 90.0288 47.5851C89.7285 47.8964 89.4254 47.9764 89.1417 47.8303C88.8524 47.6898 88.7367 47.1443 88.8386 46.4115ZM88.8331 53.0071C88.7945 53.0264 88.7725 53.0594 88.7642 53.0952C88.7091 53.1531 88.643 53.1999 88.5631 53.2357C88.2628 53.3652 87.7779 53.1118 87.282 52.5663C86.4941 51.7039 85.8935 50.3484 86.2433 49.7065C86.3343 49.5357 86.4582 49.4558 86.6235 49.4558C86.6621 49.4558 86.7007 49.4586 86.7448 49.4696C87.5658 49.6349 88.8138 51.2962 88.935 52.3844C88.9653 52.6489 88.9295 52.8528 88.8331 53.0071ZM81.7719 53.1173C81.7719 53.1173 82.2816 53.6435 82.8739 54.5609C83.4773 55.4728 84.1192 56.7842 84.8107 58.0874C85.5078 59.3905 86.3921 60.6165 87.2186 61.3934C87.4418 61.6056 87.6539 61.7846 87.8468 61.9334C85.6978 61.2033 83.7638 59.8837 82.3036 58.137C80.8352 56.3765 79.8682 54.2165 78.9314 52.1255C78.2317 50.5633 77.5126 48.9599 76.5786 47.497C77.6173 48.0783 78.7909 48.4337 79.9398 48.7808L80.1574 48.8442C81.9703 49.3952 83.4911 50.2575 84.8025 51.4863C86.2681 52.8555 87.2021 54.5637 87.5851 56.5556C87.7035 57.1865 87.7972 57.8229 87.8854 58.4593C88.0451 59.5779 88.2105 60.7267 88.5411 61.8315C88.2821 61.6634 87.9322 61.4072 87.5465 61.0435C86.7558 60.319 85.921 59.1288 85.1964 57.867C84.4581 56.6079 83.75 55.3075 83.0971 54.4066C82.4552 53.4975 81.9124 52.985 81.9124 52.985C81.8738 52.9492 81.8105 52.9437 81.7719 52.9795C81.7361 53.0208 81.7361 53.0815 81.7719 53.1173ZM93.5497 70.565C93.2274 70.722 92.6571 70.3804 92.1336 69.7192C91.4669 68.8789 91.0178 67.6942 91.4228 67.1708C91.4476 67.1377 91.511 67.0551 91.6708 67.0551C91.7231 67.0551 91.7838 67.0633 91.8581 67.0854C92.6378 67.3251 93.8693 68.8018 93.9437 69.8129C93.9658 70.1793 93.839 70.4272 93.5497 70.565ZM83.3258 68.934L83.3395 68.9505C83.3395 68.9505 83.7693 69.4823 84.6537 70.0167C85.5215 70.554 86.7696 71.0664 88.0121 71.5513C89.2546 72.0362 90.4944 72.5128 91.354 72.9894C91.7149 73.1823 92.0069 73.3669 92.2273 73.5184C91.0922 73.2787 89.9158 73.2209 88.767 73.163C86.888 73.0721 85.1138 72.9839 83.5406 72.1712C81.568 71.1518 80.2318 69.1875 79.1822 67.3994C78.5705 66.358 77.89 65.1624 77.2481 63.8565C78.1104 64.5425 79.083 64.9502 80.2566 65.3166C81.3476 65.6555 82.4937 65.7822 83.604 65.9035C84.6564 66.0219 85.7447 66.1404 86.7613 66.4434C89.5136 67.2672 91.5165 70.3198 92.6075 73.1988C92.3596 73.028 92.0097 72.8076 91.5689 72.5817C90.6652 72.1023 89.4089 71.6202 88.1498 71.1794C86.8935 70.7358 85.6483 70.2702 84.7914 69.7798C83.9346 69.3032 83.4911 68.7935 83.4911 68.7935C83.4525 68.7494 83.3864 68.7439 83.3423 68.7797C83.2954 68.821 83.2872 68.8872 83.3258 68.934ZM93.9299 75.469C93.8831 75.9291 92.7976 76.3479 91.5578 76.3864C91.5 76.3892 91.4421 76.3892 91.387 76.3892C90.3732 76.3892 89.6844 76.1137 89.6128 75.6729C89.5825 75.4883 89.7753 75.3147 89.9379 75.2017C90.7754 74.6287 92.7728 74.3312 93.5938 74.8188C93.85 74.9758 93.9602 75.1852 93.9299 75.469ZM94.7206 80.8248L94.3652 80.8468C92.6984 80.9433 91.0785 80.9929 89.5411 80.5631C88.6292 80.3068 87.7504 79.8771 86.9018 79.4583C86.5437 79.2847 86.1827 79.1057 85.8108 78.9376C87.0037 78.9073 88.216 78.7502 89.4833 78.461C90.0563 78.3287 90.6266 78.1717 91.1942 78.0119C92.197 77.7309 93.2357 77.4388 94.2771 77.3259C95.8392 77.1551 97.4096 77.5986 98.6962 78.5739C98.8229 78.6703 98.9855 78.7971 99.17 78.9514C99.3491 79.1139 99.5227 79.2765 99.6907 79.4363C99.7045 79.4555 99.7211 79.4721 99.7403 79.4831C100.035 79.7641 100.316 80.0396 100.578 80.3068C100.071 80.0258 99.4979 79.7641 98.889 79.5712C96.7153 78.7943 94.4176 79.0065 94.4176 79.0065C94.3625 79.012 94.3129 79.0588 94.3156 79.1139C94.3184 79.1718 94.3652 79.2131 94.4231 79.2131C94.4231 79.2131 96.685 79.1112 98.7513 79.957C99.7734 80.3619 100.743 80.8854 101.404 81.3758C101.534 81.4695 101.655 81.5604 101.763 81.643C101.096 81.3427 100.3 81.1058 99.3712 80.9323C98.5942 80.7862 97.809 80.7366 97.0239 80.7366C96.2469 80.7311 95.4755 80.778 94.7206 80.8248Z" fill="#191919"/>
<path d="M180.777 62.8399C180.783 62.8399 180.788 62.8399 180.794 62.8371C183.573 62.22 186.108 60.6744 187.932 58.4897C189.45 56.6713 190.434 54.4756 191.384 52.3514C192.318 50.2631 193.285 48.1031 194.753 46.3454C194.85 46.2325 194.836 46.0616 194.726 45.9652C194.616 45.866 194.448 45.8715 194.343 45.9762C193.136 47.2188 191.398 47.745 189.714 48.2519L189.5 48.318C187.604 48.8911 186.012 49.7975 184.637 51.0869C183.086 52.5388 182.094 54.3461 181.692 56.4564C181.571 57.0956 181.474 57.7513 181.386 58.385C181.196 59.7129 181 61.0849 180.526 62.3467C180.504 62.3605 180.485 62.3743 180.463 62.3881C181.21 60.1234 181.237 57.7375 180.559 55.4205C180.529 54.7235 180.667 54.01 180.959 53.3763C181.014 53.4176 181.077 53.4562 181.143 53.4865C181.232 53.5278 181.325 53.5471 181.427 53.5471C181.805 53.5471 182.268 53.2716 182.736 52.7537C183.582 51.8225 184.235 50.343 183.81 49.5743C183.642 49.2658 183.361 49.1308 183.02 49.2024C182.075 49.3925 180.75 51.1309 180.612 52.3569C180.576 52.6848 180.626 52.9548 180.758 53.1614C180.529 53.6325 180.378 54.1477 180.317 54.6712C180.088 54.0403 179.81 53.4176 179.477 52.806C179.471 52.7895 179.466 52.773 179.46 52.7564C179.43 52.6875 179.4 52.6187 179.369 52.5525C180.975 50.5799 182.54 47.88 183.612 45.2489C183.629 45.2406 183.648 45.2296 183.662 45.2186C186.003 43.4058 187.56 40.7389 187.731 38.2649C187.827 36.8653 187.772 35.2701 187.557 33.3939L187.535 33.2011C187.207 30.3 186.896 27.556 187.359 24.7265C187.381 24.6108 187.403 24.4951 187.419 24.3822C187.442 24.2334 187.34 24.0956 187.191 24.0708C187.042 24.0488 186.904 24.1452 186.877 24.2913C186.855 24.407 186.835 24.5199 186.816 24.6356C186.508 26.1592 185.64 27.4761 184.728 28.8646C184.014 29.9501 183.279 31.0687 182.827 32.3029C182.014 34.518 182.185 36.9011 182.425 38.7277C182.513 39.4027 182.62 40.0722 182.73 40.7444C182.934 42.0035 183.144 43.3038 183.207 44.596C183.191 44.6511 183.193 44.7089 183.213 44.7613C183.213 44.7668 183.213 44.7695 183.213 44.775C183.133 44.9762 183.053 45.1745 182.967 45.3756C182.37 43.3534 181.336 41.4525 179.975 39.8242C180.019 39.8297 180.066 39.8352 180.116 39.8352C180.143 39.8352 180.171 39.8352 180.199 39.8325C180.846 39.7856 181.276 38.7332 181.413 37.7139C181.554 36.6835 181.447 35.3803 180.672 35.0993C180.537 35.047 180.317 35.0497 180.064 35.3362C179.493 35.9809 178.948 37.8516 179.204 38.9729C179.066 38.8296 178.926 38.6891 178.78 38.5514C178.135 36.0911 177.937 33.1983 178.223 30.5121C179.504 28.5147 180.328 26.3823 180.67 24.17C181.149 21.0623 179.953 17.7921 178.865 15.5991C178.499 14.858 178.107 14.1499 177.727 13.4639C176.802 11.7916 175.928 10.2102 175.468 8.30921C175.435 8.17421 175.306 8.07229 175.168 8.09984C175.027 8.11637 174.925 8.23483 174.925 8.37534C174.942 10.1248 174.545 11.8825 174.159 13.5851C174.074 13.9653 173.989 14.3455 173.906 14.7285C173.449 16.8499 173.107 19.1118 173.688 21.2993C174.069 22.7291 174.823 24.0185 175.554 25.2665L175.981 26.0021C176.763 27.3549 177.567 28.7544 177.7 30.2422C177.65 30.6609 177.612 31.0852 177.587 31.515C176.438 29.7435 174.989 28.1538 173.33 26.8342C173.435 26.881 173.542 26.9085 173.65 26.9085C173.807 26.9085 173.961 26.8562 174.113 26.7543C174.625 26.4071 174.523 25.3795 174.195 24.5144C173.898 23.7292 173.308 22.8669 172.617 22.9468C172.443 22.9716 172.214 23.0928 172.115 23.5171C171.931 24.3105 172.297 25.8065 172.92 26.5118C172.498 26.1922 172.063 25.8919 171.619 25.6082C170.49 23.2168 169.545 20.7868 168.727 18.2026C169.104 16.0234 169.484 13.7725 169.244 11.5133C168.773 7.11904 165.938 3.23442 163.66 0.112945C163.58 -1.22544e-05 163.423 -0.0330725 163.305 0.0358037C163.183 0.10468 163.131 0.253451 163.186 0.382938C164.073 2.51259 164.029 4.74141 163.98 7.09974C163.935 9.32031 163.889 11.618 164.707 13.7945C165.374 15.5715 166.252 17.5386 168.236 18.4753C168.322 18.7398 168.404 19.0043 168.492 19.266C166.952 18.0428 165.208 17.1199 163.47 16.2658C163.484 16.2658 163.495 16.2685 163.508 16.2685C163.715 16.2685 163.916 16.1887 164.104 16.0261C164.641 15.5605 164.429 14.3676 163.941 13.4281C163.561 12.6925 162.927 11.9596 162.249 12.147C162.018 12.2076 161.731 12.4032 161.665 12.979C161.566 13.8469 162.054 15.2602 162.748 15.9159C162.646 15.8663 162.544 15.8167 162.445 15.7671C161.955 15.5302 161.472 15.296 161.001 15.0591C160.982 15.0288 160.955 15.0012 160.921 14.9819C159.58 14.1306 158.739 12.6429 158.095 11.3012C157.951 11.0036 157.811 10.7006 157.673 10.3975C157.139 9.23492 156.582 8.0337 155.764 7.01158C154.574 5.52937 152.827 4.39152 150.268 3.42726C149.474 3.12971 148.659 2.86248 147.871 2.60626C146.639 2.20402 145.366 1.79078 144.176 1.24803C144.047 1.19018 143.898 1.23699 143.826 1.35546C143.755 1.47393 143.782 1.63098 143.892 1.71639C145.606 3.04432 146.711 4.81582 147.879 6.6865C148.077 7.00333 148.276 7.32291 148.477 7.63974C149.257 8.86023 150.138 10.1661 151.218 11.2929C150.078 10.775 148.909 10.0284 148.033 9.41674C148.036 9.40848 148.042 9.40021 148.044 9.38919C148.16 9.07787 147.962 8.66461 147.521 8.28441C146.997 7.83809 146.232 7.51851 145.771 7.78024C145.507 7.93177 145.397 8.16871 145.46 8.44422C145.606 9.08064 146.645 9.76112 147.314 9.8052C147.339 9.80796 147.364 9.80795 147.389 9.80795C147.593 9.80795 147.758 9.7501 147.879 9.64266C148.926 10.3755 150.392 11.2985 151.742 11.8081C151.772 11.8357 151.802 11.866 151.833 11.8935C151.036 11.6125 150.215 11.4114 149.375 11.2902C149.392 11.2268 149.4 11.1634 149.4 11.0918C149.397 10.6978 149 10.3259 148.342 10.0945C147.557 9.81348 146.557 9.79419 146.154 10.2873C145.928 10.5684 145.906 10.8714 146.088 11.1469C146.402 11.6153 147.334 11.9486 148.133 11.9486C148.361 11.9486 148.579 11.9211 148.766 11.8632C148.978 11.7944 149.141 11.6897 149.248 11.5519C150.367 11.7034 151.45 12.0037 152.483 12.4445C152.913 12.7779 153.37 13.0782 153.86 13.3344C155.136 14.0011 156.519 14.3373 157.858 14.6651C158.701 14.8717 159.569 15.0839 160.403 15.3787C160.729 15.544 161.059 15.7093 161.395 15.8746C160.362 15.7616 159.233 15.7093 157.974 15.712C155.59 14.4392 153.334 13.2463 150.502 13.081C148.237 12.957 145.799 13.4749 142.848 14.745C142.744 14.7918 142.678 14.8965 142.68 15.0122C142.686 15.128 142.763 15.2271 142.873 15.2602C143.859 15.5715 144.727 15.8828 145.565 16.1859C147.27 16.803 148.739 17.3347 150.532 17.5772C151.254 17.6764 151.943 17.726 152.598 17.726C154.64 17.726 156.384 17.2466 157.982 16.263C159.908 16.252 161.555 16.3925 162.988 16.668C163.004 16.6708 163.021 16.6735 163.035 16.6735C165.079 17.6709 167.131 18.7508 168.834 20.2827C169.154 21.1891 169.49 22.079 169.848 22.9551C169.443 22.5693 169.013 22.1258 168.591 21.6877C167.74 20.8061 166.864 19.8997 166.178 19.4699C166.214 19.3818 166.236 19.2826 166.247 19.1751C166.308 18.4974 165.28 17.8472 164.252 17.6103C163.338 17.4036 162.687 17.5634 162.506 18.0538C162.398 18.3459 162.511 18.6765 162.839 19.0126C163.376 19.5608 164.39 20.0347 165.178 20.0347C165.357 20.0347 165.525 20.0099 165.671 19.9576C165.823 19.9024 165.944 19.8171 166.038 19.7096C166.693 20.1174 167.558 21.0155 168.399 21.8833C168.977 22.4812 169.572 23.0983 170.101 23.5584C170.319 24.0791 170.545 24.5971 170.779 25.1123C170.622 25.0241 170.462 24.9359 170.302 24.8533C169.512 24.3353 168.839 23.597 168.189 22.8807C167.451 22.0679 166.688 21.2276 165.721 20.6656C163.792 19.5443 161.448 19.671 159.401 19.8804C159.026 19.919 158.646 19.9658 158.26 20.0127C156.53 20.2303 154.745 20.4535 153.202 19.8887C153.185 19.8804 153.169 19.8777 153.152 19.8694H153.149C153.006 19.8115 152.852 19.8887 152.797 20.0319C152.744 20.1724 152.816 20.3323 152.959 20.3846C152.979 20.3901 152.998 20.3984 153.017 20.4039C154.238 20.8585 155.365 21.5968 156.453 22.3076C157.285 22.8531 158.144 23.4152 159.056 23.8615C160.844 24.7376 162.847 25.1536 164.836 25.115C165.285 25.1012 165.743 25.0654 166.197 25.0296C167.575 24.9194 168.884 24.812 170.057 25.3437H170.06C173.121 26.9636 175.757 29.468 177.521 32.4407C177.532 32.4572 177.543 32.4737 177.556 32.4875C177.54 33.2727 177.565 34.0606 177.623 34.8403C177.416 34.4629 177.176 34.1047 176.906 33.7741C177.281 33.3388 176.942 32.5399 176.493 31.931C175.909 31.1348 174.98 30.4185 174.319 30.7546C174.157 30.8345 173.969 31.0191 173.991 31.4406C174.038 32.2837 174.953 33.6832 175.862 34.0138C175.994 34.0634 176.121 34.0855 176.24 34.0855C176.405 34.0855 176.559 34.0414 176.697 33.9505C177.105 34.4519 177.446 35.0222 177.694 35.6255C177.78 36.4052 177.904 37.1683 178.063 37.9012C177.724 37.6147 177.372 37.3419 177.008 37.0857C176.093 36.2509 174.901 35.1461 173.694 33.9394C172.545 32.7906 171.283 31.9283 170.041 31.4489C168.01 30.6664 165.809 30.4488 163.679 30.2394C162.169 30.0906 160.742 29.9529 159.403 29.6223C159.252 29.5892 159.12 29.6664 159.076 29.8041C159.031 29.9419 159.098 30.0906 159.233 30.1457C160.613 30.7215 161.676 31.7767 162.8 32.8925C163.792 33.8788 164.817 34.8982 166.084 35.5511C167.784 36.43 169.71 36.5264 171.572 36.6201C173.347 36.711 175.179 36.8019 176.757 37.5871C176.76 37.5899 176.766 37.5899 176.768 37.5899C179.659 39.6506 181.783 42.7639 182.62 46.1801C182.069 47.3841 181.427 48.5742 180.741 49.679C180.835 49.1583 180.854 48.6266 180.796 48.0949C180.802 48.0921 180.807 48.0894 180.813 48.0866C181.223 47.88 181.386 47.2573 181.262 46.3785C181.086 45.1277 180.364 43.6813 179.504 43.5242C179.163 43.4719 178.879 43.5959 178.716 43.9072C178.264 44.764 178.758 46.9019 179.609 47.7863C179.865 48.0536 180.138 48.1885 180.408 48.1885C180.449 48.1885 180.491 48.183 180.529 48.1775C180.604 48.9352 180.513 49.7011 180.265 50.4174C179.895 50.9712 179.515 51.4946 179.132 51.9795C178.802 51.164 178.51 50.321 178.226 49.5C177.466 47.3014 176.678 45.0257 175.118 43.2212C173.212 41.0171 170.402 39.871 167.922 38.8599C167.525 38.6974 167.192 38.5514 166.859 38.4054C166.514 38.2538 166.173 38.1051 165.768 37.9398C165.638 37.8819 165.484 37.9425 165.418 38.072C165.354 38.1987 165.398 38.3585 165.522 38.4302C166.707 39.1492 167.696 40.3614 168.545 42.1412C168.873 42.8327 169.165 43.5573 169.443 44.2599C169.773 45.0864 170.115 45.9404 170.526 46.7532C171.448 48.5825 172.595 49.8581 173.931 50.5496C174.548 50.8692 175.212 51.0676 175.857 51.2632C176.149 51.3513 176.443 51.4395 176.733 51.5414C177.799 51.9079 178.501 52.3597 178.937 52.9575C180.711 56.1479 180.997 59.6495 179.736 62.8426C179.722 62.8757 179.716 62.9088 179.716 62.9418C178.84 63.6086 178.025 64.391 177.286 65.2671C177.523 64.5398 177.713 63.7325 177.873 62.782C177.904 62.7793 177.934 62.7738 177.964 62.7683C178.686 62.6305 178.973 61.1428 178.824 59.8424C178.697 58.7211 178.284 58.0571 177.713 58.0571C177.705 58.0571 177.694 58.0571 177.683 58.0571C177.416 58.0681 177.173 58.2941 176.981 58.7156C176.559 59.6358 176.394 61.5919 177.027 62.4129C177.179 62.6112 177.372 62.7324 177.592 62.771C177.38 64.0356 177.113 65.0412 176.744 65.9366C175.774 67.2149 174.961 68.6613 174.361 70.2041C174.215 69.284 174.215 68.2811 174.217 67.2259C174.217 65.7217 174.22 64.1678 173.785 62.7104C172.614 58.8038 170.187 56.7292 167.379 54.3268C166.897 53.9135 166.437 53.5113 165.977 53.1091C165.517 52.7041 165.057 52.2991 164.569 51.8858C164.462 51.7977 164.305 51.7977 164.203 51.8941C164.098 51.9905 164.084 52.1448 164.167 52.2578C165.082 53.5058 165.622 55.1313 165.864 57.3739C165.944 58.1177 165.991 58.8836 166.035 59.622C166.101 60.7185 166.17 61.8563 166.352 62.9639C166.721 65.1982 167.525 66.9311 168.743 68.1131C169.768 69.1049 170.738 69.4548 171.674 69.7909C172.402 70.0499 173.148 70.3226 173.964 70.8929C174.562 71.9371 175.149 73.389 175.449 74.5737C175.311 74.6646 175.173 74.7555 175.038 74.8464C175.201 74.9594 175.358 75.0751 175.509 75.1936C175.565 75.1577 175.62 75.1191 175.677 75.0833C175.655 75.1495 175.639 75.2183 175.631 75.2899C175.727 75.3671 175.818 75.4443 175.909 75.5241C175.906 75.5104 175.903 75.4938 175.901 75.48C175.873 75.1963 175.983 74.9842 176.237 74.8299C177.058 74.3395 179.055 74.6398 179.893 75.2128C180.058 75.3258 180.248 75.4994 180.218 75.6839C180.146 76.1247 179.457 76.4002 178.444 76.4002C178.388 76.4002 178.331 76.3975 178.273 76.3975C177.529 76.3755 176.84 76.2157 176.399 75.9925C176.408 76.0008 176.416 76.009 176.424 76.0173C176.474 76.0696 176.501 76.1385 176.501 76.2074V76.3369C177 76.538 177.647 76.6537 178.267 76.673C178.322 76.6757 178.377 76.6758 178.433 76.6758C179.383 76.6758 180.38 76.4305 180.491 75.728C180.521 75.5489 180.466 75.2707 180.05 74.9842C179.325 74.4883 177.854 74.1962 176.818 74.3587C176.876 74.3229 176.937 74.2871 176.997 74.2513C178.298 73.8628 179.719 73.7912 181.094 73.7251C182.948 73.6342 184.868 73.5405 186.546 72.6727C188.643 71.5899 190.04 69.5457 191.128 67.6915C191.963 66.2672 192.93 64.5563 193.751 62.6525C193.806 62.5258 193.756 62.377 193.638 62.3082C193.519 62.242 193.365 62.2668 193.282 62.3743C192.235 63.716 191.026 64.2973 189.411 64.8015C188.37 65.1266 187.251 65.2478 186.169 65.369C185.091 65.4875 183.978 65.6115 182.912 65.9311C178.815 67.1571 176.876 72.3971 176.375 73.9896C176.226 74.0805 176.08 74.1742 175.936 74.2651C175.774 73.6645 175.554 73.0198 175.297 72.3944C175.408 71.7966 175.633 71.2097 175.947 70.6863C176.011 70.7414 176.082 70.7882 176.165 70.8295C176.256 70.8736 176.355 70.8929 176.46 70.8929C176.884 70.8929 177.405 70.5458 177.912 69.9038C178.656 68.9699 179.138 67.675 178.625 67.0138C178.463 66.8044 178.201 66.7411 177.895 66.8347C177.025 67.102 175.7 68.6833 175.617 69.8074C175.598 70.0664 175.647 70.2896 175.757 70.4686C175.468 70.9287 175.25 71.4384 175.113 71.9646C174.964 71.6313 174.81 71.3062 174.65 71.0031C174.655 70.9921 174.661 70.9838 174.664 70.9728C175.832 67.5703 178.063 64.6197 180.777 62.8399ZM181.929 58.4621C182.02 57.8257 182.111 57.1893 182.229 56.5584C182.612 54.5637 183.546 52.8584 185.012 51.4891C186.323 50.2603 187.844 49.3952 189.657 48.847L189.874 48.7836C191.02 48.4365 192.194 48.0838 193.235 47.4998C192.299 48.9627 191.582 50.5661 190.883 52.1283C189.949 54.2166 188.982 56.3793 187.51 58.1398C186.05 59.8892 184.116 61.2062 181.967 61.9362C182.16 61.7875 182.375 61.6084 182.595 61.3962C183.425 60.6193 184.309 59.3933 185.003 58.0902C185.692 56.7843 186.337 55.4757 186.94 54.5637C187.53 53.6463 188.042 53.1201 188.042 53.1201C188.078 53.0815 188.078 53.0209 188.039 52.9851C188.004 52.9493 187.937 52.9548 187.899 52.9906C187.899 52.9906 187.356 53.5003 186.714 54.4122C186.061 55.3131 185.353 56.6135 184.615 57.8725C183.89 59.1371 183.056 60.3245 182.265 61.0491C181.882 61.4128 181.529 61.669 181.27 61.8371C181.604 60.7295 181.769 59.5807 181.929 58.4621ZM180.879 52.3872C181 51.299 182.248 49.6377 183.069 49.4724C183.113 49.4641 183.152 49.4586 183.191 49.4586C183.356 49.4586 183.477 49.5385 183.568 49.7093C183.921 50.3485 183.317 51.704 182.529 52.5691C182.033 53.1146 181.551 53.3653 181.248 53.2385C181.168 53.2027 181.102 53.1532 181.047 53.098C181.039 53.0622 181.014 53.0292 180.981 53.0099H180.978C180.885 52.8528 180.849 52.649 180.879 52.3872ZM182.962 38.6506C182.73 36.8873 182.562 34.5924 183.334 32.4875C183.764 31.3139 184.483 30.2201 185.18 29.1622C185.676 28.41 186.177 27.6441 186.587 26.8397C186.497 28.9693 186.736 31.0714 186.984 33.2589L187.006 33.4518C187.216 35.2949 187.273 36.857 187.177 38.2235C187.037 40.2623 185.822 42.5242 184.014 44.191C184.155 43.9348 184.312 43.6014 184.455 43.1964C184.819 42.1825 185.042 40.7582 185.014 39.3586C184.987 37.9591 184.904 36.5815 184.973 35.5484C185.028 34.5152 185.204 33.843 185.204 33.843C185.213 33.8072 185.191 33.7686 185.155 33.7576C185.119 33.7493 185.08 33.7741 185.069 33.8099C185.069 33.8099 184.852 34.4794 184.731 35.5263C184.598 36.5705 184.596 37.9728 184.54 39.3503C184.494 40.7251 184.342 42.0834 183.989 43.0339C183.893 43.3121 183.788 43.5518 183.689 43.7557C183.596 42.7087 183.427 41.6673 183.262 40.6535C183.155 39.9868 183.047 39.32 182.962 38.6506ZM147.772 9.28451C147.747 9.35063 147.661 9.54899 147.314 9.52419C146.703 9.48287 145.816 8.84921 145.708 8.37534C145.672 8.2183 145.73 8.10533 145.89 8.01441C145.956 7.97584 146.044 7.95657 146.143 7.95657C146.471 7.95657 146.942 8.16045 147.328 8.4883C147.667 8.78033 147.843 9.09441 147.772 9.28451ZM148.667 11.5905C147.94 11.8247 146.634 11.4858 146.298 10.9844C146.179 10.8108 146.196 10.6427 146.347 10.4554C146.51 10.2543 146.838 10.1689 147.215 10.1689C147.543 10.1689 147.912 10.235 148.232 10.3479C148.761 10.5353 149.102 10.8246 149.105 11.0891C149.111 11.3288 148.965 11.4996 148.667 11.5905ZM158.293 13.8386C157.428 13.362 156.34 12.5713 155.447 11.5795C154.552 10.5959 153.736 9.5297 153.174 8.68666C152.62 7.84086 152.152 7.31739 152.152 7.31739C152.122 7.28433 152.072 7.28158 152.039 7.31188C152.006 7.33944 152.012 7.40004 152.039 7.4331C152.039 7.4331 152.444 7.94555 152.951 8.83268C153.477 9.69776 154.18 10.8824 155.141 11.8715C156.006 12.8247 157.048 13.6044 157.924 14.1086C156.577 13.7807 155.307 13.4639 154.105 12.8358C151.805 11.6345 150.229 9.36716 148.934 7.33669C148.733 7.01986 148.535 6.70302 148.336 6.38619C147.43 4.93153 146.559 3.53746 145.411 2.34453C146.168 2.62554 146.937 2.87625 147.692 3.12145C148.474 3.37766 149.287 3.63941 150.067 3.9342C152.53 4.86265 154.202 5.94538 155.326 7.3477C156.106 8.31748 156.646 9.48836 157.166 10.6207C157.307 10.9265 157.447 11.2323 157.591 11.5326C158.048 12.4859 158.607 13.5052 159.368 14.3565C159.084 14.2436 158.712 14.0728 158.293 13.8386ZM148.199 15.0646C148.199 15.0646 148.785 15.1142 149.67 15.1886C150.549 15.2933 151.711 15.4613 152.877 15.6432C154.039 15.836 155.205 16.0647 156.097 16.1694C156.376 16.2052 156.624 16.2272 156.836 16.241C155.048 17.1006 153.034 17.3513 150.593 17.0207C148.857 16.7865 147.411 16.263 145.738 15.6569C145.102 15.4255 144.449 15.1913 143.735 14.9544C146.3 13.9268 148.458 13.5052 150.452 13.6182C152.899 13.7642 154.935 14.7285 157.02 15.8278C156.783 15.8167 156.486 15.7974 156.144 15.7561C155.274 15.6597 154.111 15.4393 152.94 15.2519C150.596 14.7974 148.201 14.9048 148.201 14.9048C148.157 14.9075 148.121 14.9461 148.124 14.9902C148.127 15.0288 148.157 15.0618 148.199 15.0646ZM161.922 13.0011C161.96 12.6622 162.09 12.4611 162.304 12.4032C162.346 12.3922 162.39 12.3867 162.434 12.3867C162.831 12.3867 163.307 12.822 163.682 13.5466C164.115 14.3813 164.318 15.4531 163.908 15.8085C163.676 16.0068 163.44 16.0344 163.178 15.8966C162.423 15.4916 161.82 13.8965 161.922 13.0011ZM168.288 17.4174C168.167 17.175 168.01 16.8444 167.839 16.4476C167.443 15.5908 167.123 14.3979 167.01 13.1278C166.837 11.866 166.682 10.5931 166.511 9.64541C166.338 8.69767 166.131 8.08605 166.131 8.08605C166.126 8.06401 166.101 8.05023 166.076 8.05574C166.054 8.06125 166.043 8.0833 166.046 8.10534C166.046 8.10534 166.167 8.73074 166.255 9.68123C166.365 10.629 166.44 11.899 166.539 13.1774C166.627 14.4585 166.98 15.7589 167.385 16.6432C167.578 17.0675 167.759 17.4091 167.894 17.6543C166.633 16.8196 165.889 15.4145 165.206 13.5934C164.423 11.5161 164.47 9.27349 164.514 7.10251C164.55 5.34755 164.586 3.54573 164.192 1.79903C166.255 4.68357 168.288 7.90697 168.68 11.5657C168.892 13.519 168.616 15.4916 168.288 17.4174ZM165.963 19.1421C165.955 19.2412 165.93 19.3267 165.897 19.401C165.883 19.4121 165.87 19.4258 165.858 19.4424C165.85 19.4561 165.847 19.4727 165.845 19.4892C165.779 19.5774 165.688 19.6435 165.566 19.6876C164.894 19.9272 163.605 19.4066 163.021 18.8115C162.88 18.6655 162.657 18.3872 162.748 18.142C162.844 17.883 163.156 17.7893 163.519 17.7893C163.732 17.7893 163.96 17.8224 164.178 17.872C165.057 18.0704 166.007 18.6434 165.963 19.1421ZM167.831 24.3794C167.266 24.3794 166.699 24.4262 166.137 24.4703C165.69 24.5061 165.244 24.542 164.803 24.5557C162.911 24.6384 160.99 24.1976 159.282 23.36C158.401 22.9275 157.555 22.3737 156.737 21.8393C156.186 21.4784 155.623 21.1119 155.042 20.7758C156.117 20.8116 157.227 20.6849 158.315 20.5499C158.698 20.5031 159.073 20.4562 159.445 20.4177C161.406 20.2138 163.646 20.087 165.431 21.1285C166.324 21.6464 167.027 22.4206 167.768 23.2388C167.93 23.4179 168.096 23.5997 168.264 23.7788C168.181 23.7347 168.098 23.6934 168.007 23.6493C167.12 23.1975 165.875 22.7099 164.586 22.3958C161.985 21.7566 159.335 22.0845 159.335 22.0845C159.312 22.0872 159.296 22.1065 159.299 22.1285C159.301 22.1506 159.321 22.1644 159.343 22.1644C159.343 22.1644 161.993 22.0046 164.495 22.7595C166.123 23.1617 167.591 23.9138 168.44 24.4042C168.236 24.3877 168.035 24.3794 167.831 24.3794ZM172.369 23.5749C172.421 23.3518 172.512 23.2306 172.644 23.2113C172.666 23.2085 172.686 23.2085 172.71 23.2085C173.181 23.2085 173.666 23.9166 173.928 24.6053C174.261 25.4814 174.27 26.3024 173.95 26.5201C173.738 26.6633 173.529 26.6578 173.314 26.5118C172.652 26.0462 172.187 24.3656 172.369 23.5749ZM176.68 33.5951C176.485 33.8099 176.24 33.8623 175.945 33.7493C175.154 33.4628 174.294 32.1514 174.253 31.4186C174.242 31.2009 174.3 31.0577 174.427 30.9943C174.501 30.9585 174.581 30.9392 174.669 30.9392C175.157 30.9392 175.815 31.4819 176.262 32.0853C176.735 32.73 176.909 33.3499 176.68 33.5951ZM174.479 35.8432C173.498 35.4685 172.225 34.8844 170.955 34.2701C169.691 33.6447 168.366 33.1129 167.346 32.7961C166.321 32.482 165.605 32.4324 165.605 32.4324C165.572 32.4297 165.544 32.4517 165.542 32.482C165.539 32.5123 165.558 32.5371 165.586 32.5454C165.586 32.5454 166.274 32.6969 167.255 33.0606C168.247 33.4105 169.484 34.0717 170.757 34.6805C172.024 35.3004 173.314 35.8983 174.308 36.284C174.316 36.2867 174.325 36.2895 174.333 36.2922C173.424 36.1545 172.498 36.1077 171.589 36.0608C169.702 35.9671 167.919 35.8762 166.327 35.0525C165.137 34.4353 164.142 33.449 163.178 32.493C162.464 31.785 161.734 31.0576 160.913 30.4681C161.787 30.6003 162.687 30.6885 163.616 30.7794C165.71 30.986 167.872 31.1982 169.834 31.953C171.008 32.4076 172.203 33.2259 173.297 34.3196C173.914 34.9368 174.529 35.5291 175.102 36.0718C174.909 36.0085 174.702 35.9313 174.479 35.8432ZM178.019 29.0162C177.686 27.8618 177.061 26.7763 176.449 25.7211L176.022 24.9828C175.311 23.7678 174.575 22.5087 174.215 21.1505C173.664 19.076 173.997 16.8884 174.438 14.8359C174.52 14.4585 174.606 14.0783 174.691 13.6981C174.969 12.4693 175.256 11.2103 175.391 9.9347C175.884 11.2654 176.548 12.4693 177.24 13.7201C177.614 14.4006 178.003 15.1032 178.366 15.836C179.854 18.8363 180.477 21.7649 180.121 24.0791C179.865 25.7432 179.325 27.3604 178.512 28.9087C178.645 27.7075 178.78 25.396 178.248 23.1121C177.906 21.4783 177.333 19.919 176.953 18.7481C176.548 17.5827 176.46 16.7672 176.46 16.7672C176.454 16.7149 176.408 16.6763 176.352 16.6818C176.3 16.6873 176.264 16.7424 176.267 16.792C176.267 16.792 176.33 17.6323 176.702 18.8225C177.047 20.0154 177.562 21.5803 177.843 23.192C178.163 24.7954 178.22 26.4347 178.146 27.6524C178.113 28.2062 178.063 28.6718 178.019 29.0162ZM179.562 39.1933C179.119 38.2841 179.697 36.1462 180.259 35.5126C180.345 35.4161 180.477 35.3087 180.57 35.3473C181.146 35.5594 181.267 36.6972 181.132 37.667C180.989 38.7277 180.581 39.5184 180.168 39.5487C179.879 39.5763 179.689 39.455 179.562 39.1933ZM179.785 47.588C179.03 46.8028 178.545 44.7751 178.939 44.0312C179.05 43.8246 179.198 43.7474 179.438 43.7915C180.154 43.921 180.81 45.2544 180.975 46.4143C181.077 47.1471 180.964 47.6899 180.675 47.8359C180.389 47.9792 180.088 47.8993 179.785 47.588ZM177.551 50.726C176.854 50.0647 176.055 49.0454 175.35 47.9544C174.628 46.8716 173.958 45.7421 173.363 44.9514C172.785 44.1441 172.234 43.7474 172.234 43.7474C172.209 43.7281 172.17 43.7309 172.151 43.7557C172.132 43.7805 172.137 43.819 172.159 43.8411C172.159 43.8411 172.672 44.2433 173.203 45.0671C173.752 45.8716 174.361 47.0259 175.036 48.1555C175.719 49.2795 176.523 50.343 177.237 51.0483C177.286 51.0979 177.336 51.1475 177.386 51.1943C177.231 51.1309 177.069 51.0676 176.898 51.0097C176.6 50.9078 176.3 50.8169 175.997 50.726C175.35 50.5303 174.738 50.3457 174.165 50.051C172.933 49.4145 171.867 48.2161 170.999 46.4942C170.6 45.7007 170.264 44.8605 169.939 44.0422C169.655 43.3342 169.363 42.5986 169.024 41.8933C168.498 40.7912 167.917 39.8903 167.269 39.1795C167.407 39.2374 167.55 39.298 167.699 39.3586C170.121 40.3449 172.867 41.4662 174.688 43.5711C176.182 45.2958 176.915 47.4199 177.694 49.6708C177.887 50.2328 178.085 50.8058 178.3 51.3734C178.088 51.2108 177.829 50.9932 177.551 50.726ZM177.223 62.2338C176.7 61.556 176.777 59.7625 177.209 58.823C177.35 58.5117 177.521 58.3299 177.675 58.3244C177.68 58.3244 177.686 58.3244 177.694 58.3244C178.185 58.3244 178.446 59.1178 178.532 59.8644C178.678 61.1455 178.372 62.3936 177.893 62.4873C177.609 62.5396 177.397 62.4569 177.223 62.2338ZM168.878 59.4126C168.878 59.4126 169.198 60.0959 169.52 61.1924C169.859 62.2806 170.283 63.7491 170.796 65.1927C171.311 66.6364 171.955 68.0387 172.559 69.0332C172.713 69.2895 172.865 69.5181 173.002 69.7165C172.606 69.5374 172.22 69.3997 171.842 69.2619C170.92 68.9286 170.046 68.6172 169.109 67.7081C167.977 66.6115 167.228 64.9806 166.878 62.8674C166.702 61.7847 166.633 60.6662 166.567 59.5807C166.522 58.8341 166.476 58.0654 166.396 57.3078C166.225 55.7374 165.914 54.448 165.429 53.3708C165.484 53.4204 165.539 53.4672 165.594 53.5168C166.054 53.9218 166.514 54.324 167.002 54.74C169.743 57.0846 172.11 59.1096 173.237 62.8619C173.65 64.2395 173.647 65.752 173.644 67.2177C173.644 68.1627 173.644 69.0663 173.746 69.9231C173.54 69.6724 173.25 69.2895 172.942 68.7936C172.338 67.8458 171.691 66.4738 171.145 65.0605C170.589 63.6471 170.118 62.2007 169.74 61.118C169.379 60.0297 169.03 59.3382 169.03 59.3382C169.01 59.2969 168.958 59.2776 168.917 59.2969C168.875 59.319 168.859 59.3713 168.878 59.4126ZM183.053 66.4435C184.069 66.1404 185.158 66.0192 186.21 65.9035C187.318 65.7823 188.464 65.6556 189.557 65.3167C190.731 64.9503 191.704 64.5425 192.566 63.8565C191.927 65.1652 191.246 66.3608 190.632 67.3995C189.582 69.1875 188.246 71.1519 186.273 72.1712C184.7 72.984 182.926 73.0722 181.047 73.1631C179.898 73.2209 178.722 73.2788 177.587 73.5185C177.807 73.367 178.102 73.1823 178.46 72.9895C179.32 72.5101 180.557 72.0335 181.802 71.5514C183.044 71.0665 184.293 70.554 185.16 70.0168C186.045 69.4851 186.475 68.9506 186.475 68.9506L186.488 68.9341C186.527 68.8872 186.519 68.8183 186.472 68.7825C186.428 68.7467 186.362 68.7522 186.323 68.7963C186.323 68.7963 185.879 69.306 185.023 69.7826C184.166 70.273 182.921 70.7414 181.664 71.1822C180.405 71.623 179.149 72.1051 178.245 72.5845C177.804 72.8104 177.454 73.0336 177.207 73.2016C178.298 70.3199 180.3 67.27 183.053 66.4435ZM175.876 69.8129C175.95 68.8018 177.182 67.3251 177.959 67.0854C178.033 67.0634 178.094 67.0551 178.146 67.0551C178.303 67.0551 178.366 67.1378 178.394 67.1708C178.799 67.6943 178.35 68.879 177.683 69.7193C177.16 70.3805 176.589 70.7221 176.267 70.565C175.975 70.4273 175.848 70.1793 175.876 69.8129Z" fill="#191919"/>
<path d="M159.789 89.2361C158.155 90.8643 154.21 93.9142 146.088 96.1348C138.297 98.2617 131.172 96.6775 127.985 95.7077C127.685 95.8042 127.384 95.9006 127.084 95.997C128.927 96.6141 132.985 97.7437 138.019 97.7437C140.562 97.7437 143.355 97.4572 146.234 96.6692C155.216 94.2117 159.15 90.8093 160.566 89.2416C160.304 89.2361 160.045 89.2361 159.789 89.2361Z" fill="#191919"/>
<path d="M161.803 89.2637C159.905 91.0131 155.293 94.5258 146.921 96.8235C137.206 99.4904 129.093 97.5398 125.718 96.4295C125.423 96.5232 125.128 96.6169 124.833 96.7078C126.74 97.3938 131.159 98.7107 136.972 98.7107C140.011 98.7107 143.427 98.3526 147.067 97.3525C156.285 94.8206 160.947 90.925 162.586 89.2885C162.324 89.2802 162.065 89.2719 161.803 89.2637Z" fill="#191919"/>
<path d="M164.638 89.418C162.484 91.2419 156.61 95.4984 146.356 97.9421C134.963 100.656 126.059 98.4932 122.643 97.3884C122.34 97.4793 122.04 97.573 121.739 97.6611C123.607 98.3279 128.519 99.8018 135.311 99.8018C138.63 99.8018 142.399 99.4491 146.482 98.4766C157.536 95.8455 163.58 91.1069 165.399 89.4869C165.145 89.4621 164.892 89.4401 164.638 89.418Z" fill="#191919"/>
<path d="M183.172 78.0174C183.006 78.0064 179.615 77.775 177.455 78.1386V92.9966C177.425 93.2143 177.064 93.6358 175.749 93.7708C174.05 93.9471 173.364 94.2171 173.099 94.4899C173.375 94.5092 173.683 94.5174 174.011 94.5174C175.336 94.5174 177.003 94.3824 178.207 94.2364C180.119 94.005 183.337 94.1042 183.337 94.1042C183.392 94.0518 183.425 93.9802 183.425 93.903V78.2902C183.431 78.1469 183.318 78.0257 183.172 78.0174Z" fill="#191919"/>
<path d="M99.4376 82.1885C98.2667 81.9792 95.8119 82.1527 93.7649 82.409C92.0265 82.6266 90.7454 82.5991 88.8417 82.4668C88.7755 82.4613 88.6901 82.4888 88.635 82.5384C88.5799 82.5908 88.5469 82.6624 88.5469 82.7396V98.3524C88.5469 98.4984 88.6598 98.6169 88.8031 98.628C88.8968 98.6335 90.0153 98.7106 91.3598 98.7106C92.3791 98.7106 93.528 98.6665 94.4592 98.515V84.0482C94.5033 83.4972 95.6521 83.0178 96.9663 82.8801C98.9279 82.6762 99.2668 82.5054 99.4376 82.1885Z" fill="#191919"/>
<path d="M101.006 100C97.4823 100 95.5592 99.7189 95.5262 99.7134C95.3912 99.6942 95.292 99.5784 95.292 99.4407V84.4036C95.292 84.3237 95.3085 84.1749 95.4242 84.0702C95.4518 84.1006 95.5262 84.1171 95.6116 84.1309C95.6694 84.1364 101.378 84.9684 111.263 83.7286C116.128 83.117 123.033 80.8799 129.711 78.72C136.849 76.4085 144.233 74.0171 149.495 73.4551C163.816 71.9232 172.615 73.0942 176.414 77.0394C176.464 77.0917 176.492 77.1606 176.492 77.2295V92.2665C176.492 92.3795 176.365 92.5889 176.169 92.6688C175.549 91.6411 173.293 90.5226 172.125 90.0901C165.874 87.7703 155.798 88.3543 149.555 89.0404C144.368 89.6107 137.042 91.9772 129.959 94.2667C123.228 96.4432 116.269 98.6913 111.335 99.3139C107.092 99.8457 103.609 100 101.006 100Z" fill="#191919"/>
<path d="M175.312 92.9664C174.331 91.9966 172.998 91.25 171.43 90.6824C171.425 91.4346 171.414 93.713 171.477 93.8397C171.571 93.5504 172.653 93.2915 174.29 93.1234C174.687 93.0821 175.026 93.0297 175.312 92.9664Z" fill="#191919"/>
<path d="M100.349 82.9325C100.354 82.8554 100.302 82.7534 100.302 82.7534C100.208 83.0427 99.1257 83.3017 97.4892 83.4725C97.1256 83.5111 96.8115 83.5552 96.5415 83.613C97.1035 83.6764 98.3957 83.8003 100.349 83.8389V82.9325Z" fill="#191919"/>
<path d="M126.396 47.7063V34.9752C126.39 34.9862 126.335 35.0055 126.233 35.0303C126.131 35.0551 126.002 35.0854 125.845 35.1185C125.688 35.1515 125.514 35.1901 125.33 35.2287C125.145 35.27 124.958 35.3058 124.768 35.3389C124.58 35.3747 124.41 35.405 124.258 35.4381C124.107 35.4684 123.977 35.4932 123.872 35.5125L123.715 35.54V33.9999C125.28 33.5977 126.335 33.0412 126.886 32.3331H128.426V47.7063H126.396Z" fill="#191919"/>
<path d="M135.872 47.8744C134.58 47.8744 133.597 47.4749 132.919 46.6787C132.241 45.8797 131.864 44.7887 131.781 43.4057L133.691 42.8877C133.825 45.089 134.553 46.1883 135.87 46.1883C136.421 46.1883 136.84 46.034 137.126 45.7282C137.413 45.4224 137.556 44.9733 137.556 44.3782C137.556 44.0504 137.517 43.7501 137.44 43.4773C137.363 43.2046 137.236 42.9456 137.06 42.6976C136.884 42.4524 136.716 42.2458 136.559 42.0805C136.401 41.9152 136.178 41.6976 135.886 41.4276L133.31 39.1381C132.79 38.6698 132.412 38.1711 132.172 37.6476C131.936 37.1269 131.817 36.4878 131.817 35.7329C131.817 34.6198 132.139 33.7548 132.784 33.1321C133.429 32.5095 134.313 32.1954 135.432 32.1816C136.66 32.1623 137.583 32.4792 138.195 33.1321C138.807 33.7851 139.173 34.7934 139.297 36.1599L137.49 36.6613C137.465 36.328 137.432 36.0304 137.388 35.7714C137.344 35.5125 137.272 35.2507 137.176 34.9862C137.076 34.7245 136.955 34.5124 136.815 34.3471C136.671 34.1818 136.484 34.055 136.25 33.9559C136.016 33.8594 135.743 33.8209 135.434 33.8401C134.302 33.92 133.737 34.4821 133.737 35.529C133.737 35.9781 133.814 36.3555 133.969 36.6586C134.123 36.9616 134.382 37.2812 134.748 37.6146L137.344 39.904C138.019 40.5101 138.553 41.1576 138.953 41.8518C139.352 42.5434 139.55 43.3285 139.55 44.2074C139.55 45.3315 139.212 46.2241 138.531 46.8826C137.853 47.5438 136.966 47.8744 135.872 47.8744Z" fill="#191919"/>
<path d="M142.815 47.7062V33.92H140.004V32.3358H147.663V33.92H144.958V47.7062H142.815Z" fill="#191919"/>
<path d="M121.119 61.1068C120.709 61.1068 120.348 61.049 120.037 60.9388C119.725 60.8286 119.472 60.6743 119.276 60.4842C119.078 60.2941 118.918 60.0544 118.791 59.7706C118.665 59.4841 118.579 59.1866 118.53 58.8697C118.483 58.5557 118.458 58.203 118.458 57.8118V54.3101C118.458 53.8914 118.483 53.5194 118.532 53.1916C118.582 52.8637 118.667 52.5607 118.791 52.2769C118.915 51.9931 119.078 51.759 119.276 51.5771C119.475 51.3953 119.731 51.2493 120.037 51.1474C120.345 51.0427 120.706 50.9903 121.117 50.9903C122.009 50.9903 122.648 51.2327 123.034 51.7149C123.423 52.197 123.613 52.9078 123.613 53.8445V54.6352H122.304V53.9354C122.304 53.7839 122.304 53.6655 122.301 53.58C122.299 53.4946 122.296 53.3872 122.29 53.2605C122.282 53.1337 122.274 53.0318 122.257 52.9629C122.243 52.8913 122.221 52.8059 122.197 52.7122C122.169 52.6158 122.139 52.5414 122.097 52.4863C122.059 52.4312 122.009 52.3761 121.949 52.3127C121.891 52.2521 121.822 52.2053 121.745 52.175C121.67 52.1447 121.579 52.1199 121.475 52.1006C121.37 52.0813 121.254 52.0703 121.128 52.0703C120.935 52.0703 120.77 52.0923 120.623 52.1336C120.48 52.175 120.362 52.2411 120.271 52.332C120.18 52.4202 120.103 52.5194 120.048 52.6268C119.99 52.7342 119.946 52.872 119.921 53.0428C119.893 53.2136 119.874 53.3762 119.863 53.5332C119.852 53.6903 119.847 53.8859 119.847 54.1145V58.0377C119.847 58.7843 119.94 59.2995 120.128 59.5916C120.315 59.8808 120.648 60.0296 121.128 60.0296C121.309 60.0296 121.469 60.0103 121.602 59.969C121.734 59.9304 121.844 59.8643 121.929 59.7734C122.015 59.6797 122.084 59.5861 122.136 59.4869C122.188 59.3877 122.224 59.2527 122.249 59.0846C122.274 58.9138 122.288 58.7595 122.293 58.6163C122.299 58.473 122.301 58.2857 122.301 58.0542V57.3242H123.61V58.0598C123.61 58.44 123.585 58.7761 123.538 59.0764C123.489 59.3739 123.409 59.6549 123.293 59.9167C123.177 60.1784 123.026 60.3933 122.839 60.5641C122.651 60.7349 122.412 60.8699 122.122 60.9663C121.838 61.06 121.502 61.1068 121.119 61.1068Z" fill="#191919"/>
<path d="M124.946 60.9995V51.0868H126.326V55.3681H128.874V51.0868H130.255V60.9995H128.874V56.3545H126.326V60.9995H124.946Z" fill="#191919"/>
<path d="M134.329 61.1068C133.836 61.1068 133.412 61.0325 133.059 60.8864C132.707 60.7377 132.426 60.52 132.219 60.2335C132.012 59.947 131.861 59.6109 131.764 59.2307C131.668 58.8477 131.621 58.4014 131.621 57.8917V54.1366C131.621 53.1034 131.83 52.321 132.252 51.7893C132.671 51.2575 133.365 50.9903 134.329 50.9903C135.291 50.9903 135.982 51.2603 136.404 51.7948C136.825 52.332 137.038 53.1117 137.038 54.1366V57.8972C137.038 58.9304 136.825 59.7238 136.401 60.2776C135.977 60.8313 135.285 61.1068 134.329 61.1068ZM133.657 59.9001C133.833 59.9828 134.059 60.0269 134.329 60.0269C134.602 60.0269 134.825 59.9828 135.002 59.9001C135.178 59.8175 135.313 59.688 135.404 59.5172C135.495 59.3464 135.558 59.159 135.591 58.9524C135.624 58.7458 135.643 58.4923 135.643 58.1893V53.85C135.643 53.5525 135.627 53.3018 135.591 53.1034C135.558 52.9051 135.495 52.7205 135.404 52.5524C135.313 52.3844 135.178 52.2631 135.002 52.186C134.825 52.1089 134.599 52.0703 134.329 52.0703C134.059 52.0703 133.833 52.1089 133.657 52.186C133.478 52.2631 133.346 52.3871 133.255 52.5524C133.164 52.7205 133.101 52.9051 133.067 53.1034C133.034 53.3018 133.015 53.5525 133.015 53.85V58.1893C133.015 58.4923 133.032 58.7458 133.067 58.9524C133.101 59.159 133.164 59.3436 133.255 59.5172C133.346 59.688 133.481 59.8147 133.657 59.9001Z" fill="#191919"/>
<path d="M138.474 60.9995V51.0868H139.829V60.9995H138.474Z" fill="#191919"/>
<path d="M143.914 61.1068C143.504 61.1068 143.143 61.049 142.832 60.9388C142.52 60.8286 142.267 60.6743 142.071 60.4842C141.873 60.2941 141.713 60.0544 141.586 59.7706C141.46 59.4841 141.374 59.1866 141.325 58.8697C141.278 58.5557 141.253 58.203 141.253 57.8118V54.3101C141.253 53.8914 141.278 53.5194 141.327 53.1916C141.377 52.8637 141.462 52.5607 141.586 52.2769C141.71 51.9931 141.873 51.759 142.071 51.5771C142.27 51.3953 142.523 51.2493 142.832 51.1474C143.14 51.0427 143.501 50.9903 143.912 50.9903C144.804 50.9903 145.443 51.2327 145.829 51.7149C146.218 52.197 146.408 52.9078 146.408 53.8445V54.6352H145.099V53.9354C145.099 53.7839 145.096 53.6655 145.096 53.58C145.093 53.4946 145.088 53.3872 145.085 53.2605C145.08 53.1337 145.069 53.0318 145.052 52.9629C145.038 52.8913 145.016 52.8059 144.992 52.7122C144.964 52.6158 144.934 52.5414 144.892 52.4863C144.854 52.4312 144.804 52.3761 144.744 52.3127C144.686 52.2521 144.617 52.2053 144.54 52.175C144.465 52.1447 144.374 52.1199 144.27 52.1006C144.165 52.0813 144.049 52.0703 143.925 52.0703C143.732 52.0703 143.567 52.0923 143.421 52.1336C143.278 52.175 143.159 52.2411 143.068 52.332C142.978 52.4202 142.9 52.5194 142.843 52.6268C142.785 52.7342 142.741 52.872 142.716 53.0428C142.688 53.2136 142.669 53.3762 142.658 53.5332C142.647 53.6903 142.641 53.8859 142.641 54.1145V58.0377C142.641 58.7843 142.735 59.2995 142.922 59.5916C143.11 59.8808 143.443 60.0296 143.923 60.0296C144.104 60.0296 144.264 60.0103 144.396 59.969C144.529 59.9304 144.639 59.8643 144.724 59.7734C144.81 59.6797 144.879 59.5861 144.931 59.4869C144.983 59.3877 145.019 59.2527 145.044 59.0846C145.069 58.9138 145.082 58.7595 145.088 58.6163C145.096 58.473 145.099 58.2857 145.099 58.0542V57.3242H146.408V58.0598C146.408 58.44 146.383 58.7761 146.336 59.0764C146.286 59.3739 146.206 59.6549 146.091 59.9167C145.975 60.1784 145.824 60.3933 145.636 60.5641C145.449 60.7349 145.209 60.8699 144.92 60.9663C144.633 61.06 144.297 61.1068 143.914 61.1068Z" fill="#191919"/>
<path d="M147.741 60.9995V51.0868H151.579V52.1089H149.121V55.3847H151.119V56.371H149.121V60.0049H151.609V60.9967H147.741V60.9995Z" fill="#191919"/>
<path d="M135.408 21.6326L137.273 21.6904L135.774 22.8035L136.298 24.597L134.777 23.5143L133.234 24.5667L133.791 22.7842L132.314 21.6436L134.182 21.6216L134.81 19.8638L135.408 21.6326Z" fill="#191919"/>
<path d="M143.138 23.2058L144.678 23.2499L143.441 24.1701L143.874 25.6467L142.62 24.7541L141.347 25.622L141.808 24.1535L140.59 23.2113L142.13 23.1948L142.648 21.7484L143.138 23.2058Z" fill="#191919"/>
<path d="M126.677 23.2058L125.137 23.2499L126.374 24.1701L125.942 25.6467L127.195 24.7541L128.468 25.622L128.008 24.1535L129.226 23.2113L127.686 23.1948L127.168 21.7484L126.677 23.2058Z" fill="#191919"/>
<path d="M149.557 26.9223L150.937 26.9636L149.83 27.7874L150.218 29.1126L149.092 28.3136L147.951 29.0905L148.364 27.7736L147.271 26.9306L148.651 26.914L149.116 25.6164L149.557 26.9223Z" fill="#191919"/>
<path d="M120.258 26.9223L118.878 26.9636L119.985 27.7874L119.597 29.1126L120.724 28.3136L121.864 29.0905L121.451 27.7736L122.545 26.9306L121.165 26.914L120.699 25.6164L120.258 26.9223Z" fill="#191919"/>
<path d="M154.418 31.5259L155.798 31.5673L154.69 32.391L155.079 33.7162L153.952 32.9172L152.811 33.6941L153.225 32.3772L152.131 31.5314L153.511 31.5177L153.977 30.2173L154.418 31.5259Z" fill="#191919"/>
<path d="M115.398 31.5259L114.018 31.5673L115.125 32.391L114.737 33.7162L115.863 32.9172L117.004 33.6941L116.591 32.3772L117.685 31.5314L116.304 31.5177L115.839 30.2173L115.398 31.5259Z" fill="#191919"/>
<path d="M157.531 36.3252L158.79 36.3638L157.779 37.1131L158.132 38.3226L157.107 37.5925L156.066 38.3006L156.443 37.0994L155.446 36.3307L156.705 36.3169L157.129 35.1323L157.531 36.3252Z" fill="#191919"/>
<path d="M112.285 36.3252L111.026 36.3638L112.037 37.1131L111.684 38.3226L112.709 37.5925L113.751 38.3006L113.373 37.0994L114.371 36.3307L113.111 36.3169L112.687 35.1323L112.285 36.3252Z" fill="#191919"/>
<path d="M155.395 63.8455H114.419C114.323 63.8455 114.249 63.7683 114.249 63.6746C114.249 63.5782 114.326 63.5038 114.419 63.5038H155.395C155.492 63.5038 155.566 63.581 155.566 63.6746C155.569 63.7683 155.492 63.8455 155.395 63.8455Z" fill="#191919"/>
<path d="M118.697 69.1819V66.2589H118.871V69.0167H120.491V69.1819H118.697Z" fill="#191919"/>
<path d="M120.995 66.2615H121.166V69.1846H120.995V66.2615Z" fill="#191919"/>
<path d="M122.081 66.1294C122.183 66.2837 122.295 66.449 122.419 66.6281C122.543 66.8044 122.667 66.9835 122.791 67.1598C122.915 67.3361 123.037 67.5097 123.152 67.6777C123.268 67.8458 123.375 67.9946 123.469 68.1268C123.502 68.08 123.549 68.0111 123.61 67.9229C123.67 67.8348 123.739 67.7328 123.819 67.6199C123.896 67.5042 123.982 67.383 124.072 67.2535C124.163 67.124 124.254 66.9917 124.348 66.8567C124.442 66.7245 124.53 66.595 124.618 66.471C124.706 66.347 124.789 66.2313 124.86 66.1294V69.182H124.684V66.7961C124.684 66.7686 124.684 66.741 124.687 66.7107C124.687 66.6832 124.687 66.6556 124.687 66.6308C124.59 66.7631 124.488 66.9091 124.381 67.0661C124.271 67.2232 124.163 67.3829 124.053 67.5455C123.943 67.708 123.838 67.8623 123.739 68.0138C123.64 68.1654 123.549 68.3004 123.469 68.4188C123.42 68.3527 123.359 68.2673 123.285 68.1654C123.213 68.0634 123.136 67.9532 123.053 67.8348C122.973 67.7163 122.888 67.5951 122.805 67.4683C122.72 67.3444 122.64 67.2259 122.565 67.1157C122.491 67.0055 122.425 66.9063 122.37 66.8209C122.312 66.7355 122.271 66.6694 122.246 66.6308C122.246 66.6556 122.246 66.6832 122.249 66.7107C122.251 66.741 122.251 66.7686 122.251 66.7961V69.182H122.081V66.1294Z" fill="#191919"/>
<path d="M125.777 66.2615H125.948V69.1846H125.777V66.2615Z" fill="#191919"/>
<path d="M128.356 66.2615V66.4268H127.546V69.1819H127.375V66.4268H126.574V66.2615H128.356Z" fill="#191919"/>
<path d="M128.984 69.1819V66.2589H130.772V66.4159H129.155V67.6308H130.604V67.7879H129.155V69.0194H130.827V69.1819H128.984Z" fill="#191919"/>
<path d="M131.511 66.2615H132.147C132.442 66.2615 132.693 66.3056 132.894 66.3965C133.098 66.4874 133.263 66.6031 133.392 66.7437C133.522 66.8842 133.616 67.044 133.673 67.2175C133.731 67.3911 133.759 67.5647 133.759 67.7327C133.759 67.9559 133.72 68.157 133.64 68.3333C133.561 68.5097 133.456 68.6639 133.321 68.7907C133.189 68.9174 133.032 69.0166 132.852 69.0827C132.673 69.1488 132.486 69.1846 132.288 69.1846H131.511V66.2615ZM132.288 69.0166C132.467 69.0166 132.635 68.9863 132.795 68.9284C132.954 68.8706 133.089 68.7852 133.208 68.6722C133.326 68.5592 133.417 68.4242 133.486 68.2644C133.555 68.1047 133.591 67.9256 133.591 67.7245C133.591 67.5619 133.563 67.4021 133.505 67.2478C133.448 67.0908 133.365 66.953 133.249 66.8318C133.136 66.7106 132.99 66.6142 132.817 66.5398C132.643 66.4682 132.439 66.4296 132.208 66.4296H131.679V69.0166H132.288Z" fill="#191919"/>
<path d="M135.49 69.1819V66.2589H137.278V66.4159H135.663V67.6308H137.112V67.7879H135.663V69.0194H137.336V69.1819H135.49Z" fill="#191919"/>
<path d="M138.016 66.2615H138.653C138.947 66.2615 139.198 66.3056 139.399 66.3965C139.603 66.4874 139.768 66.6031 139.898 66.7437C140.027 66.8842 140.121 67.044 140.179 67.2175C140.237 67.3911 140.264 67.5647 140.264 67.7327C140.264 67.9559 140.226 68.157 140.146 68.3333C140.066 68.5097 139.961 68.6639 139.826 68.7907C139.694 68.9174 139.537 69.0166 139.358 69.0827C139.179 69.1488 138.991 69.1846 138.793 69.1846H138.016V66.2615ZM138.793 69.0166C138.972 69.0166 139.14 68.9863 139.3 68.9284C139.46 68.8706 139.595 68.7852 139.713 68.6722C139.832 68.5592 139.923 68.4242 139.991 68.2644C140.06 68.1047 140.096 67.9256 140.096 67.7245C140.096 67.5619 140.069 67.4021 140.011 67.2478C139.953 67.0908 139.87 66.953 139.755 66.8318C139.642 66.7106 139.496 66.6142 139.322 66.5398C139.148 66.4682 138.945 66.4296 138.713 66.4296H138.184V69.0166H138.793Z" fill="#191919"/>
<path d="M140.953 66.2615H141.124V69.1846H140.953V66.2615Z" fill="#191919"/>
<path d="M143.532 66.2615V66.4268H142.722V69.1819H142.554V66.4268H141.752V66.2615H143.532Z" fill="#191919"/>
<path d="M144.16 66.2615H144.331V69.1846H144.16V66.2615Z" fill="#191919"/>
<path d="M145.01 67.7245C145.01 67.5179 145.049 67.3223 145.126 67.1432C145.206 66.9641 145.311 66.8043 145.446 66.6693C145.578 66.5316 145.735 66.4241 145.917 66.347C146.096 66.2698 146.291 66.2313 146.498 66.2313C146.705 66.2313 146.9 66.2698 147.079 66.347C147.261 66.4241 147.421 66.5316 147.556 66.6693C147.691 66.8043 147.798 66.9641 147.878 67.1432C147.958 67.3223 147.997 67.5179 147.997 67.7245C147.997 67.9311 147.958 68.124 147.878 68.3031C147.801 68.4821 147.694 68.6419 147.556 68.7769C147.418 68.9119 147.261 69.0194 147.079 69.0965C146.897 69.1737 146.702 69.215 146.498 69.215C146.291 69.215 146.096 69.1737 145.917 69.0965C145.738 69.0194 145.578 68.9119 145.446 68.7769C145.313 68.6419 145.206 68.4849 145.126 68.3031C145.049 68.124 145.01 67.9311 145.01 67.7245ZM145.181 67.7273C145.181 67.9091 145.214 68.0799 145.286 68.2424C145.355 68.405 145.448 68.5427 145.57 68.664C145.688 68.7852 145.829 68.8789 145.986 68.9505C146.145 69.0221 146.316 69.0579 146.498 69.0579C146.68 69.0579 146.851 69.0221 147.016 68.9505C147.178 68.8816 147.319 68.7852 147.44 68.664C147.561 68.5455 147.658 68.405 147.727 68.2424C147.796 68.0799 147.831 67.9091 147.831 67.7245C147.831 67.5427 147.796 67.3691 147.727 67.2065C147.655 67.044 147.561 66.9035 147.44 66.7823C147.322 66.6638 147.178 66.5674 147.019 66.4957C146.859 66.4269 146.685 66.3883 146.503 66.3883C146.322 66.3883 146.148 66.4241 145.988 66.4957C145.829 66.5646 145.688 66.661 145.567 66.7823C145.448 66.9035 145.352 67.044 145.283 67.2065C145.214 67.3718 145.181 67.5427 145.181 67.7273Z" fill="#191919"/>
<path d="M151.118 66.2616V69.3142C150.961 69.1186 150.785 68.9064 150.589 68.675C150.394 68.4436 150.195 68.2094 149.997 67.9697C149.798 67.73 149.603 67.4959 149.418 67.2644C149.231 67.0358 149.066 66.8236 148.922 66.6335L148.845 66.5261L148.856 66.6583V69.1819H148.683V66.1238C148.842 66.325 149.019 66.5399 149.209 66.7713C149.399 67.0027 149.595 67.2369 149.793 67.4738C149.991 67.7107 150.187 67.9422 150.374 68.1708C150.562 68.3995 150.732 68.6117 150.884 68.8017L150.964 68.9092L150.953 68.7769V66.2561H151.118V66.2616Z" fill="#191919"/>
<path d="M103.978 89.123L105.799 89.0817C106.983 89.0569 107.862 89.4508 107.89 90.7099C107.915 91.9111 107.033 92.4869 105.876 92.5089L105.013 92.5282L105.058 94.5174L104.096 94.5394L103.978 89.123ZM105.774 91.743C106.587 91.7238 106.961 91.3932 106.945 90.732C106.928 90.0515 106.518 89.8366 105.733 89.8558L104.953 89.8724L104.997 91.7623L105.774 91.743Z" fill="white"/>
<path d="M112.21 94.005L110.81 92.0324L109.998 92.1233L110.237 94.2309L109.281 94.3383L108.667 88.9632L110.474 88.7566C111.593 88.6271 112.502 88.9247 112.64 90.1231C112.733 90.9469 112.362 91.4896 111.736 91.7872L113.276 93.8865L112.21 94.005ZM109.907 91.3684L110.664 91.283C111.406 91.2004 111.764 90.8422 111.695 90.2306C111.626 89.6134 111.204 89.4454 110.466 89.5308L109.711 89.6162L109.907 91.3684Z" fill="white"/>
<path d="M113.307 88.3792L116.486 87.7125L116.651 88.5059L114.411 88.9743L114.695 90.3242L116.596 89.9248L116.764 90.7155L114.863 91.115L115.191 92.6743L117.511 92.1894L117.676 92.9801L114.42 93.6634L113.307 88.3792Z" fill="white"/>
<path d="M117.358 87.4645L118.361 87.156L120.083 89.4096L120.725 90.2829L120.755 90.2747L120.791 89.1864L120.912 86.3625L121.926 86.0484L123.527 91.2196L122.667 91.4869L121.935 89.1231C121.786 88.6437 121.645 87.9301 121.546 87.4452L121.513 87.4562L121.458 88.7649L121.29 91.385L120.871 91.5172L119.251 89.4454L118.474 88.3957L118.444 88.404C118.628 88.8668 118.915 89.5308 119.064 90.0129L119.797 92.3768L118.959 92.6357L117.358 87.4645Z" fill="white"/>
<path d="M123.166 85.6186L124.075 85.3127L125.811 90.4234L124.902 90.732L123.166 85.6186Z" fill="white"/>
<path d="M125.277 84.8886L126.183 84.5745L127.197 87.5141C127.58 88.6217 128.128 88.8421 128.745 88.63C129.371 88.4151 129.674 87.8971 129.291 86.7896L128.274 83.8499L129.15 83.5496L130.14 86.4176C130.718 88.0982 130.197 89.0129 129.015 89.4206C127.828 89.8339 126.842 89.4372 126.263 87.7566L125.277 84.8886Z" fill="white"/>
<path d="M130.458 83.084L131.459 82.7588L133.214 84.9877L133.872 85.85L133.902 85.839L133.922 84.7535L133.996 81.9268L135.002 81.599L136.682 86.7399L135.825 87.0209L135.057 84.6736C134.9 84.1915 134.748 83.4834 134.641 82.9986L134.61 83.0096L134.575 84.3182L134.451 86.9438L134.035 87.0815L132.382 85.0373L131.591 83.9987L131.558 84.0097C131.751 84.467 132.045 85.1282 132.202 85.6103L132.971 87.9576L132.136 88.2304L130.458 83.084Z" fill="white"/>
<path d="M144.411 85.9355C144.257 86.0595 143.968 86.2028 143.609 86.2965C142.571 86.5665 141.711 86.2083 141.174 85.5278C139.995 85.6187 138.997 84.8308 138.606 83.3182C138.168 81.6294 138.854 80.3869 140.212 80.0342C141.579 79.6816 142.783 80.4365 143.218 82.1253C143.596 83.5772 143.152 84.7343 142.152 85.2523C142.499 85.6049 143.014 85.6518 143.518 85.5223C143.75 85.4644 143.926 85.3735 144.064 85.2881L144.411 85.9355ZM141.408 84.6489C142.229 84.4368 142.565 83.5496 142.259 82.3732C141.956 81.2051 141.246 80.6293 140.422 80.8442C139.598 81.0563 139.256 81.9049 139.559 83.073C139.863 84.2467 140.584 84.8638 141.408 84.6489Z" fill="white"/>
<path d="M143.786 79.2406L144.728 79.0643L145.301 82.1197C145.519 83.274 146.028 83.5716 146.673 83.4503C147.323 83.3291 147.701 82.8635 147.48 81.7064L146.907 78.6538L147.819 78.483L148.381 81.4667C148.709 83.2162 148.056 84.0454 146.83 84.2769C145.593 84.5083 144.678 83.9738 144.35 82.2243L143.786 79.2406Z" fill="white"/>
<path d="M152.312 81.8939L150.51 82.0895L150.249 83.591L149.271 83.6984L150.441 78.125L151.56 78.0037L153.899 83.1915L152.888 83.3017L152.312 81.8939ZM152.017 81.1693L151.756 80.5301C151.53 79.9819 151.298 79.384 151.075 78.8082L151.042 78.8137C150.959 79.4281 150.871 80.0535 150.758 80.6403L150.64 81.3181L152.017 81.1693Z" fill="white"/>
<path d="M154.339 77.7805L155.301 77.7612L155.403 82.3622L157.645 82.3126L157.662 83.1226L154.458 83.1915L154.339 77.7805Z" fill="white"/>
<path d="M158.655 77.7833L159.611 77.8219L159.401 83.2135L158.442 83.1749L158.655 77.7833Z" fill="white"/>
<path d="M162.275 78.8082L160.724 78.6511L160.804 77.8467L164.853 78.2544L164.771 79.0589L163.228 78.9019L162.768 83.467L161.815 83.3733L162.275 78.8082Z" fill="white"/>
<path d="M166.252 81.9489L165.343 78.2902L166.346 78.4996L166.641 79.968C166.715 80.3951 166.792 80.7945 166.87 81.2326L166.903 81.2381C167.156 80.8689 167.404 80.5383 167.638 80.1719L168.492 78.9404L169.473 79.1388L167.192 82.1418L166.787 84.1117L165.847 83.9188L166.252 81.9489Z" fill="white"/>
</svg>
