<svg width="270" height="100" viewBox="0 0 270 100" fill="none" xmlns="http://www.w3.org/2000/svg">
<path d="M102.861 15.3472C102.769 15.3472 102.679 15.2996 102.626 15.2184C102.542 15.0896 102.579 14.9159 102.71 14.8319C103.867 14.0897 108.306 12.0311 112.437 11.3281C112.597 11.3057 112.734 11.4065 112.759 11.5577C112.785 11.709 112.684 11.8546 112.53 11.8798C108.48 12.5688 104.139 14.5798 103.01 15.2996C102.965 15.3332 102.912 15.3472 102.861 15.3472Z" fill="#191919"/>
<path d="M96.484 22.9234C96.4448 22.9234 96.4056 22.915 96.3664 22.8982C96.2264 22.8338 96.1647 22.6685 96.2292 22.5257C96.865 21.1505 97.0218 19.5792 96.6773 18.1032C96.6409 17.952 96.7361 17.8007 96.8846 17.7671C97.047 17.7279 97.1842 17.8259 97.2206 17.9744C97.596 19.5708 97.4223 21.2709 96.7361 22.7609C96.6913 22.8618 96.5905 22.9234 96.484 22.9234Z" fill="#191919"/>
<path d="M91.5371 32.2024C91.4839 32.2024 91.4307 32.1884 91.3831 32.1548C91.2542 32.068 91.2178 31.8943 91.3046 31.7655C93.0019 29.2056 95.1642 27.1638 97.388 26.0154C97.5225 25.9454 97.6961 25.9986 97.7661 26.1359C97.8361 26.2731 97.7829 26.4412 97.6457 26.514C95.5031 27.6203 93.4165 29.5949 91.7724 32.0764C91.7164 32.1604 91.6295 32.2024 91.5371 32.2024Z" fill="#191919"/>
<path d="M89.7312 38.7704C89.5744 38.762 89.4483 38.6444 89.4511 38.4875C89.4819 36.0872 89.0422 33.6365 88.1796 31.4014C88.1235 31.2558 88.1964 31.0962 88.3392 31.0401C88.4849 30.9841 88.6445 31.0541 88.7005 31.1998C89.5884 33.5049 90.0421 36.0256 90.0113 38.4959C90.0085 38.65 89.8853 38.7704 89.7312 38.7704Z" fill="#191919"/>
<path d="M89.0982 54.2924C88.9861 54.2924 88.8797 54.2252 88.8377 54.1131C88.1683 52.3682 86.95 50.825 85.4039 49.7719C85.2751 49.6851 85.2415 49.5114 85.3311 49.3826C85.4179 49.2509 85.5916 49.2201 85.7204 49.3097C87.3589 50.4245 88.65 52.0601 89.3614 53.9143C89.4175 54.0571 89.3446 54.2196 89.199 54.2756C89.1654 54.2868 89.1318 54.2924 89.0982 54.2924Z" fill="#191919"/>
<path d="M89.1398 52.8023C89.1314 52.8023 89.1202 52.7995 89.1118 52.7995C88.9577 52.7827 88.8457 52.6455 88.8625 52.4914C89.2322 48.912 90.5794 45.5062 92.7584 42.6466C92.8509 42.5233 93.0245 42.5009 93.1505 42.5934C93.2738 42.6886 93.2962 42.8622 93.2038 42.9855C91.0863 45.7667 89.7784 49.0716 89.4199 52.5475C89.4031 52.6959 89.2826 52.8023 89.1398 52.8023Z" fill="#191919"/>
<path d="M93.5066 69.6633C93.3862 69.6633 93.2742 69.5849 93.2377 69.4645C92.4199 66.7337 92.4087 63.7228 93.2069 60.9892C93.2517 60.8408 93.4058 60.7595 93.5542 60.7988C93.7027 60.8436 93.7867 60.9976 93.7447 61.1461C92.9773 63.7788 92.9857 66.6749 93.7727 69.3048C93.8175 69.4533 93.7335 69.6101 93.585 69.6521C93.5598 69.6577 93.5318 69.6633 93.5066 69.6633Z" fill="#191919"/>
<path d="M96.0383 73.8896C95.971 73.8896 95.9066 73.8672 95.8506 73.8196C93.9881 72.1531 91.9127 70.7275 89.6832 69.5876C89.546 69.5176 89.49 69.3467 89.5628 69.2123C89.6328 69.075 89.8037 69.019 89.9381 69.0891C92.2124 70.2542 94.327 71.705 96.2259 73.4023C96.3408 73.5059 96.3491 73.6824 96.2483 73.8C96.1923 73.856 96.1167 73.8896 96.0383 73.8896Z" fill="#191919"/>
<path d="M105.72 84.5077C105.639 84.5077 105.555 84.4713 105.502 84.4012C103.917 82.4071 102.847 80.0236 102.404 77.5112C102.379 77.36 102.48 77.2144 102.634 77.1863C102.791 77.1639 102.931 77.262 102.959 77.4132C103.385 79.8359 104.415 82.1298 105.942 84.0539C106.04 84.1744 106.017 84.3509 105.897 84.4461C105.844 84.4853 105.782 84.5077 105.72 84.5077Z" fill="#191919"/>
<path d="M110.303 88.1431C110.278 88.1431 110.25 88.1403 110.224 88.1319C107.914 87.4541 105.449 87.37 103.096 87.877C102.956 87.9078 102.797 87.8126 102.763 87.6613C102.729 87.5101 102.825 87.3616 102.979 87.328C105.421 86.7959 107.981 86.8883 110.381 87.5913C110.53 87.6361 110.617 87.7902 110.572 87.9386C110.535 88.0646 110.423 88.1431 110.303 88.1431Z" fill="#191919"/>
<path d="M118.753 92.7952C118.686 92.7952 118.616 92.77 118.563 92.7196C116.916 91.182 115.695 89.2298 115.028 87.0732C114.983 86.9247 115.067 86.7707 115.213 86.7231C115.361 86.6838 115.518 86.7623 115.563 86.9079C116.199 88.9693 117.37 90.8347 118.944 92.3079C119.056 92.4143 119.061 92.5908 118.958 92.7056C118.902 92.7644 118.829 92.7952 118.753 92.7952Z" fill="#191919"/>
<path d="M119.882 97.3548C119.79 97.3548 119.7 97.3072 119.647 97.226C119.563 97.0972 119.599 96.9235 119.731 96.8395C120.831 96.1337 124.517 95.0946 127.178 95.1394C127.332 95.1422 127.455 95.2711 127.453 95.4251C127.447 95.5791 127.324 95.6996 127.172 95.6996C127.111 95.6772 127.046 95.6968 126.985 95.6968C124.52 95.6968 121.055 96.6546 120.033 97.31C119.986 97.3408 119.932 97.3548 119.882 97.3548Z" fill="#191919"/>
<path d="M114.017 11.454C114.017 11.9974 113.577 12.4399 113.031 12.4399C112.487 12.4399 112.045 12.0002 112.045 11.454C112.045 10.9079 112.485 10.4681 113.031 10.4681C113.574 10.4681 114.017 10.9079 114.017 11.454Z" fill="#191919"/>
<path d="M90.3272 69.2993C90.3272 69.8426 89.8875 70.2851 89.3413 70.2851C88.798 70.2851 88.3555 69.8454 88.3555 69.2993C88.3555 68.7559 88.7952 68.3134 89.3413 68.3134C89.8847 68.3162 90.3272 68.7559 90.3272 69.2993Z" fill="#191919"/>
<path d="M120.551 97.0748C120.551 97.6182 120.111 98.0607 119.565 98.0607C119.022 98.0607 118.579 97.621 118.579 97.0748C118.579 96.5315 119.019 96.089 119.565 96.089C120.111 96.089 120.551 96.5315 120.551 97.0748Z" fill="#191919"/>
<path d="M98.2176 17.1425C98.2176 17.8567 97.6406 18.4337 96.9264 18.4337C96.2122 18.4337 95.6353 17.8567 95.6353 17.1425C95.6353 16.4283 96.2122 15.8513 96.9264 15.8513C97.6406 15.8513 98.2176 16.4283 98.2176 17.1425Z" fill="#191919"/>
<path d="M94.6576 42.1145C94.6576 42.8287 94.0806 43.4057 93.3664 43.4057C92.6522 43.4057 92.0752 42.8287 92.0752 42.1145C92.0752 41.4031 92.6522 40.8234 93.3664 40.8234C94.0806 40.8262 94.6576 41.4031 94.6576 42.1145Z" fill="#191919"/>
<path d="M102.587 78.1834C103.3 78.1834 103.878 77.6053 103.878 76.8922C103.878 76.1791 103.3 75.601 102.587 75.601C101.873 75.601 101.295 76.1791 101.295 76.8922C101.295 77.6053 101.873 78.1834 102.587 78.1834Z" fill="#191919"/>
<path d="M98.8308 25.9371C98.8308 26.5785 98.3126 27.0966 97.6713 27.0966C97.0299 27.0966 96.5117 26.5785 96.5117 25.9371C96.5117 25.2957 97.0299 24.7775 97.6713 24.7775C98.3126 24.7775 98.8308 25.2985 98.8308 25.9371Z" fill="#191919"/>
<path d="M85.8772 48.9877C85.8772 49.6291 85.359 50.1472 84.7176 50.1472C84.0763 50.1472 83.5581 49.6291 83.5581 48.9877C83.5581 48.3463 84.0763 47.8281 84.7176 47.8281C85.359 47.8281 85.8772 48.3463 85.8772 48.9877Z" fill="#191919"/>
<path d="M103.855 87.5128C103.855 88.1542 103.337 88.6724 102.696 88.6724C102.054 88.6724 101.536 88.1542 101.536 87.5128C101.536 86.8714 102.054 86.3533 102.696 86.3533C103.337 86.3533 103.855 86.8714 103.855 87.5128Z" fill="#191919"/>
<path d="M87.9862 31.8804C88.5617 31.8804 89.0281 31.4139 89.0281 30.8385C89.0281 30.263 88.5617 29.7966 87.9862 29.7966C87.4108 29.7966 86.9443 30.263 86.9443 30.8385C86.9443 31.4139 87.4108 31.8804 87.9862 31.8804Z" fill="#191919"/>
<path d="M94.6297 60.541C94.6297 61.118 94.162 61.5829 93.5878 61.5829C93.0108 61.5829 92.5459 61.1152 92.5459 60.541C92.5459 59.964 93.0136 59.4991 93.5878 59.4991C94.162 59.4963 94.6297 59.964 94.6297 60.541Z" fill="#191919"/>
<path d="M115.184 87.7313C115.76 87.7313 116.226 87.2648 116.226 86.6894C116.226 86.114 115.76 85.6475 115.184 85.6475C114.609 85.6475 114.143 86.114 114.143 86.6894C114.143 87.2648 114.609 87.7313 115.184 87.7313Z" fill="#191919"/>
<path d="M106.905 12.0702C110.933 9.67834 117.926 7.97265 121.136 7.03998C124.346 6.10731 125.461 5.19985 125.279 4.23917C125.046 3.01241 120.82 3.15807 117.635 4.53046C111.683 7.09881 106.905 12.0702 106.905 12.0702Z" fill="#191919"/>
<path d="M101.295 16.5514C102.578 14.2184 102.287 11.9413 104.564 8.26663C106.841 4.59197 111.798 -0.485908 112.966 0.0378433C114.134 0.564396 110.846 5.66748 108.474 8.8492C105.732 12.5239 101.295 16.5514 101.295 16.5514Z" fill="#191919"/>
<path d="M97.4248 20.9768C97.4248 20.9768 101.368 18.9155 107.015 18.6074C114.924 18.1788 118.901 14.3781 118.173 13.5323C117.386 12.6136 115.417 14.1008 110.998 14.9327C106.578 15.7645 100.758 16.77 97.4248 20.9768Z" fill="#191919"/>
<path d="M90.955 32.9615C90.6497 30.5556 89.8598 27.5335 89.9047 24.954C89.9663 21.2765 91.0642 18.1732 91.4367 16.9016C92.0501 14.801 91.5459 13.8291 92.3554 13.5743C93.0556 13.3558 94.1059 14.9299 93.9742 17.6018C93.8678 19.7473 92.7643 23.1306 92.2237 25.6094C91.4787 29.0236 91.8736 31.6059 90.955 32.9615Z" fill="#191919"/>
<path d="M89.084 42.501C90.5292 39.6553 93.0443 37.3867 95.9432 35.4989C101.59 31.8243 104.741 27.2253 104.259 26.2226C103.69 25.0407 98.4807 28.6706 95.2878 31.9111C93.2656 33.9613 89.7394 37.2494 89.084 42.501Z" fill="#191919"/>
<path d="M88.8151 50.0995C88.0561 46.1308 85.3645 42.8678 84.2554 39.0167C83.1463 35.1656 83.0286 31.7234 83.7288 31.2557C84.429 30.788 86.1796 34.9892 86.9974 38.4902C87.818 41.9912 88.8151 50.0995 88.8151 50.0995Z" fill="#191919"/>
<path d="M90.454 61.0507C90.5408 58.4684 91.6472 55.6143 93.3165 53.3989C97.8678 47.3603 98.3495 43.6829 97.8678 43.4224C96.9967 42.9463 93.4985 46.6629 91.5744 50.6877C88.8268 56.4322 90.454 61.0507 90.454 61.0507Z" fill="#191919"/>
<path d="M92.3917 66.8232C90.4087 64.3725 86.44 61.4961 84.4906 58.8549C81.6898 55.0626 80.6395 51.4439 81.1073 50.8026C81.575 50.1612 84.1797 52.3178 86.9413 56.3454C89.7422 60.4318 92.3917 66.8232 92.3917 66.8232Z" fill="#191919"/>
<path d="M98.8448 54.9451C99.7802 55.1159 99.9035 59.1519 99.2033 62.5941C98.5031 66.0363 97.2119 71.7499 99.4862 78.2282C99.4862 78.2282 95.4026 74.7272 95.4586 67.6663C95.4782 65.294 95.9823 63.0506 96.3912 61.132C96.831 59.0959 97.562 54.7126 98.8448 54.9451Z" fill="#191919"/>
<path d="M86.9414 72.3912C86.0507 73.1334 90.3836 78.4018 94.2935 80.4436C98.2035 82.4854 103.038 83.4376 107.18 85.6559C107.18 85.6559 101.015 80.0738 95.8088 76.7689C90.955 73.6852 87.6416 71.8086 86.9414 72.3912Z" fill="#191919"/>
<path d="M105.382 69.8256C104.303 70.0804 105.032 76.1274 105.964 79.452C106.897 82.7793 108.239 86.7453 112.034 88.8459C112.034 88.8459 110.866 86.9778 110.224 84.2946C109.583 81.6114 109.698 79.8021 108.942 77.1749C108.183 74.5505 106.606 69.5343 105.382 69.8256Z" fill="#191919"/>
<path d="M120.492 93.0473C117.341 92.756 114.717 93.1649 112.499 93.9211C110.28 94.6801 103.623 96.4503 103.396 94.9714C103.278 94.2124 107.471 91.6385 111.087 91.3248C115.77 90.9215 120.492 93.0473 120.492 93.0473Z" fill="#191919"/>
<path d="M119.327 83.5945C118.568 83.7682 119.795 88.3223 121.427 90.5966C122.752 92.4423 124.169 94.7389 129.947 96.1393C129.947 96.1393 126.914 94.9126 125.396 92.4059C123.878 89.8964 123.763 88.496 122.537 86.4542C121.31 84.4124 119.974 83.4461 119.327 83.5945Z" fill="#191919"/>
<path d="M125.279 99.8168C126.038 100.808 130.18 97.4837 132.749 96.8395C131.071 96.2905 128.931 96.7583 127.41 97.4781C125.861 98.2119 125.046 99.5143 125.279 99.8168Z" fill="#191919"/>
<path opacity="0.8" d="M117.635 4.88057C120.587 3.6062 124.528 3.38211 125.281 4.32879C125.279 4.29798 125.287 4.26998 125.279 4.23917C125.046 3.01241 120.82 3.15807 117.635 4.53046C114.162 6.0289 111.123 8.32555 109.166 9.99764C111.244 8.41518 114.299 6.32018 117.635 4.88057Z" fill="#191919"/>
<path opacity="0.8" d="M104.696 8.71757C106.933 5.10173 112.031 -0.00975559 113.064 0.203106C113.028 0.152691 113.025 0.0658716 112.966 0.0378635C111.798 -0.488689 106.838 4.58919 104.564 8.26666C103.379 10.1796 102.892 11.7116 102.514 13.0728C103.015 11.8237 103.637 10.4261 104.696 8.71757Z" fill="#191919"/>
<path opacity="0.8" d="M110.997 15.2828C115.109 14.5098 117.271 13.1206 118.19 13.6639C118.176 13.6247 118.201 13.5631 118.173 13.5323C117.386 12.6136 115.417 14.1008 110.997 14.9327C108.328 15.434 105.155 16.0138 102.323 17.3078C105.188 16.1903 108.379 15.7757 110.997 15.2828Z" fill="#191919"/>
<path opacity="0.8" d="M91.6099 17.3385C92.4417 15.0195 91.7191 14.3109 92.5285 14.056C93.2287 13.8375 93.7973 15.4564 93.6657 18.1256C93.6012 19.4363 93.2736 21.1448 92.9067 22.8421C93.3968 20.9628 93.9009 19.0162 93.971 17.6018C94.1026 14.9326 93.0523 13.3558 92.3521 13.5742C91.5398 13.8263 92.0468 14.801 91.4334 16.9016C91.0637 18.1732 89.963 21.2765 89.9014 24.9539C89.9014 25.0128 89.9098 25.0744 89.9098 25.1332C90.0078 21.5341 91.1701 18.5653 91.6099 17.3385Z" fill="#191919"/>
<path opacity="0.8" d="M95.5931 32.1744C98.3379 29.3903 102.617 26.2394 104.133 26.1554C103.259 25.36 98.3603 28.7938 95.2878 31.9139C94.1675 33.051 92.5906 34.5914 91.291 36.6164C92.7923 34.7175 94.5288 33.2555 95.5931 32.1744Z" fill="#191919"/>
<path opacity="0.8" d="M83.776 31.9559C84.3838 31.5498 85.885 34.6419 86.8093 37.7536C85.9382 34.429 84.3838 30.8216 83.7312 31.2557C83.3531 31.5078 83.2214 32.6533 83.3503 34.247C83.3306 33.0314 83.4679 32.1604 83.776 31.9559Z" fill="#191919"/>
<path opacity="0.8" d="M91.5648 51.2535C93.4889 47.5313 96.7239 43.8398 97.9422 43.5709C97.9198 43.5149 97.903 43.4393 97.8666 43.4197C96.9955 42.9435 93.4973 46.6602 91.5732 50.685C91.0886 51.6989 90.7777 52.6567 90.5312 53.5838C90.8029 52.8584 91.1334 52.0882 91.5648 51.2535Z" fill="#191919"/>
<path opacity="0.8" d="M81.107 51.1527C81.5719 50.5141 85.367 54.2168 88.1286 58.2275C87.7393 57.5721 87.3444 56.9335 86.9411 56.3454C84.1795 52.3178 81.5719 50.1612 81.107 50.8026C81.0229 50.9202 81.0061 51.1639 81.0229 51.4608C81.037 51.3347 81.0594 51.2171 81.107 51.1527Z" fill="#191919"/>
<path opacity="0.8" d="M96.5559 61.583C97.3597 58.7962 97.8695 55.368 98.7434 55.4996C99.6816 55.6396 99.3035 60.1461 98.917 63.6388C98.8722 64.0477 98.8162 64.4622 98.7574 64.8823C98.9086 64.0477 99.0654 63.2662 99.2027 62.5941C99.9029 59.1519 99.7797 55.1159 98.8442 54.9451C97.5614 54.7126 96.8304 59.0959 96.3935 61.1292C96.1974 62.0423 95.9846 63.0338 95.8081 64.0729C96.0574 63.2046 96.3291 62.3672 96.5559 61.583Z" fill="#191919"/>
<path opacity="0.8" d="M98.3936 78.5363C97.5253 77.9117 96.657 77.3067 95.8112 76.7661C90.9546 73.6825 87.6412 71.8059 86.941 72.3913C86.8822 72.4389 86.9046 72.5537 86.8906 72.6349C88.0922 72.5033 93.5986 75.6626 98.3936 78.5363Z" fill="#191919"/>
<path opacity="0.8" d="M105.438 70.5538C106.488 70.2906 108.188 75.1472 108.852 77.2926C109.09 78.0628 109.272 78.7798 109.44 79.4828C109.322 78.7574 109.182 78.0124 108.939 77.175C108.18 74.5478 106.606 69.5315 105.379 69.8228C104.833 69.9517 104.751 71.5677 104.925 73.5591C104.833 71.9346 104.95 70.6771 105.438 70.5538Z" fill="#191919"/>
<path opacity="0.8" d="M111.434 91.4732C111.983 91.3752 112.476 91.3416 112.978 91.2968C112.353 91.2716 111.723 91.2715 111.087 91.3275C107.471 91.6412 103.278 94.2152 103.396 94.9742C103.404 95.0274 103.477 95.047 103.502 95.0946C104.057 94.1648 108.149 92.0586 111.434 91.4732Z" fill="#191919"/>
<path opacity="0.8" d="M119.327 84.2358C119.977 84.0874 121.31 85.0537 122.537 87.0955C123.509 88.7143 123.982 89.8206 124.881 91.4479C123.873 89.5294 123.59 88.2073 122.537 86.4512C121.31 84.4094 119.977 83.4432 119.327 83.5916C119.12 83.6392 119.072 84.0286 119.128 84.5887C119.156 84.4039 119.212 84.2638 119.327 84.2358Z" fill="#191919"/>
<path opacity="0.8" d="M127.407 97.831C127.956 97.4809 128.645 97.1308 129.362 96.8367C128.665 96.9964 127.987 97.2092 127.407 97.4809C125.861 98.2119 125.046 99.5143 125.276 99.8168C125.29 99.8364 125.323 99.828 125.34 99.8448C125.584 99.3266 126.516 98.3996 127.407 97.831Z" fill="#191919"/>
<path d="M104.993 13.815C103.755 14.8317 102.273 16.1061 100.769 17.7586C99.2173 19.3606 97.6685 21.3604 96.1756 23.6543C95.383 24.7718 94.764 26.063 94.0022 27.3289C93.3188 28.6341 92.7446 30.0541 92.0921 31.4825C91.6243 32.981 91.0361 34.4906 90.63 36.0871C90.3247 37.7087 89.8262 39.3332 89.6581 41.0417C89.1876 44.4447 89.0952 48.0101 89.3333 51.6148C89.5489 53.3989 89.6525 55.2558 89.9634 57.0175C90.378 58.8129 90.7953 60.6138 91.2126 62.4147L93.1255 67.5402C93.9714 69.1562 94.8116 70.7667 95.6463 72.366C96.6742 73.8448 97.6769 75.3292 98.7188 76.7549C99.9035 78.0656 101.004 79.424 102.211 80.6452C103.497 81.7851 104.673 83.0063 105.978 84.0201C107.317 84.992 108.538 86.0647 109.883 86.8882C112.51 88.6303 115.123 90.0755 117.613 91.2406C122.598 93.5821 127.021 94.8985 130.135 95.6211C131.698 95.9796 132.931 96.1813 133.771 96.2933C134.589 96.3605 135.026 96.3969 135.026 96.3969L135.118 96.4053C135.426 96.4305 135.653 96.6994 135.628 97.0075C135.603 97.3156 135.334 97.5425 135.026 97.5173H135.023C135.023 97.5173 134.538 97.4752 133.631 97.3968C132.754 97.2736 131.477 97.0551 129.889 96.6798C126.713 95.918 122.232 94.554 117.185 92.1425C114.661 90.9409 112.017 89.4537 109.356 87.6668C107.995 86.821 106.757 85.7203 105.404 84.7232C104.082 83.6813 102.889 82.4321 101.592 81.2613C100.374 80.0094 99.2565 78.6174 98.0606 77.273C97.0103 75.8138 95.9964 74.2957 94.9601 72.7805C94.1198 71.1476 93.274 69.5007 92.4253 67.8483L90.504 62.5771C90.0979 60.7734 89.6946 58.9697 89.2912 57.1716C88.9579 55.3146 88.8263 53.4941 88.5882 51.6708C88.3025 48.0213 88.3474 44.3971 88.7843 40.9213C88.9327 39.1764 89.4285 37.5127 89.7254 35.8546C90.1259 34.2189 90.714 32.6673 91.179 31.1296C91.8316 29.662 92.4085 28.2028 93.0975 26.8556C93.8734 25.5588 94.4643 24.2032 95.3298 23.0913C96.9206 20.7806 98.5563 18.7837 100.184 17.19C101.758 15.5487 103.301 14.2912 104.586 13.2913C107.975 10.8826 112.345 8.31423 112.611 8.57751C112.667 8.63913 107.004 12.0253 104.993 13.815Z" fill="#191919"/>
<path d="M167.722 15.3473C167.815 15.3473 167.904 15.2997 167.957 15.2185C168.042 15.0896 168.005 14.916 167.873 14.8319C166.717 14.0897 162.275 12.0311 158.146 11.3281C157.987 11.3057 157.849 11.4065 157.824 11.5578C157.799 11.709 157.9 11.8547 158.054 11.8799C162.104 12.5689 166.445 14.5799 167.574 15.2997C167.619 15.3333 167.672 15.3473 167.722 15.3473Z" fill="#191919"/>
<path d="M174.1 22.9234C174.139 22.9234 174.178 22.915 174.218 22.8982C174.358 22.8338 174.419 22.6685 174.355 22.5257C173.719 21.1505 173.562 19.5792 173.907 18.1032C173.943 17.952 173.848 17.8007 173.699 17.7671C173.537 17.7279 173.4 17.8259 173.363 17.9744C172.988 19.5708 173.162 21.2709 173.848 22.7609C173.893 22.8618 173.994 22.9234 174.1 22.9234Z" fill="#191919"/>
<path d="M179.045 32.2024C179.099 32.2024 179.152 32.1884 179.2 32.1548C179.328 32.068 179.365 31.8943 179.278 31.7655C177.581 29.2056 175.421 27.1638 173.195 26.0154C173.06 25.9454 172.886 25.9986 172.816 26.1359C172.746 26.2731 172.8 26.4412 172.937 26.514C175.08 27.6203 177.166 29.5949 178.81 32.0764C178.866 32.1604 178.956 32.2024 179.045 32.2024Z" fill="#191919"/>
<path d="M180.852 38.7704C181.009 38.762 181.135 38.6444 181.132 38.4876C181.102 36.0873 181.541 33.6365 182.404 31.4015C182.46 31.2559 182.387 31.0962 182.244 31.0402C182.099 30.9842 181.939 31.0542 181.883 31.1998C180.995 33.5049 180.541 36.0257 180.572 38.496C180.575 38.65 180.701 38.7704 180.852 38.7704Z" fill="#191919"/>
<path d="M181.485 54.2924C181.597 54.2924 181.704 54.2252 181.746 54.1131C182.415 52.3682 183.633 50.825 185.18 49.7719C185.308 49.6851 185.342 49.5114 185.252 49.3826C185.166 49.2509 184.992 49.2201 184.863 49.3097C183.225 50.4245 181.933 52.0601 181.222 53.9143C181.166 54.0571 181.239 54.2196 181.384 54.2756C181.418 54.2868 181.452 54.2924 181.485 54.2924Z" fill="#191919"/>
<path d="M181.443 52.8024C181.452 52.8024 181.463 52.7996 181.471 52.7996C181.626 52.7828 181.738 52.6455 181.721 52.4915C181.351 48.9121 180.004 45.5063 177.825 42.6466C177.732 42.5234 177.559 42.501 177.433 42.5934C177.309 42.6887 177.287 42.8623 177.379 42.9855C179.497 45.7667 180.805 49.0717 181.163 52.5475C181.18 52.696 181.301 52.8024 181.443 52.8024Z" fill="#191919"/>
<path d="M177.08 69.6633C177.2 69.6633 177.312 69.5849 177.349 69.4645C178.167 66.7337 178.178 63.7228 177.38 60.9892C177.335 60.8408 177.181 60.7595 177.032 60.7988C176.884 60.8436 176.8 60.9976 176.842 61.1461C177.609 63.7788 177.601 66.6749 176.814 69.3048C176.769 69.4533 176.853 69.6101 177.001 69.6521C177.027 69.6577 177.052 69.6633 177.08 69.6633Z" fill="#191919"/>
<path d="M174.545 73.8897C174.612 73.8897 174.676 73.8673 174.732 73.8197C176.595 72.1532 178.67 70.7276 180.9 69.5877C181.037 69.5176 181.093 69.3468 181.02 69.2123C180.95 69.0751 180.779 69.0191 180.645 69.0891C178.371 70.2543 176.256 71.7051 174.357 73.4024C174.242 73.506 174.234 73.6824 174.335 73.8001C174.391 73.8561 174.469 73.8897 174.545 73.8897Z" fill="#191919"/>
<path d="M164.862 84.5077C164.944 84.5077 165.028 84.4713 165.081 84.4013C166.666 82.4071 167.736 80.0236 168.178 77.5113C168.204 77.3601 168.103 77.2144 167.949 77.1864C167.792 77.164 167.652 77.2621 167.624 77.4133C167.198 79.836 166.167 82.1298 164.641 84.054C164.543 84.1744 164.565 84.3509 164.686 84.4461C164.739 84.4854 164.801 84.5077 164.862 84.5077Z" fill="#191919"/>
<path d="M160.281 88.1431C160.306 88.1431 160.334 88.1403 160.359 88.1319C162.67 87.4541 165.134 87.37 167.487 87.877C167.627 87.9078 167.787 87.8126 167.82 87.6613C167.854 87.5101 167.759 87.3616 167.605 87.328C165.162 86.7959 162.603 86.8883 160.202 87.5913C160.054 87.6361 159.97 87.7902 160.012 87.9386C160.048 88.0646 160.16 88.1431 160.281 88.1431Z" fill="#191919"/>
<path d="M151.83 92.7952C151.897 92.7952 151.967 92.77 152.021 92.7196C153.668 91.182 154.889 89.2298 155.555 87.0732C155.6 86.9247 155.516 86.7707 155.37 86.7231C155.222 86.6838 155.065 86.7623 155.02 86.9079C154.385 88.9693 153.214 90.8347 151.64 92.3079C151.528 92.4143 151.522 92.5908 151.626 92.7056C151.682 92.7644 151.757 92.7952 151.83 92.7952Z" fill="#191919"/>
<path d="M150.704 97.3548C150.797 97.3548 150.886 97.3072 150.94 97.226C151.024 97.0972 150.987 96.9235 150.856 96.8395C149.755 96.1337 146.069 95.0946 143.408 95.1394C143.254 95.1422 143.131 95.2711 143.134 95.4251C143.137 95.5791 143.263 95.6996 143.414 95.6996C143.476 95.6772 143.54 95.6968 143.602 95.6968C146.066 95.6968 149.531 96.6546 150.553 97.31C150.598 97.3408 150.651 97.3548 150.704 97.3548Z" fill="#191919"/>
<path d="M156.566 11.4541C156.566 11.9975 157.006 12.44 157.552 12.44C158.096 12.44 158.538 12.0003 158.538 11.4541C158.538 10.9079 158.098 10.4682 157.552 10.4682C157.009 10.4682 156.566 10.9079 156.566 11.4541Z" fill="#191919"/>
<path d="M180.259 69.2993C180.259 69.8427 180.698 70.2852 181.245 70.2852C181.788 70.2852 182.231 69.8455 182.231 69.2993C182.231 68.756 181.791 68.3134 181.245 68.3134C180.698 68.3162 180.259 68.756 180.259 69.2993Z" fill="#191919"/>
<path d="M150.033 97.0748C150.033 97.6182 150.472 98.0607 151.019 98.0607C151.562 98.0607 152.004 97.621 152.004 97.0748C152.004 96.5315 151.565 96.089 151.019 96.089C150.472 96.089 150.033 96.5315 150.033 97.0748Z" fill="#191919"/>
<path d="M172.366 17.1425C172.366 17.8568 172.943 18.4337 173.657 18.4337C174.371 18.4337 174.948 17.8568 174.948 17.1425C174.948 16.4283 174.371 15.8514 173.657 15.8514C172.943 15.8514 172.366 16.4283 172.366 17.1425Z" fill="#191919"/>
<path d="M175.926 42.1146C175.926 42.8288 176.503 43.4058 177.217 43.4058C177.931 43.4058 178.508 42.8288 178.508 42.1146C178.508 41.4032 177.931 40.8234 177.217 40.8234C176.503 40.8262 175.926 41.4032 175.926 42.1146Z" fill="#191919"/>
<path d="M166.706 76.8922C166.706 77.6065 167.283 78.1834 167.997 78.1834C168.711 78.1834 169.288 77.6065 169.288 76.8922C169.288 76.178 168.711 75.6011 167.997 75.6011C167.283 75.6011 166.706 76.1808 166.706 76.8922Z" fill="#191919"/>
<path d="M171.752 25.9371C171.752 26.5785 172.271 27.0967 172.912 27.0967C173.553 27.0967 174.071 26.5785 174.071 25.9371C174.071 25.2957 173.553 24.7776 172.912 24.7776C172.271 24.7776 171.752 25.2985 171.752 25.9371Z" fill="#191919"/>
<path d="M184.706 48.9877C184.706 49.6291 185.224 50.1472 185.866 50.1472C186.507 50.1472 187.025 49.6291 187.025 48.9877C187.025 48.3463 186.507 47.8282 185.866 47.8282C185.224 47.8282 184.706 48.3463 184.706 48.9877Z" fill="#191919"/>
<path d="M166.728 87.5128C166.728 88.1542 167.246 88.6724 167.888 88.6724C168.529 88.6724 169.047 88.1542 169.047 87.5128C169.047 86.8714 168.529 86.3533 167.888 86.3533C167.246 86.3533 166.728 86.8714 166.728 87.5128Z" fill="#191919"/>
<path d="M182.6 31.8804C183.175 31.8804 183.642 31.4139 183.642 30.8385C183.642 30.263 183.175 29.7966 182.6 29.7966C182.025 29.7966 181.558 30.263 181.558 30.8385C181.558 31.4139 182.025 31.8804 182.6 31.8804Z" fill="#191919"/>
<path d="M175.954 60.5411C175.954 61.118 176.421 61.5829 176.995 61.5829C177.572 61.5829 178.037 61.1152 178.037 60.5411C178.037 59.9641 177.57 59.4992 176.995 59.4992C176.421 59.4964 175.954 59.9641 175.954 60.5411Z" fill="#191919"/>
<path d="M155.401 87.7313C155.977 87.7313 156.443 87.2649 156.443 86.6894C156.443 86.114 155.977 85.6475 155.401 85.6475C154.826 85.6475 154.359 86.114 154.359 86.6894C154.359 87.2649 154.826 87.7313 155.401 87.7313Z" fill="#191919"/>
<path d="M163.677 12.0702C159.65 9.67834 152.656 7.97265 149.446 7.03998C146.237 6.10731 145.119 5.19985 145.304 4.23917C145.537 3.01241 149.763 3.15807 152.947 4.53046C158.902 7.09881 163.677 12.0702 163.677 12.0702Z" fill="#191919"/>
<path d="M169.287 16.5514C168.004 14.2184 168.295 11.9413 166.018 8.26663C163.741 4.59197 158.784 -0.485908 157.616 0.0378433C156.448 0.564396 159.736 5.66748 162.108 8.8492C164.853 12.5239 169.287 16.5514 169.287 16.5514Z" fill="#191919"/>
<path d="M173.158 20.9768C173.158 20.9768 169.215 18.9155 163.571 18.6074C155.661 18.1788 151.684 14.3781 152.413 13.5323C153.2 12.6136 155.169 14.1008 159.588 14.9327C164.008 15.7645 169.828 16.77 173.158 20.9768Z" fill="#191919"/>
<path d="M179.631 32.9615C179.936 30.5556 180.726 27.5335 180.681 24.954C180.619 21.2765 179.521 18.1732 179.149 16.9016C178.536 14.801 179.04 13.8291 178.23 13.5743C177.53 13.3558 176.48 14.9299 176.611 17.6018C176.718 19.7473 177.821 23.1306 178.362 25.6094C179.104 29.0236 178.712 31.6059 179.631 32.9615Z" fill="#191919"/>
<path d="M181.501 42.501C180.056 39.6553 177.541 37.3867 174.642 35.4989C168.996 31.8243 165.845 27.2253 166.327 26.2226C166.895 25.0407 172.105 28.6706 175.298 31.9111C177.317 33.9613 180.843 37.2494 181.501 42.501Z" fill="#191919"/>
<path d="M181.768 50.0995C182.527 46.1308 185.218 42.8678 186.327 39.0167C187.436 35.1656 187.554 31.7234 186.854 31.2557C186.154 30.788 184.403 34.9892 183.585 38.4902C182.767 41.9912 181.768 50.0995 181.768 50.0995Z" fill="#191919"/>
<path d="M180.132 61.0507C180.045 58.4684 178.939 55.6143 177.267 53.3989C172.715 47.3603 172.234 43.6829 172.715 43.4224C173.586 42.9463 177.085 46.6629 179.009 50.6877C181.756 56.4322 180.132 61.0507 180.132 61.0507Z" fill="#191919"/>
<path d="M178.191 66.8232C180.174 64.3725 184.143 61.4961 186.092 58.8549C188.893 55.0626 189.943 51.4439 189.475 50.8026C189.008 50.1612 186.403 52.3178 183.641 56.3454C180.84 60.4318 178.191 66.8232 178.191 66.8232Z" fill="#191919"/>
<path d="M171.738 54.9451C170.802 55.1159 170.679 59.1519 171.379 62.5941C172.079 66.0363 173.37 71.7499 171.096 78.2282C171.096 78.2282 175.18 74.7272 175.124 67.6663C175.104 65.294 174.6 63.0506 174.191 61.132C173.751 59.0959 173.02 54.7126 171.738 54.9451Z" fill="#191919"/>
<path d="M183.641 72.3912C184.532 73.1334 180.199 78.4018 176.289 80.4436C172.379 82.4854 167.545 83.4376 163.402 85.6559C163.402 85.6559 169.567 80.0738 174.774 76.7689C179.63 73.6852 182.941 71.8086 183.641 72.3912Z" fill="#191919"/>
<path d="M165.203 69.8256C166.279 70.0804 165.553 76.1274 164.621 79.452C163.688 82.7793 162.346 86.7453 158.551 88.8459C158.551 88.8459 159.719 86.9778 160.361 84.2946C161.002 81.6114 160.887 79.8021 161.643 77.1749C162.402 74.5505 163.976 69.5343 165.203 69.8256Z" fill="#191919"/>
<path d="M150.09 93.0473C153.241 92.756 155.866 93.1649 158.084 93.9211C160.302 94.6801 166.96 96.4503 167.186 94.9714C167.304 94.2124 163.111 91.6385 159.495 91.3248C154.812 90.9215 150.09 93.0473 150.09 93.0473Z" fill="#191919"/>
<path d="M151.255 83.5945C152.014 83.7682 150.788 88.3223 149.155 90.5966C147.83 92.4423 146.413 94.7389 140.635 96.1393C140.635 96.1393 143.668 94.9126 145.186 92.4059C146.704 89.8964 146.819 88.496 148.046 86.4542C149.272 84.4124 150.608 83.4461 151.255 83.5945Z" fill="#191919"/>
<path d="M145.304 99.8168C144.545 100.808 140.402 97.4837 137.834 96.8395C139.512 96.2905 141.652 96.7583 143.172 97.4781C144.721 98.2119 145.536 99.5143 145.304 99.8168Z" fill="#191919"/>
<path opacity="0.8" d="M152.95 4.88057C149.998 3.6062 146.057 3.38211 145.304 4.32879C145.307 4.29798 145.301 4.26998 145.307 4.23917C145.539 3.01241 149.765 3.15807 152.95 4.53046C156.423 6.0289 159.462 8.32555 161.42 9.99764C159.341 8.41518 156.283 6.32018 152.95 4.88057Z" fill="#191919"/>
<path opacity="0.8" d="M165.887 8.71757C163.65 5.10173 158.552 -0.00975559 157.519 0.203106C157.555 0.152691 157.558 0.0658716 157.617 0.0378635C158.785 -0.488689 163.745 4.58919 166.019 8.26666C167.204 10.1796 167.691 11.7116 168.069 13.0728C167.571 11.8237 166.946 10.4261 165.887 8.71757Z" fill="#191919"/>
<path opacity="0.8" d="M159.585 15.2828C155.473 14.5098 153.311 13.1206 152.393 13.6639C152.407 13.6247 152.381 13.5631 152.409 13.5323C153.196 12.6136 155.165 14.1008 159.585 14.9327C162.254 15.434 165.425 16.0138 168.259 17.3078C165.394 16.1903 162.204 15.7757 159.585 15.2828Z" fill="#191919"/>
<path opacity="0.8" d="M178.972 17.3385C178.141 15.0195 178.866 14.3109 178.054 14.056C177.354 13.8375 176.785 15.4564 176.917 18.1256C176.981 19.4363 177.309 21.1448 177.676 22.8421C177.186 20.9628 176.681 19.0162 176.611 17.6018C176.48 14.9326 177.53 13.3558 178.23 13.5742C179.042 13.8263 178.536 14.801 179.149 16.9016C179.519 18.1732 180.619 21.2765 180.681 24.9539C180.681 25.0128 180.673 25.0744 180.673 25.1332C180.575 21.5341 179.412 18.5653 178.972 17.3385Z" fill="#191919"/>
<path opacity="0.8" d="M174.99 32.1744C172.245 29.3903 167.965 26.2394 166.45 26.1554C167.324 25.36 172.223 28.7938 175.295 31.9139C176.415 33.051 177.992 34.5914 179.292 36.6164C177.791 34.7175 176.057 33.2555 174.99 32.1744Z" fill="#191919"/>
<path opacity="0.8" d="M186.807 31.9559C186.199 31.5498 184.695 34.6419 183.773 37.7536C184.644 34.429 186.199 30.8216 186.849 31.2557C187.23 31.5078 187.359 32.6533 187.23 34.247C187.255 33.0314 187.115 32.1604 186.807 31.9559Z" fill="#191919"/>
<path opacity="0.8" d="M179.017 51.2535C177.093 47.5313 173.858 43.8398 172.64 43.5709C172.662 43.5149 172.679 43.4393 172.715 43.4197C173.586 42.9435 177.084 46.6602 179.009 50.685C179.493 51.6989 179.804 52.6567 180.051 53.5838C179.782 52.8584 179.448 52.0882 179.017 51.2535Z" fill="#191919"/>
<path opacity="0.8" d="M189.475 51.1527C189.01 50.5141 185.215 54.2168 182.454 58.2275C182.843 57.5721 183.238 56.9335 183.638 56.3454C186.4 52.3178 189.008 50.1612 189.472 50.8026C189.556 50.9202 189.573 51.1639 189.556 51.4608C189.545 51.3347 189.523 51.2171 189.475 51.1527Z" fill="#191919"/>
<path opacity="0.8" d="M174.029 61.583C173.225 58.7962 172.715 55.368 171.841 55.4996C170.903 55.6396 171.281 60.1461 171.668 63.6388C171.712 64.0477 171.768 64.4622 171.827 64.8823C171.676 64.0477 171.519 63.2662 171.382 62.5941C170.682 59.1519 170.805 55.1159 171.741 54.9451C173.023 54.7126 173.754 59.0959 174.191 61.1292C174.387 62.0423 174.6 63.0338 174.777 64.0729C174.525 63.2046 174.256 62.3672 174.029 61.583Z" fill="#191919"/>
<path opacity="0.8" d="M172.188 78.5363C173.057 77.9117 173.925 77.3067 174.771 76.7661C179.627 73.6825 182.941 71.8059 183.641 72.3913C183.697 72.4389 183.677 72.5537 183.691 72.6349C182.49 72.5033 176.986 75.6626 172.188 78.5363Z" fill="#191919"/>
<path opacity="0.8" d="M165.145 70.5538C164.095 70.2906 162.395 75.1472 161.731 77.2926C161.493 78.0628 161.311 78.7798 161.143 79.4828C161.26 78.7574 161.4 78.0124 161.644 77.175C162.403 74.5478 163.977 69.5315 165.204 69.8228C165.75 69.9517 165.828 71.5677 165.657 73.5591C165.75 71.9346 165.632 70.6771 165.145 70.5538Z" fill="#191919"/>
<path opacity="0.8" d="M159.148 91.4732C158.596 91.3752 158.106 91.3416 157.602 91.2968C158.227 91.2716 158.857 91.2715 159.493 91.3275C163.108 91.6412 167.301 94.2152 167.184 94.9742C167.175 95.0274 167.102 95.047 167.077 95.0946C166.525 94.1648 162.433 92.0586 159.148 91.4732Z" fill="#191919"/>
<path opacity="0.8" d="M151.256 84.2358C150.609 84.0874 149.273 85.0537 148.046 87.0955C147.074 88.7143 146.601 89.8206 145.702 91.4479C146.71 89.5294 146.993 88.2073 148.046 86.4512C149.273 84.4094 150.606 83.4432 151.256 83.5916C151.463 83.6392 151.511 84.0286 151.455 84.5887C151.427 84.4039 151.37 84.2638 151.256 84.2358Z" fill="#191919"/>
<path opacity="0.8" d="M143.175 97.831C142.623 97.4809 141.937 97.1308 141.22 96.8367C141.918 96.9964 142.595 97.2092 143.175 97.4809C144.721 98.2119 145.536 99.5143 145.307 99.8168C145.293 99.8364 145.259 99.828 145.242 99.8448C144.999 99.3266 144.066 98.3996 143.175 97.831Z" fill="#191919"/>
<path d="M165.591 13.815C166.829 14.8317 168.31 16.1061 169.814 17.7586C171.366 19.3606 172.915 21.3604 174.408 23.6543C175.2 24.7718 175.822 26.063 176.581 27.3289C177.265 28.6341 177.839 30.0541 178.491 31.4825C178.959 32.981 179.547 34.4906 179.953 36.0871C180.259 37.7087 180.757 39.3332 180.922 41.0417C181.393 44.4447 181.485 48.0101 181.247 51.6148C181.032 53.3989 180.928 55.2558 180.617 57.0175C180.203 58.8129 179.785 60.6138 179.368 62.4147L177.455 67.5402C176.612 69.1562 175.769 70.7667 174.934 72.366C173.906 73.8448 172.904 75.3292 171.865 76.7549C170.68 78.0656 169.579 79.424 168.372 80.6452C167.086 81.7851 165.91 83.0063 164.605 84.0201C163.266 84.992 162.045 86.0647 160.701 86.8882C158.073 88.6303 155.46 90.0755 152.97 91.2406C147.985 93.5821 143.562 94.8985 140.448 95.6211C138.885 95.9796 137.653 96.1813 136.812 96.2933C135.995 96.3605 135.558 96.3969 135.558 96.3969L135.465 96.4053C135.157 96.4305 134.93 96.6994 134.956 97.0075C134.981 97.3156 135.25 97.5425 135.558 97.5173H135.561C135.561 97.5173 136.045 97.4752 136.953 97.3968C137.829 97.2736 139.104 97.0551 140.694 96.6798C143.871 95.918 148.352 94.554 153.399 92.1425C155.922 90.9409 158.566 89.4537 161.227 87.6668C162.588 86.821 163.826 85.7203 165.179 84.7232C166.501 83.6813 167.694 82.4321 168.991 81.2613C170.209 80.0094 171.327 78.6174 172.523 77.273C173.573 75.8138 174.587 74.2957 175.623 72.7805C176.464 71.1476 177.309 69.5007 178.158 67.8483L180.079 62.5771C180.486 60.7734 180.889 58.9697 181.292 57.1716C181.625 55.3146 181.757 53.4941 181.998 51.6708C182.284 48.0213 182.239 44.3971 181.802 40.9213C181.653 39.1764 181.158 37.5127 180.861 35.8546C180.46 34.2189 179.872 32.6673 179.407 31.1296C178.755 29.662 178.178 28.2028 177.489 26.8556C176.713 25.5588 176.122 24.2032 175.256 23.0913C173.666 20.7806 172.03 18.7837 170.405 17.19C168.831 15.5487 167.288 14.2912 166.003 13.2913C162.614 10.8826 158.244 8.31423 157.981 8.57751C157.919 8.63913 163.58 12.0253 165.591 13.815Z" fill="#191919"/>
<path d="M135.291 81.2446C118.355 81.2446 104.578 66.7168 104.578 48.8588C104.578 31.0009 118.355 16.4731 135.291 16.4731C152.228 16.4731 166.005 31.0009 166.005 48.8588C166.005 66.714 152.228 81.2446 135.291 81.2446ZM135.291 17.9323C119.119 17.9323 105.964 31.8047 105.964 48.8588C105.964 65.9102 119.119 79.7854 135.291 79.7854C151.463 79.7854 164.619 65.913 164.619 48.8588C164.619 31.8047 151.463 17.9323 135.291 17.9323Z" fill="#191919"/>
<path d="M153.318 48.4387C153.489 58.9193 145.571 67.5627 135.631 67.7447C125.69 67.9268 117.492 59.5775 117.322 49.0941C117.148 38.6135 125.069 29.9702 135.006 29.7881C144.949 29.6089 153.147 37.9581 153.318 48.4387Z" fill="#191919"/>
<path d="M135.675 66.6636C135.512 66.6636 135.38 66.5347 135.375 66.3723C135.372 66.207 135.504 66.0698 135.666 66.067C136.462 66.0502 137.263 65.9718 138.052 65.8318C138.229 65.7981 138.372 65.913 138.397 66.0726C138.425 66.2351 138.318 66.3919 138.156 66.4199C137.338 66.5656 136.506 66.6468 135.68 66.6636C135.677 66.6636 135.677 66.6636 135.675 66.6636ZM133.235 66.5348C133.224 66.5348 133.21 66.5348 133.196 66.532C132.372 66.4227 131.552 66.2519 130.756 66.0166C130.597 65.969 130.507 65.8037 130.555 65.6441C130.602 65.4873 130.765 65.3948 130.927 65.4424C131.692 65.6693 132.482 65.8345 133.271 65.9382C133.437 65.9606 133.552 66.1118 133.529 66.2743C133.512 66.4255 133.383 66.5348 133.235 66.5348ZM140.467 65.8149C140.343 65.8149 140.226 65.7365 140.184 65.6105C140.131 65.4536 140.215 65.2856 140.371 65.2324C141.119 64.9775 141.862 64.6582 142.573 64.2885C142.716 64.2101 142.901 64.2689 142.976 64.4145C143.052 64.5602 142.996 64.7422 142.847 64.8178C142.108 65.2044 141.341 65.5321 140.562 65.7981C140.531 65.8093 140.498 65.8149 140.467 65.8149ZM128.558 65.1651C128.516 65.1651 128.471 65.1568 128.432 65.1372C127.689 64.7871 126.958 64.3781 126.264 63.9188C126.127 63.8292 126.09 63.6415 126.18 63.5043C126.269 63.367 126.457 63.325 126.594 63.4203C127.264 63.8628 127.967 64.2577 128.686 64.5938C128.835 64.6638 128.899 64.8403 128.829 64.9915C128.779 65.1035 128.67 65.1651 128.558 65.1651ZM144.788 63.5687C144.696 63.5687 144.606 63.5267 144.547 63.4455C144.449 63.311 144.48 63.1234 144.612 63.0281C145.256 62.5576 145.875 62.0367 146.446 61.4793C146.57 61.3673 146.757 61.3673 146.869 61.4849C146.984 61.6025 146.981 61.793 146.864 61.9078C146.273 62.4848 145.631 63.0225 144.965 63.5127C144.912 63.5491 144.85 63.5687 144.788 63.5687ZM124.499 62.4736C124.429 62.4736 124.356 62.4484 124.3 62.3979C123.684 61.8434 123.102 61.2412 122.572 60.6082C122.466 60.4822 122.483 60.2945 122.612 60.1881C122.74 60.0845 122.928 60.0985 123.032 60.2273C123.544 60.8379 124.104 61.4177 124.698 61.9526C124.821 62.0619 124.833 62.2523 124.721 62.3756C124.665 62.4372 124.581 62.4736 124.499 62.4736ZM148.278 60.1657C148.214 60.1657 148.149 60.1461 148.096 60.1041C147.967 60.0033 147.942 59.8156 148.043 59.684C148.527 59.0538 148.978 58.3816 149.376 57.6842C149.457 57.5385 149.642 57.4909 149.785 57.5722C149.928 57.6534 149.978 57.8354 149.897 57.9811C149.485 58.7037 149.023 59.3983 148.519 60.0509C148.455 60.1265 148.368 60.1657 148.278 60.1657ZM121.368 58.7401C121.267 58.7401 121.172 58.6897 121.116 58.6001C120.679 57.9055 120.287 57.166 119.945 56.407C119.878 56.2558 119.945 56.0793 120.096 56.0093C120.248 55.9393 120.424 56.0065 120.494 56.1605C120.825 56.8972 121.203 57.6086 121.623 58.2808C121.712 58.4208 121.668 58.6057 121.528 58.6925C121.48 58.7261 121.424 58.7401 121.368 58.7401ZM150.695 55.9281C150.659 55.9281 150.62 55.9197 150.583 55.9057C150.429 55.844 150.356 55.6676 150.418 55.5164C150.715 54.7769 150.967 54.0095 151.163 53.2337C151.202 53.0713 151.376 52.9704 151.524 53.0152C151.687 53.0544 151.782 53.2169 151.743 53.3765C151.541 54.1804 151.281 54.9758 150.975 55.7404C150.928 55.8581 150.816 55.9281 150.695 55.9281ZM119.374 54.2924C119.245 54.2924 119.125 54.2084 119.088 54.0767C118.856 53.2897 118.674 52.4747 118.55 51.6512C118.525 51.4888 118.637 51.3347 118.8 51.3095C118.956 51.2703 119.116 51.3964 119.141 51.5588C119.265 52.3543 119.441 53.1413 119.665 53.9031C119.713 54.0627 119.62 54.228 119.463 54.2756C119.433 54.2868 119.402 54.2924 119.374 54.2924ZM151.891 51.2031C151.88 51.2031 151.869 51.2003 151.858 51.2003C151.692 51.1835 151.575 51.0323 151.594 50.8698C151.673 50.178 151.712 49.4722 151.712 48.7748L151.706 48.2679C151.704 48.1026 151.835 47.9682 152 47.9626H152.003C152.169 47.9626 152.3 48.0914 152.303 48.2567L152.311 48.7748C152.311 49.4946 152.269 50.2228 152.188 50.937C152.174 51.0911 152.042 51.2031 151.891 51.2031ZM118.626 49.4218C118.469 49.4218 118.34 49.3434 118.335 49.1837C118.335 49.1809 118.332 49.1305 118.332 49.1277L118.329 48.7636C118.329 48.069 118.368 47.3744 118.441 46.7022C118.458 46.537 118.595 46.4053 118.772 46.4389C118.937 46.4557 119.055 46.6042 119.035 46.7694C118.965 47.422 118.926 48.0942 118.926 48.7664L118.928 49.0717C118.928 49.2341 118.802 49.4218 118.637 49.4246C118.634 49.4218 118.629 49.4218 118.626 49.4218ZM151.779 46.1308C151.634 46.1308 151.507 46.0244 151.485 45.8788C151.359 45.0861 151.18 44.2991 150.95 43.5373C150.903 43.3776 150.992 43.2124 151.152 43.1648C151.303 43.1144 151.477 43.2068 151.524 43.3664C151.76 44.1535 151.944 44.9657 152.076 45.7863C152.101 45.9488 151.992 46.1028 151.827 46.128C151.81 46.128 151.796 46.1308 151.779 46.1308ZM119.164 44.6268C119.141 44.6268 119.116 44.624 119.094 44.6184C118.931 44.5792 118.836 44.4167 118.875 44.2571C119.071 43.4561 119.326 42.6606 119.629 41.8904C119.69 41.7364 119.864 41.6664 120.018 41.7196C120.172 41.7812 120.248 41.9548 120.189 42.1089C119.895 42.8539 119.648 43.6241 119.458 44.3971C119.421 44.5344 119.298 44.6268 119.164 44.6268ZM150.379 41.4619C150.267 41.4619 150.158 41.3975 150.107 41.2882C149.774 40.5572 149.39 39.8458 148.964 39.1736C148.878 39.0336 148.917 38.8487 149.057 38.7619C149.191 38.6723 149.382 38.7115 149.469 38.8543C149.908 39.5517 150.306 40.2855 150.648 41.039C150.715 41.1902 150.65 41.3667 150.499 41.4367C150.463 41.4535 150.421 41.4619 150.379 41.4619ZM120.956 40.0923C120.906 40.0923 120.855 40.0811 120.811 40.0531C120.665 39.9719 120.615 39.7898 120.696 39.6442C121.099 38.9271 121.558 38.227 122.063 37.566C122.161 37.4315 122.351 37.4063 122.48 37.5071C122.612 37.608 122.637 37.7956 122.539 37.9245C122.054 38.5658 121.609 39.2409 121.22 39.9327C121.164 40.0363 121.063 40.0923 120.956 40.0923ZM147.774 37.3447C147.69 37.3447 147.603 37.3083 147.547 37.2383C147.029 36.6277 146.466 36.0479 145.869 35.5214C145.743 35.4121 145.735 35.2217 145.844 35.0984C145.956 34.9724 146.147 34.964 146.267 35.0732C146.883 35.6194 147.469 36.2188 148.004 36.8518C148.11 36.9778 148.096 37.1654 147.967 37.2719C147.911 37.3223 147.844 37.3447 147.774 37.3447ZM123.917 36.2132C123.841 36.2132 123.763 36.1824 123.704 36.1235C123.586 36.0059 123.589 35.8155 123.707 35.7006C124.298 35.1153 124.936 34.5719 125.6 34.0873C125.734 33.9893 125.922 34.0173 126.017 34.1518C126.115 34.2834 126.087 34.4711 125.953 34.5691C125.314 35.0368 124.701 35.5634 124.13 36.1291C124.068 36.1852 123.992 36.2132 123.917 36.2132ZM144.127 34.1126C144.071 34.1126 144.013 34.0958 143.962 34.0621C143.29 33.6224 142.584 33.2303 141.864 32.8998C141.713 32.8298 141.649 32.6533 141.716 32.5021C141.786 32.3509 141.968 32.2892 142.114 32.3537C142.861 32.6954 143.592 33.1015 144.29 33.558C144.427 33.6476 144.466 33.8353 144.377 33.9725C144.321 34.0622 144.225 34.1126 144.127 34.1126ZM127.838 33.3255C127.731 33.3255 127.628 33.2667 127.575 33.1659C127.496 33.0202 127.552 32.8382 127.701 32.7626C128.437 32.3732 129.205 32.0372 129.978 31.7683C130.137 31.7179 130.303 31.7963 130.359 31.9531C130.412 32.11 130.331 32.2808 130.174 32.334C129.426 32.5917 128.686 32.9166 127.978 33.2891C127.936 33.3143 127.888 33.3255 127.838 33.3255ZM139.699 32.0792C139.671 32.0792 139.643 32.0764 139.618 32.068C138.856 31.8495 138.064 31.6871 137.268 31.589C137.103 31.5694 136.988 31.4182 137.008 31.2557C137.027 31.0905 137.184 30.9841 137.341 30.9953C138.167 31.0989 138.988 31.2669 139.781 31.4938C139.94 31.5386 140.033 31.7039 139.985 31.8635C139.951 31.9923 139.831 32.0792 139.699 32.0792ZM132.44 31.7263C132.297 31.7263 132.171 31.6254 132.145 31.4798C132.115 31.3173 132.224 31.1633 132.386 31.1325C133.199 30.9841 134.03 30.8972 134.859 30.872C135.005 30.8468 135.162 30.9981 135.168 31.1633C135.17 31.3285 135.042 31.4658 134.876 31.4714C134.075 31.4938 133.274 31.5778 132.493 31.7207C132.473 31.7263 132.456 31.7263 132.44 31.7263Z" fill="#191919"/>
<path d="M136.224 22.9933L138.907 23.0774L136.753 24.7663L137.507 27.4859L135.316 25.8446L133.095 27.4411L133.899 24.7383L131.773 23.0046L134.459 22.9738L135.364 20.3074L136.224 22.9933Z" fill="#191919"/>
<path d="M128.113 23.7804L130.326 23.8504L128.55 25.2424L129.169 27.4859L127.365 26.1331L125.536 27.4494L126.197 25.22L124.444 23.7916L126.659 23.7664L127.404 21.5677L128.113 23.7804Z" fill="#191919"/>
<path d="M144.024 23.7804L146.237 23.8504L144.461 25.2424L145.08 27.4859L143.276 26.1331L141.447 27.4494L142.108 25.22L140.355 23.7916L142.57 23.7664L143.315 21.5677L144.024 23.7804Z" fill="#191919"/>
<path d="M113.226 56.8356C113.22 56.8104 113.215 56.788 113.209 56.7628C113.136 56.4183 113.083 55.9645 113.035 55.5136C112.988 55.0599 112.943 54.6089 112.89 54.27C112.839 53.9311 112.775 53.7099 112.775 53.7099C112.766 53.6791 112.78 53.6511 112.808 53.6455C112.834 53.6398 112.859 53.6567 112.87 53.6847C112.87 53.6847 112.954 53.9087 113.033 54.2532C113.117 54.5949 113.198 55.0515 113.282 55.4996C113.363 55.9449 113.455 56.3875 113.545 56.6983C113.596 56.8804 113.652 57.0092 113.688 57.0905C113.89 56.8804 114.352 56.2278 114.122 54.7322C113.89 53.2197 112.453 51.7661 112.453 51.7661C112.433 52.9705 110.994 54.6761 113.226 56.8356Z" fill="#191919"/>
<path d="M111.588 58.5834C112.128 59.2584 112.924 59.7009 113.341 59.9025L111.498 56.8721C111.487 56.8525 111.492 56.8301 111.509 56.8189C111.526 56.8077 111.548 56.8161 111.56 56.8329L113.635 59.7401C113.632 59.32 113.551 58.491 113.044 57.6255C112.31 56.3791 111.364 55.9842 110.543 55.2868C110.784 56.4155 110.82 57.6227 111.588 58.5834Z" fill="#191919"/>
<path d="M115.778 61.541C115.671 62.4092 115.963 63.3559 116.139 63.8348L117.077 60.4599C117.083 60.4374 117.105 60.4291 117.128 60.4375C117.147 60.4459 117.161 60.4683 117.158 60.4907L116.503 63.9889C116.834 63.7396 117.427 63.185 117.71 62.2412C118.116 60.88 117.679 59.8213 117.581 58.687C116.867 59.5636 115.929 60.303 115.778 61.541Z" fill="#191919"/>
<path d="M113.918 58.2668C113.868 59.0874 114.229 59.9893 114.445 60.4458L115.193 57.2529C115.198 57.2333 115.221 57.2249 115.243 57.2333C115.266 57.2417 115.28 57.2641 115.277 57.2837L114.831 60.5971C115.159 60.3618 115.736 59.8409 115.963 58.9502C116.291 57.6618 115.77 56.6591 115.59 55.5864C114.915 56.4043 113.991 57.0989 113.918 58.2668Z" fill="#191919"/>
<path d="M113.033 62.8574C113.745 63.2467 114.61 63.2719 115.058 63.2551L112.383 61.2105C112.367 61.1993 112.364 61.1713 112.375 61.1517C112.386 61.1321 112.409 61.1293 112.425 61.1377L115.271 62.9386C115.128 62.5213 114.778 61.7398 114.025 61.1461C112.946 60.2974 111.969 60.4039 111.005 60.1462C111.594 61.1349 112.028 62.3056 113.033 62.8574Z" fill="#191919"/>
<path d="M130.647 73.2064C131.107 73.7778 131.829 74.1447 132.21 74.3099L130.701 71.7332C130.692 71.7164 130.698 71.6968 130.714 71.6884C130.731 71.68 130.751 71.6856 130.762 71.6996L132.501 74.1671C132.532 73.803 132.524 73.0916 132.109 72.355C131.513 71.2963 130.644 70.9742 129.922 70.3916C130.059 71.3551 129.995 72.3942 130.647 73.2064Z" fill="#191919"/>
<path d="M130.359 75.6851C130.93 75.3882 131.336 74.7916 131.524 74.4667L129.003 75.2958C128.989 75.3014 128.969 75.2902 128.961 75.2734C128.953 75.2566 128.961 75.237 128.975 75.2314L131.409 74.1531C131.067 74.041 130.395 73.8926 129.675 74.1194C128.656 74.4443 128.306 75.1726 127.731 75.7047C128.617 75.8027 129.56 76.0996 130.359 75.6851Z" fill="#191919"/>
<path d="M120.503 67.9296C120.73 68.7418 121.318 69.4673 121.64 69.823L121.209 66.4424C121.206 66.42 121.223 66.4032 121.245 66.4032C121.265 66.4032 121.284 66.4172 121.29 66.4368L122.01 69.8174C122.2 69.4617 122.505 68.7278 122.399 67.7728C122.248 66.392 121.489 65.633 120.993 64.6667C120.707 65.731 120.181 66.7701 120.503 67.9296Z" fill="#191919"/>
<path d="M118.671 70.1899C119.405 70.2515 120.144 69.9294 120.514 69.7362L117.54 68.9968C117.52 68.9912 117.509 68.9716 117.512 68.9492C117.514 68.9296 117.531 68.9156 117.548 68.9184L120.578 69.3749C120.307 69.064 119.727 68.5094 118.884 68.2882C117.68 67.9717 116.907 68.4562 116.021 68.6131C116.862 69.2432 117.638 70.1031 118.671 70.1899Z" fill="#191919"/>
<path d="M127.328 72.2765C127.751 72.9655 128.485 73.4669 128.877 73.7021L127.583 70.6828C127.575 70.6632 127.586 70.6436 127.606 70.6352C127.625 70.6268 127.648 70.638 127.656 70.6548L129.213 73.5901C129.295 73.2008 129.381 72.4278 129.031 71.5679C128.524 70.3299 127.625 69.8482 126.914 69.1004C126.936 70.1759 126.726 71.2962 127.328 72.2765Z" fill="#191919"/>
<path d="M126.244 74.9147C126.933 74.7607 127.527 74.2453 127.815 73.9568L124.899 74.1361C124.883 74.1361 124.866 74.1221 124.863 74.0997C124.86 74.0801 124.871 74.0633 124.888 74.0605L127.781 73.5983C127.448 73.3883 126.77 73.0438 125.941 73.0858C124.762 73.1446 124.185 73.8196 123.423 74.2229C124.345 74.5618 125.277 75.1332 126.244 74.9147Z" fill="#191919"/>
<path d="M115.094 66.8064C115.777 67.2714 116.676 67.3806 117.144 67.4086L114.663 65.0755C114.646 65.0615 114.646 65.0335 114.663 65.0167C114.677 64.9999 114.702 64.9971 114.716 65.0083L117.413 67.1117C117.326 66.6776 117.08 65.8486 116.385 65.1764C115.388 64.2073 114.349 64.2185 113.38 63.86C113.85 64.9187 114.128 66.1483 115.094 66.8064Z" fill="#191919"/>
<path d="M117.447 65.4901C117.537 66.3499 118.058 67.1033 118.355 67.4675L118.565 63.8712C118.565 63.8488 118.587 63.8292 118.612 63.8264C118.637 63.8236 118.654 63.8404 118.657 63.8628L118.775 67.445C119.066 67.0585 119.567 66.2631 119.643 65.2492C119.758 63.7788 119.049 62.9945 118.682 61.9778C118.136 63.1318 117.321 64.2633 117.447 65.4901Z" fill="#191919"/>
<path d="M122.166 73.3099C123.082 73.3659 124.007 72.9234 124.471 72.6601L120.752 71.8087C120.73 71.8031 120.713 71.7751 120.716 71.7471C120.718 71.7191 120.741 71.7022 120.76 71.705L124.553 72.184C124.211 71.7891 123.488 71.0917 122.432 70.8368C120.926 70.4699 119.959 71.1281 118.853 71.3633C119.903 72.1532 120.875 73.2315 122.166 73.3099Z" fill="#191919"/>
<path d="M123.771 70.7556C124.289 71.6267 125.194 72.1532 125.679 72.3885L124.105 68.4141C124.093 68.3889 124.107 68.3553 124.133 68.3385C124.155 68.3245 124.183 68.3301 124.194 68.3525L126.099 72.1392C126.205 71.5679 126.326 70.4419 125.9 69.3048C125.284 67.6551 124.163 67.2014 123.284 66.3107C123.301 67.854 123.035 69.5149 123.771 70.7556Z" fill="#191919"/>
<path d="M157.415 56.8356C157.421 56.8104 157.426 56.788 157.432 56.7628C157.505 56.4183 157.561 55.9645 157.605 55.5136C157.653 55.0599 157.698 54.6089 157.751 54.27C157.804 53.9311 157.866 53.7099 157.866 53.7099C157.874 53.6791 157.86 53.6511 157.835 53.6455C157.81 53.6398 157.782 53.6567 157.773 53.6847C157.773 53.6847 157.689 53.9087 157.611 54.2532C157.527 54.5949 157.446 55.0515 157.362 55.4996C157.281 55.9449 157.188 56.3875 157.098 56.6983C157.048 56.8804 156.992 57.0092 156.956 57.0905C156.754 56.8804 156.292 56.2278 156.522 54.7322C156.754 53.2197 158.191 51.7661 158.191 51.7661C158.208 52.9705 159.647 54.6761 157.415 56.8356Z" fill="#191919"/>
<path d="M159.053 58.5834C158.512 59.2584 157.717 59.7009 157.297 59.9025L159.139 56.8721C159.151 56.8525 159.148 56.8301 159.128 56.8189C159.111 56.8077 159.089 56.8161 159.078 56.8329L157.002 59.7401C157.005 59.32 157.086 58.491 157.596 57.6255C158.33 56.3791 159.277 55.9842 160.097 55.2868C159.856 56.4155 159.82 57.6227 159.053 58.5834Z" fill="#191919"/>
<path d="M154.863 61.541C154.969 62.4092 154.678 63.3559 154.501 63.8348L153.563 60.4599C153.557 60.4374 153.535 60.4291 153.513 60.4375C153.493 60.4459 153.479 60.4683 153.482 60.4907L154.137 63.9889C153.807 63.7396 153.213 63.185 152.93 62.2412C152.524 60.88 152.961 59.8213 153.059 58.687C153.773 59.5636 154.711 60.303 154.863 61.541Z" fill="#191919"/>
<path d="M156.723 58.2669C156.773 59.0875 156.412 59.9894 156.199 60.4459L155.451 57.253C155.446 57.2334 155.423 57.225 155.401 57.2334C155.379 57.2418 155.364 57.2642 155.367 57.2838L155.813 60.5971C155.485 60.3619 154.908 59.8409 154.681 58.9503C154.353 57.6619 154.874 56.6592 155.054 55.5865C155.729 56.4043 156.65 57.0989 156.723 58.2669Z" fill="#191919"/>
<path d="M157.607 62.8574C156.896 63.2467 156.031 63.2719 155.583 63.2551L158.257 61.2105C158.274 61.1993 158.277 61.1713 158.266 61.1517C158.254 61.1321 158.232 61.1293 158.215 61.1377L155.37 62.9386C155.515 62.5213 155.865 61.7398 156.616 61.1461C157.694 60.2974 158.672 60.4039 159.638 60.1462C159.047 61.1349 158.613 62.3056 157.607 62.8574Z" fill="#191919"/>
<path d="M139.993 73.2064C139.534 73.7778 138.811 74.1447 138.431 74.3099L139.94 71.7332C139.949 71.7164 139.943 71.6968 139.926 71.6884C139.909 71.68 139.89 71.6856 139.879 71.6996L138.139 74.1671C138.108 73.803 138.117 73.0916 138.531 72.355C139.128 71.2963 139.996 70.9742 140.719 70.3916C140.582 71.3551 140.646 72.3942 139.993 73.2064Z" fill="#191919"/>
<path d="M140.282 75.6851C139.71 75.3882 139.304 74.7916 139.117 74.4667L141.637 75.2958C141.654 75.3014 141.671 75.2902 141.679 75.2734C141.688 75.2566 141.679 75.237 141.665 75.2314L139.232 74.1531C139.573 74.041 140.245 73.8926 140.965 74.1194C141.985 74.4443 142.335 75.1726 142.909 75.7047C142.024 75.8027 141.08 76.0996 140.282 75.6851Z" fill="#191919"/>
<path d="M150.138 67.9296C149.911 68.7418 149.323 69.4673 148.998 69.823L149.429 66.4424C149.432 66.42 149.415 66.4032 149.393 66.4032C149.373 66.4032 149.354 66.4172 149.348 66.4368L148.631 69.8174C148.441 69.4617 148.135 68.7278 148.242 67.7728C148.393 66.392 149.152 65.633 149.648 64.6667C149.936 65.731 150.46 66.7701 150.138 67.9296Z" fill="#191919"/>
<path d="M151.97 70.1899C151.236 70.2515 150.497 69.9294 150.127 69.7362L153.101 68.9968C153.121 68.9912 153.132 68.9716 153.129 68.9492C153.127 68.9296 153.11 68.9156 153.093 68.9184L150.062 69.3749C150.334 69.064 150.914 68.5094 151.757 68.2882C152.961 67.9717 153.734 68.4562 154.619 68.6131C153.782 69.2432 153.003 70.1031 151.97 70.1899Z" fill="#191919"/>
<path d="M143.315 72.2765C142.892 72.9655 142.159 73.4669 141.764 73.7021L143.058 70.6828C143.066 70.6632 143.055 70.6436 143.035 70.6352C143.016 70.6268 142.993 70.638 142.985 70.6548L141.425 73.5901C141.344 73.2008 141.257 72.4278 141.607 71.5679C142.114 70.3299 143.013 69.8482 143.724 69.1004C143.707 70.1759 143.915 71.2962 143.315 72.2765Z" fill="#191919"/>
<path d="M144.396 74.9147C143.707 74.7607 143.114 74.2453 142.825 73.9568L145.741 74.1361C145.758 74.1361 145.774 74.1221 145.777 74.0997C145.78 74.0801 145.769 74.0633 145.752 74.0605L142.859 73.5983C143.192 73.3883 143.87 73.0438 144.699 73.0858C145.878 73.1446 146.455 73.8196 147.217 74.2229C146.295 74.5618 145.363 75.1332 144.396 74.9147Z" fill="#191919"/>
<path d="M155.546 66.8064C154.863 67.2714 153.964 67.3806 153.493 67.4086L155.975 65.0755C155.989 65.0615 155.989 65.0335 155.975 65.0167C155.961 64.9999 155.936 64.9971 155.922 65.0083L153.225 67.1117C153.311 66.6776 153.558 65.8486 154.253 65.1764C155.25 64.2073 156.289 64.2185 157.258 63.86C156.79 64.9187 156.513 66.1483 155.546 66.8064Z" fill="#191919"/>
<path d="M153.193 65.4901C153.104 66.3499 152.583 67.1033 152.286 67.4675L152.076 63.8712C152.076 63.8488 152.054 63.8292 152.028 63.8264C152.003 63.8236 151.986 63.8404 151.983 63.8628L151.866 67.445C151.575 67.0585 151.073 66.2631 150.995 65.2492C150.883 63.7788 151.589 62.9945 151.958 61.9778C152.504 63.1318 153.319 64.2633 153.193 65.4901Z" fill="#191919"/>
<path d="M148.474 73.3099C147.559 73.3659 146.634 72.9234 146.172 72.6601L149.892 71.8087C149.914 71.8031 149.931 71.7751 149.928 71.7471C149.925 71.7191 149.903 71.7022 149.883 71.705L146.094 72.184C146.435 71.7891 147.158 71.0917 148.214 70.8368C149.724 70.4699 150.687 71.1281 151.793 71.3633C150.74 72.1532 149.766 73.2315 148.474 73.3099Z" fill="#191919"/>
<path d="M146.869 70.7556C146.354 71.6267 145.446 72.1532 144.962 72.3885L146.536 68.4141C146.547 68.3889 146.533 68.3553 146.508 68.3385C146.485 68.3245 146.457 68.3301 146.446 68.3525L144.542 72.1392C144.435 71.5679 144.315 70.4419 144.741 69.3048C145.357 67.6551 146.477 67.2014 147.356 66.3107C147.34 67.854 147.606 69.5149 146.869 70.7556Z" fill="#191919"/>
<path d="M132.743 74.4023C132.717 72.901 133.852 71.6603 135.277 71.6351C136.703 71.6099 137.876 72.8058 137.902 74.3071C137.927 75.8083 136.793 77.0491 135.367 77.0743C133.941 77.1023 132.765 75.9035 132.743 74.4023Z" fill="#191919"/>
<path d="M124.133 44.7977V45.8788H123.596V41.3303H124.044L124.091 41.6999H124.111C124.402 41.4563 124.755 41.2518 125.131 41.2518C125.954 41.2518 126.394 41.8904 126.394 42.8847C126.394 43.9714 125.741 44.61 125.01 44.61C124.716 44.61 124.419 44.4727 124.122 44.2403L124.133 44.7977ZM124.918 44.1563C125.444 44.1563 125.834 43.6745 125.834 42.8847C125.834 42.1817 125.595 41.7055 124.991 41.7055C124.722 41.7055 124.45 41.8568 124.133 42.1397V43.8174C124.422 44.061 124.705 44.1563 124.918 44.1563Z" fill="white"/>
<path d="M127.245 41.3303H127.693L127.741 41.91H127.76C127.979 41.5067 128.307 41.2518 128.668 41.2518C128.805 41.2518 128.906 41.2714 129.01 41.319L128.903 41.7924C128.797 41.7588 128.727 41.7392 128.595 41.7392C128.326 41.7392 128.004 41.9352 127.786 42.4758V44.5288H127.248V41.3303H127.245Z" fill="white"/>
<path d="M130.662 41.2518C131.477 41.2518 131.94 41.8372 131.94 42.7531C131.94 42.8651 131.934 42.9687 131.92 43.0471H129.761C129.8 43.7389 130.214 44.1731 130.828 44.1731C131.13 44.1731 131.388 44.075 131.623 43.9238L131.814 44.2795C131.536 44.4587 131.195 44.61 130.76 44.61C129.903 44.61 129.226 43.9854 129.226 42.9379C129.226 41.8904 129.931 41.2518 130.662 41.2518ZM131.463 42.6942C131.463 42.0445 131.172 41.6804 130.674 41.6804C130.225 41.6804 129.819 42.0501 129.752 42.6942H131.463Z" fill="white"/>
<path d="M132.727 41.3303H133.175L133.222 41.7896H133.242C133.519 41.4871 133.855 41.2491 134.236 41.2491C134.724 41.2491 134.987 41.4815 135.118 41.8624C135.455 41.5011 135.782 41.2491 136.172 41.2491C136.83 41.2491 137.146 41.6832 137.146 42.501V44.5288H136.606V42.5739C136.606 41.9745 136.415 41.7168 136.015 41.7168C135.765 41.7168 135.508 41.8821 135.211 42.2097V44.526H134.67V42.5711C134.67 41.9717 134.48 41.714 134.071 41.714C133.833 41.714 133.564 41.8793 133.267 42.2069V44.5232H132.729V41.3303H132.727Z" fill="white"/>
<path d="M138.082 40.3248C138.082 40.1147 138.247 39.9747 138.457 39.9747C138.667 39.9747 138.833 40.1119 138.833 40.3248C138.833 40.5292 138.667 40.6721 138.457 40.6721C138.247 40.6721 138.082 40.5292 138.082 40.3248ZM138.183 41.3303H138.721V44.5288H138.183V41.3303Z" fill="white"/>
<path d="M139.754 41.3303H140.3V43.2852C140.3 43.8846 140.476 44.1423 140.899 44.1423C141.23 44.1423 141.459 43.977 141.762 43.6017V41.3303H142.3V44.5288H141.852L141.804 44.0274H141.784C141.487 44.3747 141.171 44.6072 140.731 44.6072C140.053 44.6072 139.751 44.1731 139.751 43.3552V41.3303H139.754Z" fill="white"/>
<path d="M143.38 41.3303H143.829L143.876 41.7896H143.896C144.173 41.4871 144.509 41.2491 144.89 41.2491C145.377 41.2491 145.641 41.4815 145.772 41.8624C146.108 41.5011 146.436 41.2491 146.825 41.2491C147.484 41.2491 147.8 41.6832 147.8 42.501V44.5288H147.26V42.5739C147.26 41.9745 147.069 41.7168 146.669 41.7168C146.419 41.7168 146.162 41.8821 145.865 42.2097V44.526H145.324V42.5711C145.324 41.9717 145.134 41.714 144.725 41.714C144.49 41.714 144.218 41.8793 143.921 42.2069V44.5232H143.383V41.3303H143.38Z" fill="white"/>
<path d="M122.226 55.5639V47.7384H123.929C124.503 47.7384 124.901 47.9233 125.111 48.293C125.324 48.6627 125.436 49.2144 125.447 49.9454V50.1107C125.447 50.8865 125.341 51.4775 125.133 51.878C124.923 52.2813 124.537 52.4802 123.968 52.4802H123.355V55.5667H122.226V55.5639ZM123.355 51.4943H123.744C123.982 51.4943 124.139 51.3963 124.209 51.203C124.279 51.0097 124.318 50.6373 124.318 50.0939V49.9426C124.313 49.4805 124.276 49.15 124.201 48.9512C124.125 48.7523 123.977 48.6515 123.75 48.6515H123.352V51.4943H123.355Z" fill="white"/>
<path d="M127.698 51.8864L127.334 51.8696V55.5639H126.206V47.7384H128.074C128.463 47.7384 128.751 47.8196 128.942 47.9849C129.132 48.1501 129.258 48.3798 129.32 48.6739C129.379 48.968 129.412 49.3545 129.412 49.8306C129.412 50.3068 129.365 50.6681 129.27 50.9173C129.174 51.1666 128.995 51.3347 128.737 51.4215C128.992 51.4691 129.172 51.6511 129.272 51.9676C129.373 52.2841 129.424 52.9451 129.424 53.9506C129.424 54.9533 129.438 55.4939 129.466 55.5667H128.334C128.306 55.5079 128.292 54.5724 128.292 52.7603C128.292 52.4158 128.253 52.1833 128.175 52.0713C128.096 51.9508 127.936 51.892 127.698 51.8864ZM127.34 50.9425H127.791C127.934 50.9425 128.04 50.9089 128.11 50.8389C128.18 50.7717 128.228 50.6541 128.253 50.486C128.281 50.3208 128.292 50.0659 128.292 49.727V49.6766C128.292 49.2536 128.259 48.9764 128.191 48.8447C128.124 48.7159 127.967 48.6487 127.724 48.6487H127.34V50.9425Z" fill="white"/>
<path d="M133.264 55.0877C133.004 55.463 132.592 55.6535 132.021 55.6535C131.452 55.6535 131.035 55.4658 130.769 55.0849C130.503 54.7068 130.368 54.1383 130.368 53.3764V49.797C130.368 48.363 130.923 47.6432 132.035 47.6432C132.609 47.6432 133.021 47.8252 133.273 48.1893C133.525 48.5535 133.651 49.0884 133.651 49.7942V53.3736C133.654 54.1383 133.525 54.7124 133.264 55.0877ZM131.609 54.3483C131.676 54.5304 131.811 54.62 132.018 54.62C132.222 54.62 132.36 54.5276 132.421 54.3399C132.486 54.1551 132.519 53.8386 132.519 53.3877V49.741C132.519 49.3713 132.486 49.0996 132.418 48.9288C132.354 48.7579 132.222 48.6739 132.032 48.6739C131.839 48.6739 131.704 48.7607 131.626 48.9288C131.547 49.0996 131.511 49.3685 131.511 49.7354V53.3877C131.511 53.847 131.544 54.1691 131.609 54.3483Z" fill="white"/>
<path d="M134.673 55.5639V47.7384H136.34C136.886 47.7384 137.281 47.9093 137.527 48.2481C137.774 48.587 137.897 49.0884 137.897 49.7494L137.9 53.2812C137.9 54.0682 137.777 54.648 137.53 55.0149C137.284 55.3818 136.875 55.5667 136.303 55.5667H134.673V55.5639ZM135.805 54.6396H136.177C136.385 54.6396 136.536 54.5696 136.631 54.4267C136.726 54.2839 136.774 54.0234 136.774 53.6425L136.768 49.7802C136.768 49.3741 136.721 49.0828 136.628 48.912C136.533 48.7383 136.373 48.6543 136.141 48.6543H135.808V54.6396H135.805Z" fill="white"/>
<path d="M141.759 55.1437C141.502 55.4826 141.084 55.6535 140.513 55.6535C139.942 55.6535 139.524 55.4826 139.264 55.1409C139.003 54.7992 138.875 54.2699 138.875 53.5529V47.7328H140.006V53.5305C140.006 53.9422 140.023 54.1943 140.062 54.2839C140.098 54.3735 140.143 54.4547 140.194 54.5248C140.247 54.5976 140.353 54.634 140.516 54.634C140.678 54.634 140.796 54.5836 140.866 54.4828C140.936 54.3819 140.978 54.2559 140.995 54.1074C141.009 53.959 141.017 53.7657 141.017 53.5305V47.7328H142.146V53.5529C142.146 54.2727 142.017 54.8048 141.759 55.1437Z" fill="white"/>
<path d="M145.968 55.1073C145.711 55.4686 145.31 55.6507 144.761 55.6507C144.212 55.6507 143.803 55.4574 143.531 55.0709C143.26 54.6844 143.123 54.127 143.123 53.4016V49.9902C143.123 48.8251 143.414 48.0969 143.991 47.8056C144.206 47.6991 144.464 47.6459 144.767 47.6459C145.809 47.6459 146.332 48.3405 146.332 49.7269V50.8024H145.24V49.8026C145.24 49.3992 145.209 49.1136 145.142 48.9371C145.078 48.7635 144.952 48.6766 144.764 48.6766C144.576 48.6766 144.445 48.7691 144.372 48.9511C144.299 49.136 144.263 49.4188 144.263 49.797V53.452C144.263 53.8721 144.296 54.1746 144.369 54.3539C144.439 54.5331 144.568 54.6255 144.753 54.6255C144.937 54.6255 145.066 54.5331 145.136 54.3511C145.206 54.1662 145.243 53.8637 145.243 53.438V52.3177H146.352V53.424C146.349 54.1858 146.223 54.7432 145.968 55.1073Z" fill="white"/>
<path d="M147.649 55.5639V48.7692H146.778V47.7357H149.607V48.7692H148.773V55.5639H147.649Z" fill="white"/>
</svg>
